{
.appVersion = "1230";
DisplayStrings = (
"Ø",
"H/Etapsiliperispomeniprosgegrammeni"
);
copyright = "Copyright © 2019 by Abbie Gonzalez. All rights reserved.";
customParameters = (
{
name = panose;
value = (
0,
0,
5,
0,
0,
0,
0,
0,
0,
0
);
},
{
name = unicodeRanges;
value = (
0,
1,
2,
3,
4,
5,
6,
7,
9,
29,
30,
31,
32,
33,
36,
45
);
},
{
name = codePageRanges;
value = (
1252,
1250,
1251,
1253,
1254,
1257,
1258,
bit 29
);
},
{
name = blueScale;
value = 0.037;
},
{
name = blueShift;
value = 3;
}
);
date = "2019-08-22 11:19:42 +0000";
designer = "Abbie Gonzalez";
designerURL = "https://abbiecod.es";
familyName = OpenDyslexic;
fontMaster = (
{
alignmentZones = (
"{800, 16}",
"{700, 16}",
"{500, 16}",
"{0, -16}",
"{-200, -16}"
);
ascender = 800;
capHeight = 700;
customParameters = (
{
name = typoAscender;
value = 800;
},
{
name = typoDescender;
value = -200;
},
{
name = typoLineGap;
value = 200;
},
{
name = winAscent;
value = 1000;
},
{
name = winDescent;
value = 200;
},
{
name = hheaAscender;
value = 1000;
},
{
name = hheaDescender;
value = -200;
},
{
name = strikeoutPosition;
value = 300;
},
{
name = strikeoutSize;
value = 50;
}
);
descender = -200;
horizontalStems = (
49,
59,
67,
73,
91,
95,
101,
121,
133,
152,
156
);
id = "4FCB07EB-01E7-4D87-AA20-FCB2BF85BBFF";
verticalStems = (
41,
57,
70,
80,
88
);
weightValue = 400;
widthValue = 5;
xHeight = 500;
}
);
glyphs = (
{
glyphname = A;
lastChange = "2019-08-23 22:49:32 +0000";
layers = (
{
anchors = (
{
name = ctop;
position = "{580, 777}";
},
{
name = top;
position = "{413, 668}";
}
);
hints = (
{
horizontal = 1;
place = "{0, 21}";
target = up;
type = BottomGhost;
},
{
horizontal = 1;
place = "{119, 116}";
type = Stem;
}
);
layerId = "4FCB07EB-01E7-4D87-AA20-FCB2BF85BBFF";
paths = (
{
closed = 1;
nodes = (
"40 0 LINE",
"162 0 LINE",
"232 119 LINE",
"532 119 LINE",
"522 0 LINE",
"652 0 LINE",
"606 729 LINE",
"520 729 LINE"
);
},
{
closed = 1;
nodes = (
"539 235 LINE",
"293 235 LINE",
"539 668 LINE"
);
}
);
width = 692;
}
);
note = A;
unicode = 0041;
},
{
glyphname = Abrevedotbelow;
lastChange = "2019-08-23 19:48:00 +0000";
layers = (
{
layerId = "4FCB07EB-01E7-4D87-AA20-FCB2BF85BBFF";
paths = (
{
closed = 1;
nodes = (
"676 791 OFFCURVE",
"785 865 OFFCURVE",
"821 988 CURVE",
"762 988 LINE",
"736 901 OFFCURVE",
"693 886 OFFCURVE",
"607 886 CURVE SMOOTH",
"534 886 OFFCURVE",
"496 900 OFFCURVE",
"521 988 CURVE",
"461 988 LINE",
"425 865 OFFCURVE",
"481 791 OFFCURVE",
"579 791 CURVE SMOOTH"
);
},
{
closed = 1;
nodes = (
"606 729 LINE",
"521 729 LINE",
"40 0 LINE",
"163 0 LINE",
"232 119 LINE",
"533 119 LINE",
"523 0 LINE",
"652 0 LINE"
);
},
{
closed = 1;
nodes = (
"294 235 LINE",
"544 668 LINE",
"540 235 LINE"
);
},
{
closed = 1;
nodes = (
"269 -136 LINE",
"361 -136 LINE",
"391 -35 LINE",
"299 -35 LINE"
);
}
);
width = 861;
}
);
note = uni1EB6;
unicode = 1EB6;
},
{
glyphname = Abrevegrave;
lastChange = "2019-08-23 19:48:00 +0000";
layers = (
{
layerId = "4FCB07EB-01E7-4D87-AA20-FCB2BF85BBFF";
paths = (
{
closed = 1;
nodes = (
"736 988 LINE",
"618 1115 LINE",
"545 1115 LINE",
"619 1003 LINE"
);
},
{
closed = 1;
nodes = (
"676 791 OFFCURVE",
"785 865 OFFCURVE",
"821 988 CURVE",
"761 988 LINE",
"735 901 OFFCURVE",
"693 886 OFFCURVE",
"607 886 CURVE SMOOTH",
"534 886 OFFCURVE",
"496 900 OFFCURVE",
"521 988 CURVE",
"461 988 LINE",
"425 865 OFFCURVE",
"481 791 OFFCURVE",
"579 791 CURVE SMOOTH"
);
},
{
closed = 1;
nodes = (
"606 729 LINE",
"521 729 LINE",
"40 0 LINE",
"163 0 LINE",
"232 119 LINE",
"533 119 LINE",
"523 0 LINE",
"652 0 LINE"
);
},
{
closed = 1;
nodes = (
"294 235 LINE",
"545 668 LINE",
"540 235 LINE"
);
}
);
width = 861;
}
);
note = uni1EB0;
unicode = 1EB0;
},
{
glyphname = Abrevehookabove;
lastChange = "2019-08-23 19:48:00 +0000";
layers = (
{
layerId = "4FCB07EB-01E7-4D87-AA20-FCB2BF85BBFF";
paths = (
{
closed = 1;
nodes = (
"681 1038 OFFCURVE",
"674 1032 OFFCURVE",
"666 1027 CURVE",
"653 1018 LINE SMOOTH",
"644 1012 OFFCURVE",
"638 1008 OFFCURVE",
"634 1003 CURVE",
"631 999 OFFCURVE",
"628 993 OFFCURVE",
"627 987 CURVE SMOOTH",
"626 984 LINE",
"651 984 LINE",
"652 989 OFFCURVE",
"655 993 OFFCURVE",
"657 996 CURVE",
"658 997 OFFCURVE",
"661 1000 OFFCURVE",
"668 1004 CURVE SMOOTH",
"679 1011 LINE SMOOTH",
"696 1021 OFFCURVE",
"705 1032 OFFCURVE",
"708 1042 CURVE SMOOTH",
"710 1052 OFFCURVE",
"708 1062 OFFCURVE",
"701 1068 CURVE SMOOTH",
"693 1074 OFFCURVE",
"684 1078 OFFCURVE",
"668 1078 CURVE SMOOTH",
"653 1078 OFFCURVE",
"636 1074 OFFCURVE",
"617 1066 CURVE",
"611 1045 LINE",
"628 1053 OFFCURVE",
"642 1058 OFFCURVE",
"656 1058 CURVE SMOOTH",
"677 1058 OFFCURVE",
"683 1050 OFFCURVE",
"682 1044 CURVE SMOOTH"
);
},
{
closed = 1;
nodes = (
"675 791 OFFCURVE",
"784 865 OFFCURVE",
"820 988 CURVE",
"761 988 LINE",
"735 901 OFFCURVE",
"692 886 OFFCURVE",
"606 886 CURVE SMOOTH",
"533 886 OFFCURVE",
"495 900 OFFCURVE",
"520 988 CURVE",
"460 988 LINE",
"424 865 OFFCURVE",
"480 791 OFFCURVE",
"578 791 CURVE SMOOTH"
);
},
{
closed = 1;
nodes = (
"606 729 LINE",
"520 729 LINE",
"40 0 LINE",
"162 0 LINE",
"233 119 LINE",
"533 119 LINE",
"522 0 LINE",
"651 0 LINE"
);
},
{
closed = 1;
nodes = (
"293 235 LINE",
"543 668 LINE",
"539 235 LINE"
);
}
);
width = 860;
}
);
note = uni1EB2;
unicode = 1EB2;
},
{
glyphname = Abrevetilde;
lastChange = "2019-08-23 19:48:00 +0000";
layers = (
{
layerId = "4FCB07EB-01E7-4D87-AA20-FCB2BF85BBFF";
paths = (
{
closed = 1;
nodes = (
"652 1104 OFFCURVE",
"639 1001 OFFCURVE",
"705 1000 CURVE SMOOTH",
"754 999 OFFCURVE",
"783 1004 OFFCURVE",
"828 1150 CURVE",
"786 1150 LINE",
"769 1101 OFFCURVE",
"764 1050 OFFCURVE",
"718 1050 CURVE SMOOTH",
"678 1050 OFFCURVE",
"693 1150 OFFCURVE",
"633 1150 CURVE SMOOTH",
"568 1150 OFFCURVE",
"543 1117 OFFCURVE",
"501 1000 CURVE",
"552 1000 LINE",
"564 1043 OFFCURVE",
"582 1106 OFFCURVE",
"618 1105 CURVE SMOOTH"
);
},
{
closed = 1;
nodes = (
"676 791 OFFCURVE",
"785 865 OFFCURVE",
"821 988 CURVE",
"761 988 LINE",
"735 901 OFFCURVE",
"693 886 OFFCURVE",
"607 886 CURVE SMOOTH",
"534 886 OFFCURVE",
"495 900 OFFCURVE",
"520 988 CURVE",
"461 988 LINE",
"425 865 OFFCURVE",
"481 791 OFFCURVE",
"579 791 CURVE SMOOTH"
);
},
{
closed = 1;
nodes = (
"606 729 LINE",
"521 729 LINE",
"40 0 LINE",
"163 0 LINE",
"232 119 LINE",
"533 119 LINE",
"523 0 LINE",
"652 0 LINE"
);
},
{
closed = 1;
nodes = (
"293 235 LINE",
"544 668 LINE",
"540 235 LINE"
);
}
);
width = 868;
}
);
note = uni1EB4;
unicode = 1EB4;
},
{
glyphname = Acircumflexdotbelow;
lastChange = "2019-08-23 19:48:00 +0000";
layers = (
{
layerId = "4FCB07EB-01E7-4D87-AA20-FCB2BF85BBFF";
paths = (
{
closed = 1;
nodes = (
"626 1007 LINE",
"567 943 LINE",
"406 812 LINE",
"455 812 LINE",
"615 911 LINE",
"718 812 LINE",
"768 812 LINE",
"687 943 LINE",
"670 1007 LINE"
);
},
{
closed = 1;
nodes = (
"40 0 LINE",
"162 0 LINE",
"231 119 LINE",
"531 119 LINE",
"522 0 LINE",
"652 0 LINE",
"606 729 LINE",
"520 729 LINE"
);
},
{
closed = 1;
nodes = (
"538 235 LINE",
"292 235 LINE",
"543 668 LINE"
);
},
{
closed = 1;
nodes = (
"298 -35 LINE",
"267 -136 LINE",
"360 -136 LINE",
"390 -35 LINE"
);
}
);
width = 808;
}
);
note = uni1EAC;
unicode = 1EAC;
},
{
glyphname = Acircumflexgrave;
lastChange = "2019-08-23 19:48:00 +0000";
layers = (
{
layerId = "4FCB07EB-01E7-4D87-AA20-FCB2BF85BBFF";
paths = (
{
closed = 1;
nodes = (
"822 905 LINE",
"939 890 LINE",
"822 1017 LINE",
"749 1017 LINE"
);
},
{
closed = 1;
nodes = (
"619 988 LINE",
"560 924 LINE",
"399 793 LINE",
"448 793 LINE",
"610 892 LINE",
"712 793 LINE",
"762 793 LINE",
"680 924 LINE",
"663 988 LINE"
);
},
{
closed = 1;
nodes = (
"40 0 LINE",
"163 0 LINE",
"232 119 LINE",
"532 119 LINE",
"523 0 LINE",
"652 0 LINE",
"606 729 LINE",
"521 729 LINE"
);
},
{
closed = 1;
nodes = (
"539 235 LINE",
"293 235 LINE",
"544 668 LINE"
);
}
);
width = 979;
}
);
note = uni1EA6;
unicode = 1EA6;
},
{
glyphname = Acircumflextilde;
lastChange = "2019-08-23 19:48:00 +0000";
layers = (
{
layerId = "4FCB07EB-01E7-4D87-AA20-FCB2BF85BBFF";
paths = (
{
closed = 1;
nodes = (
"577 1036 LINE",
"589 1079 OFFCURVE",
"609 1142 OFFCURVE",
"644 1141 CURVE SMOOTH",
"678 1140 OFFCURVE",
"664 1037 OFFCURVE",
"730 1036 CURVE SMOOTH",
"779 1035 OFFCURVE",
"809 1040 OFFCURVE",
"854 1186 CURVE",
"812 1186 LINE",
"796 1137 OFFCURVE",
"791 1086 OFFCURVE",
"745 1086 CURVE SMOOTH",
"705 1086 OFFCURVE",
"718 1186 OFFCURVE",
"658 1186 CURVE SMOOTH",
"593 1186 OFFCURVE",
"569 1153 OFFCURVE",
"527 1036 CURVE"
);
},
{
closed = 1;
nodes = (
"625 1001 LINE",
"565 937 LINE",
"405 806 LINE",
"455 806 LINE",
"615 905 LINE",
"718 806 LINE",
"767 806 LINE",
"685 937 LINE",
"670 1001 LINE"
);
},
{
closed = 1;
nodes = (
"40 0 LINE",
"163 0 LINE",
"231 119 LINE",
"532 119 LINE",
"523 0 LINE",
"651 0 LINE",
"605 729 LINE",
"521 729 LINE"
);
},
{
closed = 1;
nodes = (
"539 235 LINE",
"292 235 LINE",
"544 668 LINE"
);
}
);
width = 894;
}
);
note = uni1EAA;
unicode = 1EAA;
},
{
glyphname = Adieresismacron;
lastChange = "2019-08-23 19:48:00 +0000";
layers = (
{
layerId = "4FCB07EB-01E7-4D87-AA20-FCB2BF85BBFF";
paths = (
{
closed = 1;
nodes = (
"466 983 LINE",
"417 913 LINE",
"831 930 LINE",
"827 1007 LINE"
);
},
{
closed = 1;
nodes = (
"424 831 LINE",
"395 730 LINE",
"487 730 LINE",
"517 831 LINE"
);
},
{
closed = 1;
nodes = (
"673 831 LINE",
"644 730 LINE",
"736 730 LINE",
"765 831 LINE"
);
},
{
closed = 1;
nodes = (
"40 0 LINE",
"163 0 LINE",
"231 119 LINE",
"532 119 LINE",
"523 0 LINE",
"652 0 LINE",
"606 729 LINE",
"521 729 LINE"
);
},
{
closed = 1;
nodes = (
"539 235 LINE",
"293 235 LINE",
"544 668 LINE"
);
}
);
width = 871;
}
);
note = uni01DE;
unicode = 01DE;
},
{
glyphname = Adotbelow;
lastChange = "2019-08-23 19:48:00 +0000";
layers = (
{
layerId = "4FCB07EB-01E7-4D87-AA20-FCB2BF85BBFF";
paths = (
{
closed = 1;
nodes = (
"40 0 LINE",
"162 0 LINE",
"232 119 LINE",
"532 119 LINE",
"522 0 LINE",
"652 0 LINE",
"606 729 LINE",
"520 729 LINE"
);
},
{
closed = 1;
nodes = (
"539 235 LINE",
"293 235 LINE",
"544 668 LINE"
);
},
{
closed = 1;
nodes = (
"298 -35 LINE",
"268 -136 LINE",
"360 -136 LINE",
"391 -35 LINE"
);
}
);
width = 692;
}
);
note = uni1EA0;
unicode = 1EA0;
},
{
glyphname = Ahookabove;
lastChange = "2019-08-23 19:48:00 +0000";
layers = (
{
layerId = "4FCB07EB-01E7-4D87-AA20-FCB2BF85BBFF";
paths = (
{
closed = 1;
nodes = (
"546 838 LINE",
"565 846 OFFCURVE",
"581 850 OFFCURVE",
"596 850 CURVE SMOOTH",
"612 850 OFFCURVE",
"622 846 OFFCURVE",
"630 840 CURVE SMOOTH",
"638 834 OFFCURVE",
"640 824 OFFCURVE",
"638 814 CURVE SMOOTH",
"636 804 OFFCURVE",
"625 793 OFFCURVE",
"609 783 CURVE SMOOTH",
"597 776 LINE SMOOTH",
"590 772 OFFCURVE",
"587 769 OFFCURVE",
"585 768 CURVE",
"584 765 OFFCURVE",
"582 761 OFFCURVE",
"581 756 CURVE",
"556 756 LINE",
"555 759 LINE",
"557 765 OFFCURVE",
"560 771 OFFCURVE",
"563 775 CURVE",
"567 780 OFFCURVE",
"574 784 OFFCURVE",
"583 790 CURVE",
"595 799 LINE",
"604 804 OFFCURVE",
"609 810 OFFCURVE",
"610 816 CURVE SMOOTH",
"612 822 OFFCURVE",
"607 830 OFFCURVE",
"586 830 CURVE SMOOTH",
"572 830 OFFCURVE",
"557 825 OFFCURVE",
"541 817 CURVE"
);
},
{
closed = 1;
nodes = (
"40 0 LINE",
"162 0 LINE",
"231 119 LINE",
"531 119 LINE",
"522 0 LINE",
"652 0 LINE",
"606 729 LINE",
"520 729 LINE"
);
},
{
closed = 1;
nodes = (
"538 235 LINE",
"293 235 LINE",
"543 668 LINE"
);
}
);
width = 692;
}
);
note = uni1EA2;
unicode = 1EA2;
},
{
glyphname = "Alpha-latin";
lastChange = "2019-08-23 19:48:00 +0000";
layers = (
{
layerId = "4FCB07EB-01E7-4D87-AA20-FCB2BF85BBFF";
paths = (
{
closed = 1;
nodes = (
"613 602 LINE",
"578 655 OFFCURVE",
"547 677 OFFCURVE",
"499 677 CURVE SMOOTH",
"490 677 OFFCURVE",
"480 676 OFFCURVE",
"469 674 CURVE SMOOTH",
"375 660 OFFCURVE",
"227 548 OFFCURVE",
"133 387 CURVE SMOOTH",
"93 318 OFFCURVE",
"68 261 OFFCURVE",
"54 214 CURVE SMOOTH",
"-6 13 OFFCURVE",
"137 -14 OFFCURVE",
"253 -14 CURVE SMOOTH",
"326 -14 OFFCURVE",
"402 17 OFFCURVE",
"456 82 CURVE",
"432 0 LINE",
"530 0 LINE",
"552 75 OFFCURVE",
"530 60 OFFCURVE",
"610 329 CURVE SMOOTH",
"692 605 OFFCURVE",
"721 600 OFFCURVE",
"742 673 CURVE",
"655 673 LINE"
);
},
{
closed = 1;
nodes = (
"252 485 OFFCURVE",
"390 600 OFFCURVE",
"448 610 CURVE",
"457 612 OFFCURVE",
"469 613 OFFCURVE",
"481 613 CURVE SMOOTH",
"535 613 OFFCURVE",
"594 581 OFFCURVE",
"539 396 CURVE SMOOTH",
"531 368 OFFCURVE",
"519 335 OFFCURVE",
"505 299 CURVE SMOOTH",
"454 173 OFFCURVE",
"453 138 OFFCURVE",
"287 138 CURVE SMOOTH",
"174 138 OFFCURVE",
"122 205 OFFCURVE",
"149 296 CURVE SMOOTH",
"155 314 OFFCURVE",
"163 333 OFFCURVE",
"174 352 CURVE SMOOTH"
);
}
);
width = 782;
}
);
note = uni2C6D;
unicode = 2C6D;
},
{
glyphname = Amacron;
lastChange = "2019-08-23 19:48:00 +0000";
layers = (
{
layerId = "4FCB07EB-01E7-4D87-AA20-FCB2BF85BBFF";
paths = (
{
closed = 1;
nodes = (
"437 891 LINE",
"388 821 LINE",
"800 838 LINE",
"797 915 LINE"
);
},
{
closed = 1;
nodes = (
"40 0 LINE",
"162 0 LINE",
"231 119 LINE",
"531 119 LINE",
"522 0 LINE",
"652 0 LINE",
"605 729 LINE",
"520 729 LINE"
);
},
{
closed = 1;
nodes = (
"539 235 LINE",
"292 235 LINE",
"543 668 LINE"
);
}
);
width = 840;
}
);
note = Amacron;
unicode = 0100;
},
{
glyphname = Aogonek;
lastChange = "2019-08-23 19:48:00 +0000";
layers = (
{
layerId = "4FCB07EB-01E7-4D87-AA20-FCB2BF85BBFF";
paths = (
{
closed = 1;
nodes = (
"669 729 LINE",
"584 729 LINE",
"103 0 LINE",
"160 0 LINE",
"91 -50 OFFCURVE",
"54 -94 OFFCURVE",
"43 -129 CURVE SMOOTH",
"26 -185 OFFCURVE",
"79 -217 OFFCURVE",
"185 -215 CURVE",
"187 -198 OFFCURVE",
"193 -165 OFFCURVE",
"197 -145 CURVE",
"177 -148 OFFCURVE",
"157 -150 OFFCURVE",
"143 -150 CURVE SMOOTH",
"106 -150 OFFCURVE",
"92 -139 OFFCURVE",
"98 -119 CURVE SMOOTH",
"105 -95 OFFCURVE",
"144 -55 OFFCURVE",
"214 0 CURVE",
"226 0 LINE",
"295 119 LINE",
"596 119 LINE",
"586 0 LINE",
"715 0 LINE"
);
},
{
closed = 1;
nodes = (
"357 235 LINE",
"607 668 LINE",
"603 235 LINE"
);
}
);
width = 755;
}
);
note = Aogonek;
unicode = 0104;
},
{
glyphname = B;
lastChange = "2019-08-23 19:48:00 +0000";
layers = (
{
layerId = "4FCB07EB-01E7-4D87-AA20-FCB2BF85BBFF";
paths = (
{
closed = 1;
nodes = (
"40 0 LINE",
"280 0 LINE SMOOTH",
"431 0 OFFCURVE",
"523 0 OFFCURVE",
"584 204 CURVE SMOOTH",
"614 303 OFFCURVE",
"581 372 OFFCURVE",
"469 393 CURVE",
"546 406 OFFCURVE",
"601 459 OFFCURVE",
"628 549 CURVE SMOOTH",
"662 664 OFFCURVE",
"604 729 OFFCURVE",
"466 729 CURVE SMOOTH",
"258 729 LINE"
);
},
{
closed = 1;
nodes = (
"463 663 LINE SMOOTH",
"551 663 OFFCURVE",
"578 612 OFFCURVE",
"556 538 CURVE SMOOTH",
"534 464 OFFCURVE",
"480 428 OFFCURVE",
"392 428 CURVE SMOOTH",
"259 428 LINE",
"329 663 LINE"
);
},
{
closed = 1;
nodes = (
"379 348 LINE SMOOTH",
"427 348 OFFCURVE",
"462 338 OFFCURVE",
"478 316 CURVE SMOOTH",
"496 293 OFFCURVE",
"503 268 OFFCURVE",
"497 248 CURVE SMOOTH",
"472 160 OFFCURVE",
"416 145 OFFCURVE",
"319 145 CURVE SMOOTH",
"174 145 LINE",
"234 348 LINE"
);
}
);
width = 678;
}
);
note = B;
unicode = 0042;
},
{
glyphname = Bdotbelow;
lastChange = "2019-08-23 19:48:00 +0000";
layers = (
{
layerId = "4FCB07EB-01E7-4D87-AA20-FCB2BF85BBFF";
paths = (
{
closed = 1;
nodes = (
"40 0 LINE",
"280 0 LINE SMOOTH",
"431 0 OFFCURVE",
"523 0 OFFCURVE",
"584 204 CURVE SMOOTH",
"614 303 OFFCURVE",
"582 372 OFFCURVE",
"470 393 CURVE",
"547 406 OFFCURVE",
"601 459 OFFCURVE",
"628 549 CURVE SMOOTH",
"662 664 OFFCURVE",
"604 729 OFFCURVE",
"466 729 CURVE SMOOTH",
"258 729 LINE"
);
},
{
closed = 1;
nodes = (
"463 663 LINE SMOOTH",
"551 663 OFFCURVE",
"578 612 OFFCURVE",
"556 538 CURVE SMOOTH",
"534 464 OFFCURVE",
"481 428 OFFCURVE",
"393 428 CURVE SMOOTH",
"259 428 LINE",
"329 663 LINE"
);
},
{
closed = 1;
nodes = (
"379 348 LINE SMOOTH",
"427 348 OFFCURVE",
"462 338 OFFCURVE",
"478 316 CURVE SMOOTH",
"496 293 OFFCURVE",
"503 268 OFFCURVE",
"497 248 CURVE SMOOTH",
"472 160 OFFCURVE",
"416 145 OFFCURVE",
"319 145 CURVE SMOOTH",
"174 145 LINE",
"234 348 LINE"
);
},
{
closed = 1;
nodes = (
"217 -59 LINE",
"188 -160 LINE",
"281 -160 LINE",
"310 -59 LINE"
);
}
);
width = 678;
}
);
note = uni1E04;
unicode = 1E04;
},
{
glyphname = Bhook;
lastChange = "2019-08-23 19:48:00 +0000";
layers = (
{
layerId = "4FCB07EB-01E7-4D87-AA20-FCB2BF85BBFF";
paths = (
{
closed = 1;
nodes = (
"567 406 OFFCURVE",
"623 459 OFFCURVE",
"650 549 CURVE SMOOTH",
"684 664 OFFCURVE",
"626 729 OFFCURVE",
"488 729 CURVE SMOOTH",
"278 729 LINE",
"279 728 LINE",
"169 718 OFFCURVE",
"85 611 OFFCURVE",
"59 524 CURVE SMOOTH",
"40 457 LINE",
"70 358 LINE",
"81 394 OFFCURVE",
"101 464 OFFCURVE",
"117 500 CURVE SMOOTH",
"141 552 OFFCURVE",
"182 596 OFFCURVE",
"241 600 CURVE",
"62 0 LINE",
"302 0 LINE SMOOTH",
"453 0 OFFCURVE",
"544 0 OFFCURVE",
"605 204 CURVE SMOOTH",
"635 303 OFFCURVE",
"602 372 OFFCURVE",
"490 393 CURVE"
);
},
{
closed = 1;
nodes = (
"350 663 LINE",
"483 663 LINE SMOOTH",
"571 663 OFFCURVE",
"599 612 OFFCURVE",
"577 538 CURVE SMOOTH",
"555 464 OFFCURVE",
"502 428 OFFCURVE",
"414 428 CURVE SMOOTH",
"280 428 LINE"
);
},
{
closed = 1;
nodes = (
"196 145 LINE",
"256 348 LINE",
"401 348 LINE SMOOTH",
"449 348 OFFCURVE",
"484 338 OFFCURVE",
"500 316 CURVE SMOOTH",
"518 293 OFFCURVE",
"525 268 OFFCURVE",
"519 248 CURVE SMOOTH",
"494 160 OFFCURVE",
"437 145 OFFCURVE",
"340 145 CURVE SMOOTH"
);
}
);
width = 700;
}
);
note = uni0181;
unicode = 0181;
},
{
glyphname = Bstroke;
lastChange = "2019-08-23 19:48:00 +0000";
layers = (
{
layerId = "4FCB07EB-01E7-4D87-AA20-FCB2BF85BBFF";
paths = (
{
closed = 1;
nodes = (
"615 406 OFFCURVE",
"669 459 OFFCURVE",
"696 549 CURVE SMOOTH",
"730 664 OFFCURVE",
"672 729 OFFCURVE",
"534 729 CURVE SMOOTH",
"326 729 LINE",
"194 284 LINE",
"67 284 LINE",
"40 193 LINE",
"166 193 LINE",
"108 0 LINE",
"348 0 LINE SMOOTH",
"499 0 OFFCURVE",
"591 0 OFFCURVE",
"652 204 CURVE SMOOTH",
"682 303 OFFCURVE",
"650 372 OFFCURVE",
"538 393 CURVE"
);
},
{
closed = 1;
nodes = (
"397 663 LINE",
"531 663 LINE SMOOTH",
"619 663 OFFCURVE",
"646 612 OFFCURVE",
"624 538 CURVE SMOOTH",
"602 464 OFFCURVE",
"549 428 OFFCURVE",
"461 428 CURVE SMOOTH",
"327 428 LINE"
);
},
{
closed = 1;
nodes = (
"242 145 LINE",
"258 193 LINE",
"398 193 LINE",
"425 284 LINE",
"285 284 LINE",
"302 348 LINE",
"447 348 LINE SMOOTH",
"495 348 OFFCURVE",
"530 338 OFFCURVE",
"546 316 CURVE SMOOTH",
"564 293 OFFCURVE",
"571 268 OFFCURVE",
"565 248 CURVE SMOOTH",
"540 160 OFFCURVE",
"484 145 OFFCURVE",
"387 145 CURVE SMOOTH"
);
}
);
width = 746;
}
);
note = uni0243;
unicode = 0243;
},
{
glyphname = C;
lastChange = "2019-08-23 22:50:07 +0000";
layers = (
{
anchors = (
{
name = bottom;
position = "{382, 0}";
},
{
name = top;
position = "{549, 819}";
}
);
layerId = "4FCB07EB-01E7-4D87-AA20-FCB2BF85BBFF";
paths = (
{
closed = 1;
nodes = (
"723 732 LINE",
"645 744 OFFCURVE",
"624 746 OFFCURVE",
"543 746 CURVE SMOOTH",
"340 746 OFFCURVE",
"175 602 OFFCURVE",
"105 368 CURVE SMOOTH",
"-5 0 OFFCURVE",
"23 -13 OFFCURVE",
"197 -13 CURVE SMOOTH",
"482 -13 LINE",
"534 159 LINE",
"484 144 OFFCURVE",
"446 139 OFFCURVE",
"368 139 CURVE SMOOTH",
"216 139 OFFCURVE",
"132 197 OFFCURVE",
"184 368 CURVE SMOOTH",
"242 561 OFFCURVE",
"375 672 OFFCURVE",
"527 672 CURVE SMOOTH",
"605 672 OFFCURVE",
"604 672 OFFCURVE",
"687 656 CURVE"
);
}
);
width = 763;
}
);
note = C;
unicode = 0043;
},
{
glyphname = Cacute;
lastChange = "2019-08-23 19:48:00 +0000";
layers = (
{
layerId = "4FCB07EB-01E7-4D87-AA20-FCB2BF85BBFF";
paths = (
{
closed = 1;
nodes = (
"576 942 LINE",
"461 788 LINE",
"531 788 LINE",
"623 942 LINE"
);
},
{
closed = 1;
nodes = (
"724 732 LINE",
"646 744 OFFCURVE",
"624 746 OFFCURVE",
"543 746 CURVE SMOOTH",
"340 746 OFFCURVE",
"175 602 OFFCURVE",
"105 368 CURVE SMOOTH",
"-5 0 OFFCURVE",
"24 -13 OFFCURVE",
"198 -13 CURVE SMOOTH",
"482 -13 LINE",
"534 159 LINE",
"484 144 OFFCURVE",
"446 139 OFFCURVE",
"368 139 CURVE SMOOTH",
"216 139 OFFCURVE",
"132 197 OFFCURVE",
"184 368 CURVE SMOOTH",
"242 561 OFFCURVE",
"375 672 OFFCURVE",
"527 672 CURVE SMOOTH",
"605 672 OFFCURVE",
"605 672 OFFCURVE",
"688 656 CURVE"
);
}
);
width = 764;
}
);
note = Cacute;
unicode = 0106;
},
{
glyphname = Cdotaccent;
lastChange = "2019-08-23 19:48:00 +0000";
layers = (
{
layerId = "4FCB07EB-01E7-4D87-AA20-FCB2BF85BBFF";
paths = (
{
closed = 1;
nodes = (
"499 911 LINE",
"469 810 LINE",
"561 810 LINE",
"591 911 LINE"
);
},
{
closed = 1;
nodes = (
"723 732 LINE",
"645 744 OFFCURVE",
"624 746 OFFCURVE",
"543 746 CURVE SMOOTH",
"340 746 OFFCURVE",
"175 602 OFFCURVE",
"105 368 CURVE SMOOTH",
"-5 0 OFFCURVE",
"23 -13 OFFCURVE",
"197 -13 CURVE SMOOTH",
"483 -13 LINE",
"533 159 LINE",
"483 144 OFFCURVE",
"446 139 OFFCURVE",
"368 139 CURVE SMOOTH",
"216 139 OFFCURVE",
"131 197 OFFCURVE",
"183 368 CURVE SMOOTH",
"241 561 OFFCURVE",
"374 672 OFFCURVE",
"526 672 CURVE SMOOTH",
"604 672 OFFCURVE",
"604 672 OFFCURVE",
"687 656 CURVE"
);
}
);
width = 763;
}
);
note = Cdotaccent;
unicode = 010A;
},
{
glyphname = Chook;
lastChange = "2019-08-23 19:48:00 +0000";
layers = (
{
layerId = "4FCB07EB-01E7-4D87-AA20-FCB2BF85BBFF";
paths = (
{
closed = 1;
nodes = (
"711 819 OFFCURVE",
"712 817 OFFCURVE",
"710 811 CURVE",
"704 792 LINE",
"703 790 LINE",
"688 737 LINE",
"637 745 OFFCURVE",
"611 746 OFFCURVE",
"544 746 CURVE SMOOTH",
"341 746 OFFCURVE",
"175 602 OFFCURVE",
"105 368 CURVE SMOOTH",
"-5 0 OFFCURVE",
"23 -13 OFFCURVE",
"197 -13 CURVE SMOOTH",
"483 -13 LINE",
"534 159 LINE",
"484 144 OFFCURVE",
"447 139 OFFCURVE",
"369 139 CURVE SMOOTH",
"217 139 OFFCURVE",
"132 197 OFFCURVE",
"184 368 CURVE SMOOTH",
"242 561 OFFCURVE",
"375 672 OFFCURVE",
"527 672 CURVE SMOOTH",
"597 672 OFFCURVE",
"604 672 OFFCURVE",
"664 660 CURVE",
"664 658 LINE",
"677 658 LINE",
"680 657 OFFCURVE",
"686 657 OFFCURVE",
"688 656 CURVE",
"689 658 LINE",
"702 658 LINE",
"741 790 LINE",
"744 798 OFFCURVE",
"745 804 OFFCURVE",
"747 811 CURVE",
"751 823 LINE SMOOTH",
"757 842 OFFCURVE",
"758 843 OFFCURVE",
"788 843 CURVE",
"797 876 LINE",
"741 877 OFFCURVE",
"730 874 OFFCURVE",
"716 831 CURVE"
);
}
);
width = 837;
}
);
note = uni0187;
unicode = 0187;
},
{
glyphname = D;
lastChange = "2019-08-23 22:52:03 +0000";
layers = (
{
anchors = (
{
name = bottom;
position = "{388, 0}";
},
{
name = center;
position = "{388, 350}";
},
{
name = top;
position = "{535, 800}";
}
);
layerId = "4FCB07EB-01E7-4D87-AA20-FCB2BF85BBFF";
paths = (
{
closed = 1;
nodes = (
"40 0 LINE",
"226 0 LINE SMOOTH",
"485 0 OFFCURVE",
"601 0 OFFCURVE",
"710 365 CURVE SMOOTH",
"785 615 OFFCURVE",
"702 729 OFFCURVE",
"443 729 CURVE SMOOTH",
"257 729 LINE"
);
},
{
closed = 1;
nodes = (
"440 659 LINE SMOOTH",
"624 659 OFFCURVE",
"699 573 OFFCURVE",
"646 393 CURVE SMOOTH",
"610 271 OFFCURVE",
"532 190 OFFCURVE",
"301 190 CURVE SMOOTH",
"192 190 LINE",
"331 659 LINE"
);
}
);
width = 776;
}
);
note = D;
unicode = 0044;
},
{
glyphname = DZ;
lastChange = "2019-08-23 19:48:00 +0000";
layers = (
{
layerId = "4FCB07EB-01E7-4D87-AA20-FCB2BF85BBFF";
paths = (
{
closed = 1;
nodes = (
"40 0 LINE",
"226 0 LINE SMOOTH",
"485 0 OFFCURVE",
"600 0 OFFCURVE",
"709 365 CURVE SMOOTH",
"784 615 OFFCURVE",
"701 729 OFFCURVE",
"442 729 CURVE SMOOTH",
"256 729 LINE"
);
},
{
closed = 1;
nodes = (
"1034 604 LINE",
"1016 681 LINE",
"1541 681 LINE",
"1519 606 LINE",
"904 146 LINE",
"1319 146 LINE",
"1320 6 LINE",
"747 0 LINE",
"789 139 LINE",
"1404 598 LINE"
);
},
{
closed = 1;
nodes = (
"440 659 LINE SMOOTH",
"624 659 OFFCURVE",
"698 573 OFFCURVE",
"645 393 CURVE SMOOTH",
"609 271 OFFCURVE",
"531 190 OFFCURVE",
"300 190 CURVE SMOOTH",
"192 190 LINE",
"331 659 LINE"
);
}
);
width = 1581;
}
);
note = uni01F1;
unicode = 01F1;
},
{
glyphname = Dafrican;
lastChange = "2019-08-23 19:48:00 +0000";
layers = (
{
layerId = "4FCB07EB-01E7-4D87-AA20-FCB2BF85BBFF";
paths = (
{
closed = 1;
nodes = (
"268 729 LINE",
"182 439 LINE",
"66 439 LINE",
"40 348 LINE",
"155 348 LINE",
"52 0 LINE",
"238 0 LINE SMOOTH",
"497 0 OFFCURVE",
"612 0 OFFCURVE",
"721 365 CURVE SMOOTH",
"796 615 OFFCURVE",
"713 729 OFFCURVE",
"454 729 CURVE SMOOTH"
);
},
{
closed = 1;
nodes = (
"204 190 LINE",
"250 348 LINE",
"398 348 LINE",
"425 439 LINE",
"277 439 LINE",
"343 659 LINE",
"452 659 LINE SMOOTH",
"636 659 OFFCURVE",
"711 573 OFFCURVE",
"658 393 CURVE SMOOTH",
"622 271 OFFCURVE",
"544 190 OFFCURVE",
"313 190 CURVE SMOOTH"
);
}
);
width = 787;
}
);
note = uni0189;
unicode = 0189;
},
{
glyphname = Dcircumflexbelow;
lastChange = "2019-08-23 19:48:00 +0000";
layers = (
{
layerId = "4FCB07EB-01E7-4D87-AA20-FCB2BF85BBFF";
paths = (
{
closed = 1;
nodes = (
"40 0 LINE",
"226 0 LINE SMOOTH",
"485 0 OFFCURVE",
"600 0 OFFCURVE",
"709 365 CURVE SMOOTH",
"784 615 OFFCURVE",
"701 729 OFFCURVE",
"442 729 CURVE SMOOTH",
"256 729 LINE"
);
},
{
closed = 1;
nodes = (
"440 659 LINE SMOOTH",
"624 659 OFFCURVE",
"697 573 OFFCURVE",
"644 393 CURVE SMOOTH",
"608 271 OFFCURVE",
"531 190 OFFCURVE",
"300 190 CURVE SMOOTH",
"192 190 LINE",
"331 659 LINE"
);
},
{
closed = 1;
nodes = (
"270 -113 LINE",
"211 -177 LINE",
"50 -308 LINE",
"100 -308 LINE",
"260 -209 LINE",
"363 -308 LINE",
"413 -308 LINE",
"331 -177 LINE",
"315 -113 LINE"
);
}
);
width = 775;
}
);
note = uni1E12;
unicode = 1E12;
},
{
glyphname = Dcroat;
lastChange = "2019-08-23 19:48:00 +0000";
layers = (
{
layerId = "4FCB07EB-01E7-4D87-AA20-FCB2BF85BBFF";
paths = (
{
closed = 1;
nodes = (
"257 729 LINE",
"167 423 LINE",
"89 423 LINE",
"62 332 LINE",
"140 332 LINE",
"40 0 LINE",
"226 0 LINE SMOOTH",
"485 0 OFFCURVE",
"601 0 OFFCURVE",
"710 365 CURVE SMOOTH",
"785 615 OFFCURVE",
"702 729 OFFCURVE",
"443 729 CURVE SMOOTH"
);
},
{
closed = 1;
nodes = (
"192 190 LINE",
"234 332 LINE",
"420 332 LINE",
"448 423 LINE",
"262 423 LINE",
"332 659 LINE",
"441 659 LINE SMOOTH",
"625 659 OFFCURVE",
"699 573 OFFCURVE",
"646 393 CURVE SMOOTH",
"610 271 OFFCURVE",
"532 190 OFFCURVE",
"301 190 CURVE SMOOTH"
);
}
);
width = 776;
}
);
note = Dcroat;
unicode = 0110;
},
{
glyphname = Ddotaccent;
lastChange = "2019-08-23 19:48:00 +0000";
layers = (
{
layerId = "4FCB07EB-01E7-4D87-AA20-FCB2BF85BBFF";
paths = (
{
closed = 1;
nodes = (
"518 911 LINE",
"488 810 LINE",
"580 810 LINE",
"610 911 LINE"
);
},
{
closed = 1;
nodes = (
"40 0 LINE",
"226 0 LINE SMOOTH",
"485 0 OFFCURVE",
"600 0 OFFCURVE",
"709 365 CURVE SMOOTH",
"784 615 OFFCURVE",
"701 729 OFFCURVE",
"442 729 CURVE SMOOTH",
"256 729 LINE"
);
},
{
closed = 1;
nodes = (
"440 659 LINE SMOOTH",
"624 659 OFFCURVE",
"699 573 OFFCURVE",
"646 393 CURVE SMOOTH",
"610 271 OFFCURVE",
"532 190 OFFCURVE",
"301 190 CURVE SMOOTH",
"192 190 LINE",
"331 659 LINE"
);
}
);
width = 775;
}
);
note = uni1E0A;
unicode = 1E0A;
},
{
glyphname = Ddotbelow;
lastChange = "2019-08-23 19:48:00 +0000";
layers = (
{
layerId = "4FCB07EB-01E7-4D87-AA20-FCB2BF85BBFF";
paths = (
{
closed = 1;
nodes = (
"40 0 LINE",
"226 0 LINE SMOOTH",
"485 0 OFFCURVE",
"601 0 OFFCURVE",
"710 365 CURVE SMOOTH",
"785 615 OFFCURVE",
"702 729 OFFCURVE",
"443 729 CURVE SMOOTH",
"257 729 LINE"
);
},
{
closed = 1;
nodes = (
"440 659 LINE SMOOTH",
"624 659 OFFCURVE",
"698 573 OFFCURVE",
"645 393 CURVE SMOOTH",
"609 271 OFFCURVE",
"532 190 OFFCURVE",
"301 190 CURVE SMOOTH",
"192 190 LINE",
"332 659 LINE"
);
},
{
closed = 1;
nodes = (
"256 -59 LINE",
"227 -160 LINE",
"320 -160 LINE",
"349 -59 LINE"
);
}
);
width = 776;
}
);
note = uni1E0C;
unicode = 1E0C;
},
{
glyphname = Dhook;
lastChange = "2019-08-23 19:48:00 +0000";
layers = (
{
layerId = "4FCB07EB-01E7-4D87-AA20-FCB2BF85BBFF";
paths = (
{
closed = 1;
nodes = (
"295 729 LINE",
"296 730 LINE",
"177 730 OFFCURVE",
"87 616 OFFCURVE",
"60 525 CURVE SMOOTH",
"40 458 LINE",
"70 359 LINE",
"81 395 OFFCURVE",
"101 465 OFFCURVE",
"118 501 CURVE SMOOTH",
"142 555 OFFCURVE",
"186 601 OFFCURVE",
"249 601 CURVE",
"249 604 OFFCURVE",
"252 607 OFFCURVE",
"253 610 CURVE",
"71 0 LINE",
"257 0 LINE SMOOTH",
"516 0 OFFCURVE",
"632 0 OFFCURVE",
"741 365 CURVE SMOOTH",
"816 615 OFFCURVE",
"733 729 OFFCURVE",
"474 729 CURVE SMOOTH"
);
},
{
closed = 1;
nodes = (
"223 190 LINE",
"362 659 LINE",
"471 659 LINE SMOOTH",
"655 659 OFFCURVE",
"729 573 OFFCURVE",
"676 393 CURVE SMOOTH",
"640 271 OFFCURVE",
"563 190 OFFCURVE",
"332 190 CURVE SMOOTH"
);
}
);
width = 807;
}
);
note = uni018A;
unicode = 018A;
},
{
glyphname = Dlinebelow;
lastChange = "2019-08-23 19:48:00 +0000";
layers = (
{
layerId = "4FCB07EB-01E7-4D87-AA20-FCB2BF85BBFF";
paths = (
{
closed = 1;
nodes = (
"40 0 LINE",
"226 0 LINE SMOOTH",
"485 0 OFFCURVE",
"602 0 OFFCURVE",
"711 365 CURVE SMOOTH",
"786 615 OFFCURVE",
"702 729 OFFCURVE",
"443 729 CURVE SMOOTH",
"257 729 LINE"
);
},
{
closed = 1;
nodes = (
"441 659 LINE SMOOTH",
"625 659 OFFCURVE",
"699 573 OFFCURVE",
"646 393 CURVE SMOOTH",
"610 271 OFFCURVE",
"533 190 OFFCURVE",
"302 190 CURVE SMOOTH",
"192 190 LINE",
"332 659 LINE"
);
},
{
closed = 1;
nodes = (
"165 -56 LINE",
"127 -108 LINE",
"456 -95 LINE",
"451 -38 LINE"
);
}
);
width = 777;
}
);
note = uni1E0E;
unicode = 1E0E;
},
{
glyphname = Dz;
lastChange = "2019-08-23 19:48:00 +0000";
layers = (
{
layerId = "4FCB07EB-01E7-4D87-AA20-FCB2BF85BBFF";
paths = (
{
closed = 1;
nodes = (
"40 0 LINE",
"226 0 LINE SMOOTH",
"485 0 OFFCURVE",
"600 0 OFFCURVE",
"709 365 CURVE SMOOTH",
"784 615 OFFCURVE",
"701 729 OFFCURVE",
"442 729 CURVE SMOOTH",
"256 729 LINE"
);
},
{
closed = 1;
nodes = (
"440 659 LINE SMOOTH",
"624 659 OFFCURVE",
"699 573 OFFCURVE",
"646 393 CURVE SMOOTH",
"610 271 OFFCURVE",
"532 190 OFFCURVE",
"301 190 CURVE SMOOTH",
"192 190 LINE",
"331 659 LINE"
);
},
{
closed = 1;
nodes = (
"973 482 LINE",
"1259 482 LINE",
"809 131 LINE",
"747 0 LINE",
"1207 0 LINE",
"1190 121 LINE",
"930 121 LINE",
"1359 482 LINE",
"1368 549 LINE",
"993 549 LINE"
);
}
);
width = 1408;
}
);
note = uni01F2;
unicode = 01F2;
},
{
glyphname = Dzcaron;
lastChange = "2019-08-23 19:48:00 +0000";
layers = (
{
layerId = "4FCB07EB-01E7-4D87-AA20-FCB2BF85BBFF";
paths = (
{
closed = 1;
nodes = (
"1151 597 LINE",
"1195 597 LINE",
"1250 661 LINE",
"1409 792 LINE",
"1360 792 LINE",
"1198 693 LINE",
"1096 792 LINE",
"1047 792 LINE",
"1130 661 LINE"
);
},
{
closed = 1;
nodes = (
"40 0 LINE",
"225 0 LINE SMOOTH",
"484 0 OFFCURVE",
"601 0 OFFCURVE",
"710 365 CURVE SMOOTH",
"785 615 OFFCURVE",
"702 729 OFFCURVE",
"443 729 CURVE SMOOTH",
"257 729 LINE"
);
},
{
closed = 1;
nodes = (
"440 659 LINE SMOOTH",
"624 659 OFFCURVE",
"698 573 OFFCURVE",
"645 393 CURVE SMOOTH",
"609 271 OFFCURVE",
"532 190 OFFCURVE",
"301 190 CURVE SMOOTH",
"191 190 LINE",
"331 659 LINE"
);
},
{
closed = 1;
nodes = (
"972 482 LINE",
"1259 482 LINE",
"808 131 LINE",
"748 0 LINE",
"1206 0 LINE",
"1191 121 LINE",
"929 121 LINE",
"1359 482 LINE",
"1367 549 LINE",
"993 549 LINE"
);
}
);
width = 1449;
}
);
note = uni01C5;
unicode = 01C5;
},
{
glyphname = E;
lastChange = "2019-08-23 19:48:00 +0000";
layers = (
{
layerId = "4FCB07EB-01E7-4D87-AA20-FCB2BF85BBFF";
paths = (
{
closed = 1;
nodes = (
"40 0 LINE",
"482 0 LINE",
"496 151 LINE",
"192 151 LINE",
"245 331 LINE",
"474 347 LINE",
"499 430 LINE",
"272 419 LINE",
"337 637 LINE",
"643 656 LINE",
"685 729 LINE",
"275 714 LINE"
);
}
);
width = 725;
}
);
note = E;
unicode = 0045;
},
{
glyphname = Ebreve;
lastChange = "2019-08-23 19:48:00 +0000";
layers = (
{
layerId = "4FCB07EB-01E7-4D87-AA20-FCB2BF85BBFF";
paths = (
{
closed = 1;
nodes = (
"600 795 OFFCURVE",
"709 869 OFFCURVE",
"745 992 CURVE",
"686 992 LINE",
"660 905 OFFCURVE",
"616 890 OFFCURVE",
"530 890 CURVE SMOOTH",
"457 890 OFFCURVE",
"420 904 OFFCURVE",
"445 992 CURVE",
"386 992 LINE",
"350 869 OFFCURVE",
"405 795 OFFCURVE",
"503 795 CURVE SMOOTH"
);
},
{
closed = 1;
nodes = (
"498 151 LINE",
"193 151 LINE",
"245 331 LINE",
"474 347 LINE",
"500 430 LINE",
"272 419 LINE",
"337 637 LINE",
"645 656 LINE",
"685 729 LINE",
"275 714 LINE",
"40 0 LINE",
"483 0 LINE"
);
}
);
width = 785;
}
);
note = Ebreve;
unicode = 0114;
},
{
glyphname = Ecaron;
lastChange = "2019-08-23 19:48:00 +0000";
layers = (
{
layerId = "4FCB07EB-01E7-4D87-AA20-FCB2BF85BBFF";
paths = (
{
closed = 1;
nodes = (
"492 816 LINE",
"536 816 LINE",
"591 880 LINE",
"751 1011 LINE",
"702 1011 LINE",
"540 912 LINE",
"438 1011 LINE",
"388 1011 LINE",
"471 880 LINE"
);
},
{
closed = 1;
nodes = (
"40 0 LINE",
"482 0 LINE",
"497 151 LINE",
"192 151 LINE",
"245 331 LINE",
"474 347 LINE",
"499 430 LINE",
"272 419 LINE",
"337 637 LINE",
"644 656 LINE",
"685 729 LINE",
"274 714 LINE"
);
}
);
width = 791;
}
);
note = Ecaron;
unicode = 011A;
},
{
glyphname = Ecedilla;
lastChange = "2019-08-23 19:48:00 +0000";
layers = (
{
layerId = "4FCB07EB-01E7-4D87-AA20-FCB2BF85BBFF";
paths = (
{
closed = 1;
nodes = (
"228 -80 LINE",
"278 0 LINE",
"482 0 LINE",
"497 151 LINE",
"192 151 LINE",
"245 331 LINE",
"475 347 LINE",
"499 430 LINE",
"272 419 LINE",
"336 637 LINE",
"644 656 LINE",
"686 729 LINE",
"275 714 LINE",
"40 0 LINE",
"249 0 LINE",
"183 -110 LINE",
"205 -107 OFFCURVE",
"224 -105 OFFCURVE",
"240 -105 CURVE SMOOTH",
"263 -105 OFFCURVE",
"296 -107 OFFCURVE",
"283 -151 CURVE SMOOTH",
"278 -167 OFFCURVE",
"246 -186 OFFCURVE",
"213 -186 CURVE SMOOTH",
"193 -186 OFFCURVE",
"186 -186 OFFCURVE",
"166 -181 CURVE",
"141 -234 LINE",
"198 -234 LINE SMOOTH",
"250 -234 OFFCURVE",
"294 -205 OFFCURVE",
"315 -156 CURVE SMOOTH",
"342 -96 OFFCURVE",
"291 -80 OFFCURVE",
"256 -80 CURVE SMOOTH"
);
}
);
width = 726;
}
);
note = uni0228;
unicode = 0228;
},
{
glyphname = Ecircumflexacute;
lastChange = "2019-08-23 19:48:00 +0000";
layers = (
{
layerId = "4FCB07EB-01E7-4D87-AA20-FCB2BF85BBFF";
paths = (
{
closed = 1;
nodes = (
"794 1026 LINE",
"679 872 LINE",
"748 872 LINE",
"841 1026 LINE"
);
},
{
closed = 1;
nodes = (
"546 995 LINE",
"486 931 LINE",
"325 800 LINE",
"375 800 LINE",
"535 899 LINE",
"639 800 LINE",
"688 800 LINE",
"606 931 LINE",
"589 995 LINE"
);
},
{
closed = 1;
nodes = (
"40 0 LINE",
"482 0 LINE",
"497 151 LINE",
"192 151 LINE",
"245 331 LINE",
"475 347 LINE",
"499 430 LINE",
"272 419 LINE",
"336 637 LINE",
"644 656 LINE",
"685 729 LINE",
"274 714 LINE"
);
}
);
width = 881;
}
);
note = uni1EBE;
unicode = 1EBE;
},
{
glyphname = Ecircumflexdotbelow;
lastChange = "2019-08-23 19:48:00 +0000";
layers = (
{
layerId = "4FCB07EB-01E7-4D87-AA20-FCB2BF85BBFF";
paths = (
{
closed = 1;
nodes = (
"531 969 LINE",
"471 905 LINE",
"310 774 LINE",
"360 774 LINE",
"520 873 LINE",
"624 774 LINE",
"673 774 LINE",
"591 905 LINE",
"574 969 LINE"
);
},
{
closed = 1;
nodes = (
"40 0 LINE",
"483 0 LINE",
"498 151 LINE",
"193 151 LINE",
"246 331 LINE",
"475 347 LINE",
"500 430 LINE",
"272 419 LINE",
"337 637 LINE",
"645 656 LINE",
"685 729 LINE",
"275 714 LINE"
);
},
{
closed = 1;
nodes = (
"205 -59 LINE",
"175 -160 LINE",
"268 -160 LINE",
"298 -59 LINE"
);
}
);
width = 725;
}
);
note = uni1EC6;
unicode = 1EC6;
},
{
glyphname = Ecircumflexgrave;
lastChange = "2019-08-23 19:48:00 +0000";
layers = (
{
layerId = "4FCB07EB-01E7-4D87-AA20-FCB2BF85BBFF";
paths = (
{
closed = 1;
nodes = (
"748 912 LINE",
"865 897 LINE",
"747 1024 LINE",
"675 1024 LINE"
);
},
{
closed = 1;
nodes = (
"546 995 LINE",
"486 931 LINE",
"325 800 LINE",
"375 800 LINE",
"536 899 LINE",
"639 800 LINE",
"688 800 LINE",
"606 931 LINE",
"589 995 LINE"
);
},
{
closed = 1;
nodes = (
"40 0 LINE",
"483 0 LINE",
"497 151 LINE",
"193 151 LINE",
"246 331 LINE",
"475 347 LINE",
"500 430 LINE",
"272 419 LINE",
"337 637 LINE",
"644 656 LINE",
"685 729 LINE",
"274 714 LINE"
);
}
);
width = 905;
}
);
note = uni1EC0;
unicode = 1EC0;
},
{
glyphname = Ecircumflexhookabove;
lastChange = "2019-08-23 19:48:00 +0000";
layers = (
{
layerId = "4FCB07EB-01E7-4D87-AA20-FCB2BF85BBFF";
paths = (
{
closed = 1;
nodes = (
"657 1038 LINE",
"675 1046 OFFCURVE",
"692 1050 OFFCURVE",
"707 1050 CURVE SMOOTH",
"723 1050 OFFCURVE",
"733 1046 OFFCURVE",
"741 1040 CURVE SMOOTH",
"749 1034 OFFCURVE",
"750 1024 OFFCURVE",
"748 1014 CURVE SMOOTH",
"746 1004 OFFCURVE",
"735 993 OFFCURVE",
"719 983 CURVE SMOOTH",
"707 976 LINE SMOOTH",
"700 972 OFFCURVE",
"698 969 OFFCURVE",
"696 968 CURVE",
"695 965 OFFCURVE",
"693 961 OFFCURVE",
"692 956 CURVE",
"666 956 LINE",
"666 959 LINE SMOOTH",
"668 965 OFFCURVE",
"671 971 OFFCURVE",
"674 975 CURVE",
"678 980 OFFCURVE",
"684 984 OFFCURVE",
"694 990 CURVE",
"706 999 LINE",
"714 1004 OFFCURVE",
"720 1010 OFFCURVE",
"722 1016 CURVE SMOOTH",
"723 1022 OFFCURVE",
"717 1030 OFFCURVE",
"696 1030 CURVE SMOOTH",
"682 1030 OFFCURVE",
"668 1025 OFFCURVE",
"651 1017 CURVE"
);
},
{
closed = 1;
nodes = (
"545 995 LINE",
"486 931 LINE",
"325 800 LINE",
"375 800 LINE",
"536 899 LINE",
"639 800 LINE",
"688 800 LINE",
"606 931 LINE",
"590 995 LINE"
);
},
{
closed = 1;
nodes = (
"40 0 LINE",
"483 0 LINE",
"498 151 LINE",
"193 151 LINE",
"246 331 LINE",
"476 347 LINE",
"500 430 LINE",
"273 419 LINE",
"337 637 LINE",
"645 656 LINE",
"686 729 LINE",
"275 714 LINE"
);
}
);
width = 789;
}
);
note = uni1EC2;
unicode = 1EC2;
},
{
glyphname = Ecircumflextilde;
lastChange = "2019-08-23 19:48:00 +0000";
layers = (
{
layerId = "4FCB07EB-01E7-4D87-AA20-FCB2BF85BBFF";
paths = (
{
closed = 1;
nodes = (
"503 1043 LINE",
"515 1086 OFFCURVE",
"534 1149 OFFCURVE",
"570 1148 CURVE SMOOTH",
"604 1147 OFFCURVE",
"591 1044 OFFCURVE",
"657 1043 CURVE SMOOTH",
"706 1042 OFFCURVE",
"735 1047 OFFCURVE",
"779 1193 CURVE",
"737 1193 LINE",
"721 1144 OFFCURVE",
"716 1093 OFFCURVE",
"670 1093 CURVE SMOOTH",
"630 1093 OFFCURVE",
"643 1193 OFFCURVE",
"583 1193 CURVE SMOOTH",
"518 1193 OFFCURVE",
"495 1160 OFFCURVE",
"453 1043 CURVE"
);
},
{
closed = 1;
nodes = (
"552 1008 LINE",
"493 944 LINE",
"332 813 LINE",
"381 813 LINE",
"542 912 LINE",
"645 813 LINE",
"695 813 LINE",
"613 944 LINE",
"596 1008 LINE"
);
},
{
closed = 1;
nodes = (
"40 0 LINE",
"483 0 LINE",
"497 151 LINE",
"192 151 LINE",
"245 331 LINE",
"475 347 LINE",
"500 430 LINE",
"272 419 LINE",
"337 637 LINE",
"644 656 LINE",
"685 729 LINE",
"274 714 LINE"
);
}
);
width = 819;
}
);
note = uni1EC4;
unicode = 1EC4;
},
{
glyphname = Edotaccent;
lastChange = "2019-08-23 19:48:00 +0000";
layers = (
{
layerId = "4FCB07EB-01E7-4D87-AA20-FCB2BF85BBFF";
paths = (
{
closed = 1;
nodes = (
"503 948 LINE",
"473 847 LINE",
"565 847 LINE",
"596 948 LINE"
);
},
{
closed = 1;
nodes = (
"40 0 LINE",
"483 0 LINE",
"498 151 LINE",
"193 151 LINE",
"245 331 LINE",
"475 347 LINE",
"500 430 LINE",
"273 419 LINE",
"337 637 LINE",
"645 656 LINE",
"686 729 LINE",
"275 714 LINE"
);
}
);
width = 726;
}
);
note = Edotaccent;
unicode = 0116;
},
{
glyphname = Edotbelow;
lastChange = "2019-08-23 19:48:00 +0000";
layers = (
{
layerId = "4FCB07EB-01E7-4D87-AA20-FCB2BF85BBFF";
paths = (
{
closed = 1;
nodes = (
"40 0 LINE",
"482 0 LINE",
"497 151 LINE",
"192 151 LINE",
"245 331 LINE",
"474 347 LINE",
"500 430 LINE",
"272 419 LINE",
"337 637 LINE",
"644 656 LINE",
"685 729 LINE",
"274 714 LINE"
);
},
{
closed = 1;
nodes = (
"205 -59 LINE",
"175 -160 LINE",
"267 -160 LINE",
"298 -59 LINE"
);
}
);
width = 725;
}
);
note = uni1EB8;
unicode = 1EB8;
},
{
glyphname = Ehookabove;
lastChange = "2019-08-23 19:48:00 +0000";
layers = (
{
layerId = "4FCB07EB-01E7-4D87-AA20-FCB2BF85BBFF";
paths = (
{
closed = 1;
nodes = (
"475 844 LINE",
"494 852 OFFCURVE",
"511 856 OFFCURVE",
"526 856 CURVE SMOOTH",
"542 856 OFFCURVE",
"552 852 OFFCURVE",
"559 846 CURVE SMOOTH",
"567 840 OFFCURVE",
"569 830 OFFCURVE",
"566 820 CURVE SMOOTH",
"564 810 OFFCURVE",
"554 799 OFFCURVE",
"538 789 CURVE",
"526 782 LINE SMOOTH",
"519 778 OFFCURVE",
"517 775 OFFCURVE",
"516 774 CURVE",
"514 771 OFFCURVE",
"511 767 OFFCURVE",
"510 762 CURVE",
"484 762 LINE",
"485 765 LINE SMOOTH",
"486 771 OFFCURVE",
"489 777 OFFCURVE",
"492 781 CURVE",
"496 786 OFFCURVE",
"502 790 OFFCURVE",
"512 796 CURVE",
"524 805 LINE",
"532 810 OFFCURVE",
"537 816 OFFCURVE",
"539 822 CURVE SMOOTH",
"540 828 OFFCURVE",
"535 836 OFFCURVE",
"514 836 CURVE SMOOTH",
"500 836 OFFCURVE",
"486 831 OFFCURVE",
"469 823 CURVE"
);
},
{
closed = 1;
nodes = (
"40 0 LINE",
"482 0 LINE",
"497 151 LINE",
"192 151 LINE",
"245 331 LINE",
"474 347 LINE",
"499 430 LINE",
"272 419 LINE",
"337 637 LINE",
"644 656 LINE",
"685 729 LINE",
"275 714 LINE"
);
}
);
width = 725;
}
);
note = uni1EBA;
unicode = 1EBA;
},
{
glyphname = Emacron;
lastChange = "2019-08-23 19:48:00 +0000";
layers = (
{
layerId = "4FCB07EB-01E7-4D87-AA20-FCB2BF85BBFF";
paths = (
{
closed = 1;
nodes = (
"364 898 LINE",
"315 828 LINE",
"728 845 LINE",
"725 922 LINE"
);
},
{
closed = 1;
nodes = (
"40 0 LINE",
"483 0 LINE",
"497 151 LINE",
"193 151 LINE",
"246 331 LINE",
"475 347 LINE",
"500 430 LINE",
"272 419 LINE",
"337 637 LINE",
"644 656 LINE",
"686 729 LINE",
"275 714 LINE"
);
}
);
width = 768;
}
);
note = Emacron;
unicode = 0112;
},
{
glyphname = Eogonek;
lastChange = "2019-08-23 19:48:00 +0000";
layers = (
{
layerId = "4FCB07EB-01E7-4D87-AA20-FCB2BF85BBFF";
paths = (
{
closed = 1;
nodes = (
"416 -148 OFFCURVE",
"398 -150 OFFCURVE",
"384 -150 CURVE SMOOTH",
"347 -150 OFFCURVE",
"331 -139 OFFCURVE",
"337 -119 CURVE SMOOTH",
"344 -95 OFFCURVE",
"384 -55 OFFCURVE",
"454 0 CURVE",
"483 0 LINE",
"498 151 LINE",
"193 151 LINE",
"246 331 LINE",
"475 347 LINE",
"500 430 LINE",
"272 419 LINE",
"337 637 LINE",
"645 656 LINE",
"685 729 LINE",
"275 714 LINE",
"40 0 LINE",
"400 0 LINE",
"331 -50 OFFCURVE",
"294 -94 OFFCURVE",
"283 -129 CURVE SMOOTH",
"266 -185 OFFCURVE",
"318 -217 OFFCURVE",
"424 -215 CURVE",
"426 -198 OFFCURVE",
"432 -165 OFFCURVE",
"436 -145 CURVE"
);
}
);
width = 725;
}
);
note = Eogonek;
unicode = 0118;
},
{
glyphname = Eopen;
lastChange = "2019-08-23 19:48:00 +0000";
layers = (
{
layerId = "4FCB07EB-01E7-4D87-AA20-FCB2BF85BBFF";
paths = (
{
closed = 1;
nodes = (
"161 405 OFFCURVE",
"139 450 OFFCURVE",
"162 527 CURVE SMOOTH",
"195 639 OFFCURVE",
"297 708 OFFCURVE",
"430 708 CURVE SMOOTH",
"481 708 OFFCURVE",
"584 674 OFFCURVE",
"547 550 CURVE",
"485 537 LINE",
"510 620 OFFCURVE",
"467 646 OFFCURVE",
"421 646 CURVE SMOOTH",
"332 646 OFFCURVE",
"249 610 OFFCURVE",
"226 534 CURVE SMOOTH",
"200 445 OFFCURVE",
"251 418 OFFCURVE",
"337 418 CURVE SMOOTH",
"368 418 LINE",
"362 343 LINE",
"332 343 LINE SMOOTH",
"236 344 OFFCURVE",
"172 297 OFFCURVE",
"153 234 CURVE SMOOTH",
"133 170 OFFCURVE",
"151 113 OFFCURVE",
"239 112 CURVE SMOOTH",
"302 110 OFFCURVE",
"369 112 OFFCURVE",
"379 258 CURVE",
"486 268 LINE",
"489 24 OFFCURVE",
"265 -17 OFFCURVE",
"210 -17 CURVE SMOOTH",
"91 -17 OFFCURVE",
"7 57 OFFCURVE",
"52 208 CURVE SMOOTH",
"79 297 OFFCURVE",
"127 357 OFFCURVE",
"234 373 CURVE"
);
}
);
width = 595;
}
);
note = uni0190;
unicode = 0190;
},
{
glyphname = Ereversed;
lastChange = "2019-08-23 19:48:00 +0000";
layers = (
{
layerId = "4FCB07EB-01E7-4D87-AA20-FCB2BF85BBFF";
paths = (
{
closed = 1;
nodes = (
"483 0 LINE",
"673 714 LINE",
"270 729 LINE",
"268 656 LINE",
"565 637 LINE",
"500 419 LINE",
"278 430 LINE",
"254 347 LINE",
"473 331 LINE",
"420 151 LINE",
"115 151 LINE",
"40 0 LINE"
);
}
);
width = 713;
}
);
note = uni018E;
unicode = 018E;
},
{
glyphname = Esh;
lastChange = "2019-08-23 19:48:00 +0000";
layers = (
{
layerId = "4FCB07EB-01E7-4D87-AA20-FCB2BF85BBFF";
paths = (
{
closed = 1;
nodes = (
"630 629 LINE",
"651 700 LINE",
"250 700 LINE",
"228 629 LINE",
"229 629 LINE",
"229 627 LINE",
"391 349 LINE",
"72 103 LINE",
"39 -7 LINE",
"40 -6 LINE",
"442 -6 LINE",
"474 103 LINE",
"169 103 LINE",
"413 311 LINE",
"413 309 LINE",
"435 381 LINE",
"433 382 LINE",
"434 383 LINE",
"290 629 LINE"
);
}
);
width = 691;
}
);
note = uni01A9;
unicode = 01A9;
},
{
glyphname = Etilde;
lastChange = "2019-08-23 19:48:00 +0000";
layers = (
{
layerId = "4FCB07EB-01E7-4D87-AA20-FCB2BF85BBFF";
paths = (
{
closed = 1;
nodes = (
"410 778 LINE",
"422 821 OFFCURVE",
"441 884 OFFCURVE",
"477 883 CURVE SMOOTH",
"511 882 OFFCURVE",
"497 779 OFFCURVE",
"563 778 CURVE SMOOTH",
"611 777 OFFCURVE",
"642 782 OFFCURVE",
"686 928 CURVE",
"643 928 LINE",
"627 879 OFFCURVE",
"623 828 OFFCURVE",
"577 828 CURVE SMOOTH",
"537 828 OFFCURVE",
"550 928 OFFCURVE",
"490 928 CURVE SMOOTH",
"425 928 OFFCURVE",
"402 895 OFFCURVE",
"360 778 CURVE"
);
},
{
closed = 1;
nodes = (
"40 0 LINE",
"483 0 LINE",
"498 151 LINE",
"193 151 LINE",
"246 331 LINE",
"476 347 LINE",
"500 430 LINE",
"273 419 LINE",
"337 637 LINE",
"645 656 LINE",
"686 729 LINE",
"275 714 LINE"
);
}
);
width = 726;
}
);
note = uni1EBC;
unicode = 1EBC;
},
{
glyphname = Ezh;
lastChange = "2019-08-23 19:48:00 +0000";
layers = (
{
layerId = "4FCB07EB-01E7-4D87-AA20-FCB2BF85BBFF";
paths = (
{
closed = 1;
nodes = (
"533 406 OFFCURVE",
"563 427 OFFCURVE",
"675 527 CURVE",
"689 598 OFFCURVE",
"689 598 OFFCURVE",
"699 667 CURVE",
"627 671 OFFCURVE",
"355 667 OFFCURVE",
"265 667 CURVE",
"236 573 LINE",
"371 572 OFFCURVE",
"495 572 OFFCURVE",
"598 573 CURVE",
"481 468 OFFCURVE",
"420 430 OFFCURVE",
"286 325 CURVE",
"258 232 LINE",
"390 245 OFFCURVE",
"482 205 OFFCURVE",
"465 126 CURVE",
"424 -23 OFFCURVE",
"276 -111 OFFCURVE",
"188 27 CURVE",
"40 -77 LINE",
"119 -202 OFFCURVE",
"235 -200 OFFCURVE",
"265 -200 CURVE SMOOTH",
"461 -200 OFFCURVE",
"539 -57 OFFCURVE",
"575 107 CURVE SMOOTH",
"596 203 OFFCURVE",
"529 305 OFFCURVE",
"422 314 CURVE"
);
}
);
width = 739;
}
);
note = uni01B7;
unicode = 01B7;
},
{
glyphname = F;
lastChange = "2019-08-23 19:48:00 +0000";
layers = (
{
layerId = "4FCB07EB-01E7-4D87-AA20-FCB2BF85BBFF";
paths = (
{
closed = 1;
nodes = (
"40 0 LINE",
"160 0 LINE",
"247 348 LINE",
"495 366 LINE",
"524 468 LINE",
"273 450 LINE",
"354 646 LINE",
"625 663 LINE",
"645 729 LINE",
"289 717 LINE"
);
}
);
width = 685;
}
);
note = F;
unicode = 0046;
},
{
glyphname = Fdotaccent;
lastChange = "2019-08-23 19:48:00 +0000";
layers = (
{
layerId = "4FCB07EB-01E7-4D87-AA20-FCB2BF85BBFF";
paths = (
{
closed = 1;
nodes = (
"447 882 LINE",
"416 781 LINE",
"508 781 LINE",
"540 882 LINE"
);
},
{
closed = 1;
nodes = (
"40 0 LINE",
"160 0 LINE",
"248 348 LINE",
"495 366 LINE",
"525 468 LINE",
"274 450 LINE",
"354 646 LINE",
"625 663 LINE",
"644 729 LINE",
"290 717 LINE"
);
}
);
width = 684;
}
);
note = uni1E1E;
unicode = 1E1E;
},
{
glyphname = Fhook;
lastChange = "2019-08-23 19:48:00 +0000";
layers = (
{
layerId = "4FCB07EB-01E7-4D87-AA20-FCB2BF85BBFF";
paths = (
{
closed = 1;
nodes = (
"786 663 LINE",
"805 729 LINE",
"451 717 LINE",
"207 17 LINE",
"181 -27 OFFCURVE",
"142 -61 OFFCURVE",
"87 -61 CURVE",
"66 -113 OFFCURVE",
"57 -137 OFFCURVE",
"40 -190 CURVE",
"159 -190 OFFCURVE",
"307 -109 OFFCURVE",
"330 -29 CURVE",
"333 -19 OFFCURVE",
"330 -2 OFFCURVE",
"325 17 CURVE",
"409 348 LINE",
"656 366 LINE",
"686 468 LINE",
"435 450 LINE",
"515 646 LINE"
);
}
);
width = 845;
}
);
note = uni0191;
unicode = 0191;
},
{
glyphname = G;
lastChange = "2019-08-23 22:52:49 +0000";
layers = (
{
anchors = (
{
name = bottom;
position = "{364, 0}";
},
{
name = top;
position = "{537, 789}";
}
);
layerId = "4FCB07EB-01E7-4D87-AA20-FCB2BF85BBFF";
paths = (
{
closed = 1;
nodes = (
"491 182 LINE",
"462 157 OFFCURVE",
"404 145 OFFCURVE",
"340 145 CURVE SMOOTH",
"177 145 OFFCURVE",
"116 194 OFFCURVE",
"162 374 CURVE",
"246 654 OFFCURVE",
"332 665 OFFCURVE",
"495 665 CURVE SMOOTH",
"540 665 OFFCURVE",
"609 661 OFFCURVE",
"674 644 CURVE",
"687 722 LINE",
"667 726 OFFCURVE",
"596 736 OFFCURVE",
"509 736 CURVE SMOOTH",
"300 736 OFFCURVE",
"160 685 OFFCURVE",
"65 364 CURVE SMOOTH",
"-6 126 OFFCURVE",
"77 -14 OFFCURVE",
"286 -14 CURVE SMOOTH",
"381 -14 OFFCURVE",
"447 -14 OFFCURVE",
"537 40 CURVE",
"589 246 LINE",
"651 245 LINE",
"664 341 LINE",
"415 373 LINE",
"396 279 LINE",
"514 261 LINE"
);
}
);
width = 727;
}
);
note = G;
unicode = 0047;
},
{
glyphname = Gacute;
lastChange = "2019-08-23 19:48:00 +0000";
layers = (
{
layerId = "4FCB07EB-01E7-4D87-AA20-FCB2BF85BBFF";
paths = (
{
closed = 1;
nodes = (
"580 929 LINE",
"466 775 LINE",
"535 775 LINE",
"627 929 LINE"
);
},
{
closed = 1;
nodes = (
"492 182 LINE",
"463 157 OFFCURVE",
"404 145 OFFCURVE",
"340 145 CURVE SMOOTH",
"177 145 OFFCURVE",
"116 194 OFFCURVE",
"162 374 CURVE",
"246 654 OFFCURVE",
"333 665 OFFCURVE",
"496 665 CURVE SMOOTH",
"541 665 OFFCURVE",
"610 661 OFFCURVE",
"675 644 CURVE",
"687 722 LINE",
"667 726 OFFCURVE",
"597 736 OFFCURVE",
"510 736 CURVE SMOOTH",
"301 736 OFFCURVE",
"160 685 OFFCURVE",
"65 364 CURVE SMOOTH",
"-6 126 OFFCURVE",
"77 -14 OFFCURVE",
"286 -14 CURVE SMOOTH",
"381 -14 OFFCURVE",
"447 -14 OFFCURVE",
"537 40 CURVE",
"589 246 LINE",
"651 245 LINE",
"665 341 LINE",
"415 373 LINE",
"397 279 LINE",
"515 261 LINE"
);
}
);
width = 727;
}
);
note = uni01F4;
unicode = 01F4;
},
{
glyphname = Gbreve;
lastChange = "2019-08-23 19:48:00 +0000";
layers = (
{
layerId = "4FCB07EB-01E7-4D87-AA20-FCB2BF85BBFF";
paths = (
{
closed = 1;
nodes = (
"601 745 OFFCURVE",
"710 819 OFFCURVE",
"746 942 CURVE",
"687 942 LINE",
"661 855 OFFCURVE",
"618 840 OFFCURVE",
"532 840 CURVE SMOOTH",
"459 840 OFFCURVE",
"421 854 OFFCURVE",
"446 942 CURVE",
"386 942 LINE",
"350 819 OFFCURVE",
"406 745 OFFCURVE",
"504 745 CURVE SMOOTH"
);
},
{
closed = 1;
nodes = (
"651 245 LINE",
"665 341 LINE",
"415 373 LINE",
"396 279 LINE",
"515 261 LINE",
"492 182 LINE",
"463 157 OFFCURVE",
"404 145 OFFCURVE",
"340 145 CURVE SMOOTH",
"177 145 OFFCURVE",
"116 194 OFFCURVE",
"162 374 CURVE",
"246 654 OFFCURVE",
"333 665 OFFCURVE",
"496 665 CURVE SMOOTH",
"541 665 OFFCURVE",
"610 661 OFFCURVE",
"675 644 CURVE",
"687 722 LINE",
"667 726 OFFCURVE",
"596 736 OFFCURVE",
"509 736 CURVE SMOOTH",
"300 736 OFFCURVE",
"160 685 OFFCURVE",
"65 364 CURVE SMOOTH",
"-6 126 OFFCURVE",
"77 -14 OFFCURVE",
"286 -14 CURVE SMOOTH",
"381 -14 OFFCURVE",
"447 -14 OFFCURVE",
"537 40 CURVE",
"589 246 LINE"
);
}
);
width = 786;
}
);
note = Gbreve;
unicode = 011E;
},
{
glyphname = Gcommaaccent;
lastChange = "2019-08-23 19:48:00 +0000";
layers = (
{
layerId = "4FCB07EB-01E7-4D87-AA20-FCB2BF85BBFF";
paths = (
{
closed = 1;
nodes = (
"538 761 LINE",
"667 994 LINE",
"566 994 LINE",
"539 907 LINE",
"542 907 LINE",
"451 761 LINE"
);
},
{
closed = 1;
nodes = (
"652 245 LINE",
"664 341 LINE",
"416 373 LINE",
"396 279 LINE",
"515 261 LINE",
"491 182 LINE",
"462 157 OFFCURVE",
"404 145 OFFCURVE",
"340 145 CURVE SMOOTH",
"177 145 OFFCURVE",
"117 194 OFFCURVE",
"163 374 CURVE",
"247 654 OFFCURVE",
"333 665 OFFCURVE",
"496 665 CURVE SMOOTH",
"541 665 OFFCURVE",
"609 661 OFFCURVE",
"674 644 CURVE",
"688 722 LINE",
"668 726 OFFCURVE",
"596 736 OFFCURVE",
"509 736 CURVE SMOOTH",
"300 736 OFFCURVE",
"160 685 OFFCURVE",
"65 364 CURVE SMOOTH",
"-6 126 OFFCURVE",
"77 -14 OFFCURVE",
"286 -14 CURVE SMOOTH",
"381 -14 OFFCURVE",
"448 -14 OFFCURVE",
"538 40 CURVE",
"590 246 LINE"
);
}
);
width = 728;
}
);
note = uni0122;
unicode = 0122;
},
{
glyphname = Gdotaccent;
lastChange = "2019-08-23 19:48:00 +0000";
layers = (
{
layerId = "4FCB07EB-01E7-4D87-AA20-FCB2BF85BBFF";
paths = (
{
closed = 1;
nodes = (
"504 898 LINE",
"475 797 LINE",
"567 797 LINE",
"597 898 LINE"
);
},
{
closed = 1;
nodes = (
"492 182 LINE",
"463 157 OFFCURVE",
"404 145 OFFCURVE",
"340 145 CURVE SMOOTH",
"177 145 OFFCURVE",
"118 194 OFFCURVE",
"164 374 CURVE",
"248 654 OFFCURVE",
"333 665 OFFCURVE",
"496 665 CURVE SMOOTH",
"541 665 OFFCURVE",
"610 661 OFFCURVE",
"675 644 CURVE",
"688 722 LINE",
"668 726 OFFCURVE",
"597 736 OFFCURVE",
"510 736 CURVE SMOOTH",
"301 736 OFFCURVE",
"160 685 OFFCURVE",
"65 364 CURVE SMOOTH",
"-6 126 OFFCURVE",
"77 -14 OFFCURVE",
"286 -14 CURVE SMOOTH",
"381 -14 OFFCURVE",
"449 -14 OFFCURVE",
"539 40 CURVE",
"590 246 LINE",
"653 245 LINE",
"665 341 LINE",
"416 373 LINE",
"397 279 LINE",
"515 261 LINE"
);
}
);
width = 728;
}
);
note = Gdotaccent;
unicode = 0120;
},
{
glyphname = Ghook;
lastChange = "2019-08-23 19:48:00 +0000";
layers = (
{
layerId = "4FCB07EB-01E7-4D87-AA20-FCB2BF85BBFF";
paths = (
{
closed = 1;
nodes = (
"651 245 LINE",
"665 341 LINE",
"415 373 LINE",
"396 279 LINE",
"515 261 LINE",
"491 182 LINE",
"462 157 OFFCURVE",
"404 145 OFFCURVE",
"340 145 CURVE SMOOTH",
"177 145 OFFCURVE",
"116 194 OFFCURVE",
"162 374 CURVE",
"246 654 OFFCURVE",
"332 665 OFFCURVE",
"495 665 CURVE SMOOTH",
"540 665 OFFCURVE",
"609 661 OFFCURVE",
"674 644 CURVE",
"678 666 LINE",
"679 666 LINE",
"735 854 LINE SMOOTH",
"739 865 OFFCURVE",
"742 874 OFFCURVE",
"744 883 CURVE",
"749 900 LINE SMOOTH",
"757 927 OFFCURVE",
"759 928 OFFCURVE",
"809 928 CURVE",
"822 975 LINE",
"728 976 OFFCURVE",
"711 972 OFFCURVE",
"689 911 CURVE SMOOTH",
"684 895 OFFCURVE",
"683 891 OFFCURVE",
"680 883 CURVE",
"672 856 LINE",
"671 854 LINE",
"634 729 LINE",
"602 733 OFFCURVE",
"558 736 OFFCURVE",
"509 736 CURVE SMOOTH",
"300 736 OFFCURVE",
"160 685 OFFCURVE",
"65 364 CURVE SMOOTH",
"-6 126 OFFCURVE",
"77 -14 OFFCURVE",
"286 -14 CURVE SMOOTH",
"381 -14 OFFCURVE",
"447 -14 OFFCURVE",
"537 40 CURVE",
"589 246 LINE"
);
}
);
width = 862;
}
);
note = uni0193;
unicode = 0193;
},
{
glyphname = H;
lastChange = "2019-08-27 20:16:51 +0000";
layers = (
{
anchors = (
{
name = bottom;
position = "{414, 0}";
},
{
name = center;
position = "{414, 350}";
},
{
name = gram;
position = "{855, 340}";
},
{
name = top;
position = "{414, 700}";
},
{
name = topleft;
position = "{340, 700}";
}
);
layerId = "4FCB07EB-01E7-4D87-AA20-FCB2BF85BBFF";
paths = (
{
closed = 1;
nodes = (
"670 0 LINE",
"858 729 LINE",
"762 729 LINE",
"633 332 LINE",
"336 332 LINE",
"440 729 LINE",
"345 729 LINE",
"110 0 LINE",
"249 0 LINE",
"298 187 LINE",
"585 187 LINE",
"524 0 LINE"
);
}
);
width = 828;
}
);
note = H;
unicode = 0048;
},
{
glyphname = Hbar;
lastChange = "2019-08-23 19:48:00 +0000";
layers = (
{
layerId = "4FCB07EB-01E7-4D87-AA20-FCB2BF85BBFF";
paths = (
{
closed = 1;
nodes = (
"844 583 LINE",
"751 583 LINE",
"788 729 LINE",
"693 729 LINE",
"646 584 LINE",
"333 584 LINE",
"370 729 LINE",
"275 729 LINE",
"228 585 LINE",
"146 585 LINE",
"113 494 LINE",
"200 494 LINE",
"40 0 LINE",
"180 0 LINE",
"229 187 LINE",
"515 187 LINE",
"454 0 LINE",
"600 0 LINE",
"727 492 LINE",
"809 492 LINE"
);
},
{
closed = 1;
nodes = (
"563 332 LINE",
"266 332 LINE",
"309 493 LINE",
"616 493 LINE"
);
}
);
width = 884;
}
);
note = Hbar;
unicode = 0126;
},
{
glyphname = Hdotbelow;
lastChange = "2019-08-23 19:48:00 +0000";
layers = (
{
layerId = "4FCB07EB-01E7-4D87-AA20-FCB2BF85BBFF";
paths = (
{
closed = 1;
nodes = (
"600 0 LINE",
"787 729 LINE",
"693 729 LINE",
"563 332 LINE",
"266 332 LINE",
"370 729 LINE",
"275 729 LINE",
"40 0 LINE",
"179 0 LINE",
"229 187 LINE",
"515 187 LINE",
"454 0 LINE"
);
},
{
closed = 1;
nodes = (
"226 -160 LINE",
"319 -160 LINE",
"348 -59 LINE",
"255 -59 LINE"
);
}
);
width = 827;
}
);
note = uni1E24;
unicode = 1E24;
},
{
glyphname = Hhook;
lastChange = "2019-08-23 19:48:00 +0000";
layers = (
{
layerId = "4FCB07EB-01E7-4D87-AA20-FCB2BF85BBFF";
paths = (
{
closed = 1;
nodes = (
"600 0 LINE",
"789 729 LINE",
"693 729 LINE",
"564 332 LINE",
"267 332 LINE",
"371 729 LINE",
"301 729 LINE",
"302 732 LINE",
"183 732 OFFCURVE",
"93 618 OFFCURVE",
"66 527 CURVE SMOOTH",
"46 460 LINE",
"77 361 LINE",
"89 397 OFFCURVE",
"108 467 OFFCURVE",
"124 503 CURVE SMOOTH",
"145 551 OFFCURVE",
"182 592 OFFCURVE",
"234 601 CURVE",
"40 0 LINE",
"180 0 LINE",
"229 187 LINE",
"515 187 LINE",
"454 0 LINE"
);
}
);
width = 829;
}
);
note = uniA7AA;
unicode = A7AA;
},
{
glyphname = Hturned;
lastChange = "2019-08-23 19:48:00 +0000";
layers = (
{
layerId = "4FCB07EB-01E7-4D87-AA20-FCB2BF85BBFF";
paths = (
{
closed = 1;
nodes = (
"58 430 LINE SMOOTH",
"36 355 OFFCURVE",
"34 297 OFFCURVE",
"54 256 CURVE SMOOTH",
"75 216 OFFCURVE",
"113 196 OFFCURVE",
"171 196 CURVE SMOOTH",
"253 196 OFFCURVE",
"316 223 OFFCURVE",
"365 278 CURVE",
"276 0 LINE",
"391 0 LINE",
"590 730 LINE",
"514 730 LINE",
"427 477 LINE SMOOTH",
"410 424 OFFCURVE",
"385 383 OFFCURVE",
"351 354 CURVE SMOOTH",
"316 326 OFFCURVE",
"277 312 OFFCURVE",
"233 312 CURVE SMOOTH",
"194 312 OFFCURVE",
"167 321 OFFCURVE",
"152 339 CURVE SMOOTH",
"134 362 OFFCURVE",
"134 402 OFFCURVE",
"150 459 CURVE SMOOTH",
"226 730 LINE",
"152 730 LINE"
);
}
);
width = 630;
}
);
note = uniA78D;
unicode = A78D;
},
{
glyphname = I;
lastChange = "2019-08-23 22:53:20 +0000";
layers = (
{
anchors = (
{
name = bottom;
position = "{201, 0}";
},
{
name = ogonek;
position = "{362, 10}";
},
{
name = top;
position = "{341, 777}";
},
{
name = topleft;
position = "{20, 700}";
}
);
layerId = "4FCB07EB-01E7-4D87-AA20-FCB2BF85BBFF";
paths = (
{
closed = 1;
nodes = (
"169 0 LINE",
"218 243 OFFCURVE",
"283 492 OFFCURVE",
"362 729 CURVE",
"262 729 LINE",
"243 632 OFFCURVE",
"155 292 OFFCURVE",
"40 0 CURVE"
);
}
);
width = 402;
}
);
note = I;
unicode = 0049;
},
{
glyphname = Idieresisacute;
lastChange = "2019-08-23 19:48:00 +0000";
layers = (
{
layerId = "4FCB07EB-01E7-4D87-AA20-FCB2BF85BBFF";
paths = (
{
closed = 1;
nodes = (
"440 1084 LINE",
"325 930 LINE",
"395 930 LINE",
"487 1084 LINE"
);
},
{
closed = 1;
nodes = (
"181 851 LINE",
"151 750 LINE",
"244 750 LINE",
"274 851 LINE"
);
},
{
closed = 1;
nodes = (
"430 851 LINE",
"401 750 LINE",
"493 750 LINE",
"523 851 LINE"
);
},
{
closed = 1;
nodes = (
"168 0 LINE",
"217 243 OFFCURVE",
"282 492 OFFCURVE",
"361 729 CURVE",
"261 729 LINE",
"242 632 OFFCURVE",
"155 292 OFFCURVE",
"40 0 CURVE"
);
}
);
width = 563;
}
);
note = uni1E2E;
unicode = 1E2E;
},
{
glyphname = Idotaccent;
lastChange = "2019-08-23 19:48:00 +0000";
layers = (
{
layerId = "4FCB07EB-01E7-4D87-AA20-FCB2BF85BBFF";
paths = (
{
closed = 1;
nodes = (
"334 961 LINE",
"305 860 LINE",
"397 860 LINE",
"427 961 LINE"
);
},
{
closed = 1;
nodes = (
"169 0 LINE",
"218 243 OFFCURVE",
"283 492 OFFCURVE",
"362 729 CURVE",
"261 729 LINE",
"242 632 OFFCURVE",
"155 292 OFFCURVE",
"40 0 CURVE"
);
}
);
width = 467;
}
);
note = Idotaccent;
unicode = 0130;
},
{
glyphname = Idotbelow;
lastChange = "2019-08-23 19:48:00 +0000";
layers = (
{
layerId = "4FCB07EB-01E7-4D87-AA20-FCB2BF85BBFF";
paths = (
{
closed = 1;
nodes = (
"192 0 LINE",
"241 243 OFFCURVE",
"306 492 OFFCURVE",
"385 729 CURVE",
"286 729 LINE",
"267 632 OFFCURVE",
"180 292 OFFCURVE",
"65 0 CURVE"
);
},
{
closed = 1;
nodes = (
"70 -55 LINE",
"40 -156 LINE",
"132 -156 LINE",
"162 -55 LINE"
);
}
);
width = 425;
}
);
note = uni1ECA;
unicode = 1ECA;
},
{
glyphname = Ihookabove;
lastChange = "2019-08-23 19:48:00 +0000";
layers = (
{
layerId = "4FCB07EB-01E7-4D87-AA20-FCB2BF85BBFF";
paths = (
{
closed = 1;
nodes = (
"306 857 LINE",
"325 865 OFFCURVE",
"342 869 OFFCURVE",
"357 869 CURVE SMOOTH",
"373 869 OFFCURVE",
"383 865 OFFCURVE",
"390 859 CURVE SMOOTH",
"398 853 OFFCURVE",
"400 843 OFFCURVE",
"397 833 CURVE SMOOTH",
"395 823 OFFCURVE",
"385 812 OFFCURVE",
"369 802 CURVE",
"357 795 LINE SMOOTH",
"350 791 OFFCURVE",
"348 788 OFFCURVE",
"347 787 CURVE",
"345 784 OFFCURVE",
"342 780 OFFCURVE",
"341 775 CURVE",
"315 775 LINE",
"316 778 LINE SMOOTH",
"317 784 OFFCURVE",
"320 790 OFFCURVE",
"323 794 CURVE",
"327 799 OFFCURVE",
"333 803 OFFCURVE",
"343 809 CURVE",
"355 818 LINE",
"363 823 OFFCURVE",
"368 829 OFFCURVE",
"370 835 CURVE SMOOTH",
"371 841 OFFCURVE",
"366 849 OFFCURVE",
"345 849 CURVE SMOOTH",
"331 849 OFFCURVE",
"317 844 OFFCURVE",
"300 836 CURVE"
);
},
{
closed = 1;
nodes = (
"168 0 LINE",
"217 243 OFFCURVE",
"281 492 OFFCURVE",
"360 729 CURVE",
"261 729 LINE",
"242 632 OFFCURVE",
"155 292 OFFCURVE",
"40 0 CURVE"
);
}
);
width = 438;
}
);
note = uni1EC8;
unicode = 1EC8;
},
{
glyphname = Imacron;
lastChange = "2019-08-23 19:48:00 +0000";
layers = (
{
layerId = "4FCB07EB-01E7-4D87-AA20-FCB2BF85BBFF";
paths = (
{
closed = 1;
nodes = (
"196 911 LINE",
"147 841 LINE",
"560 858 LINE",
"557 935 LINE"
);
},
{
closed = 1;
nodes = (
"169 0 LINE",
"218 243 OFFCURVE",
"283 492 OFFCURVE",
"362 729 CURVE",
"262 729 LINE",
"243 632 OFFCURVE",
"155 292 OFFCURVE",
"40 0 CURVE"
);
}
);
width = 600;
}
);
note = Imacron;
unicode = 012A;
},
{
glyphname = Iogonek;
lastChange = "2019-08-23 19:48:00 +0000";
layers = (
{
layerId = "4FCB07EB-01E7-4D87-AA20-FCB2BF85BBFF";
paths = (
{
closed = 1;
nodes = (
"107 -129 OFFCURVE",
"91 -118 OFFCURVE",
"96 -98 CURVE SMOOTH",
"102 -77 OFFCURVE",
"134 -44 OFFCURVE",
"188 0 CURVE",
"257 0 LINE",
"306 243 OFFCURVE",
"371 492 OFFCURVE",
"450 729 CURVE",
"350 729 LINE",
"331 632 OFFCURVE",
"244 292 OFFCURVE",
"129 0 CURVE",
"133 0 LINE",
"82 -41 OFFCURVE",
"52 -78 OFFCURVE",
"43 -108 CURVE SMOOTH",
"26 -164 OFFCURVE",
"78 -196 OFFCURVE",
"184 -194 CURVE",
"186 -177 OFFCURVE",
"192 -144 OFFCURVE",
"195 -124 CURVE",
"176 -127 OFFCURVE",
"158 -129 OFFCURVE",
"144 -129 CURVE SMOOTH"
);
}
);
width = 490;
}
);
note = Iogonek;
unicode = 012E;
},
{
glyphname = Iotaafrican;
lastChange = "2019-08-23 19:48:00 +0000";
layers = (
{
layerId = "4FCB07EB-01E7-4D87-AA20-FCB2BF85BBFF";
paths = (
{
closed = 1;
nodes = (
"175 137 LINE",
"215 365 OFFCURVE",
"267 541 OFFCURVE",
"331 737 CURVE",
"259 737 LINE",
"182 477 OFFCURVE",
"143 367 OFFCURVE",
"64 142 CURVE",
"53 104 LINE SMOOTH",
"35 44 OFFCURVE",
"29 -7 OFFCURVE",
"78 -7 CURVE SMOOTH",
"200 -7 LINE",
"226 77 LINE",
"194 73 OFFCURVE",
"160 68 OFFCURVE",
"173 137 CURVE"
);
}
);
width = 371;
}
);
note = uni0196;
unicode = 0196;
},
{
glyphname = Istroke;
lastChange = "2019-08-23 19:48:00 +0000";
layers = (
{
layerId = "4FCB07EB-01E7-4D87-AA20-FCB2BF85BBFF";
paths = (
{
closed = 1;
nodes = (
"330 397 LINE",
"262 397 LINE",
"292 509 OFFCURVE",
"325 620 OFFCURVE",
"362 729 CURVE",
"262 729 LINE",
"251 676 OFFCURVE",
"221 549 OFFCURVE",
"176 397 CURVE",
"112 397 LINE",
"85 306 LINE",
"148 306 LINE",
"118 206 OFFCURVE",
"80 100 OFFCURVE",
"40 0 CURVE",
"169 0 LINE",
"188 101 OFFCURVE",
"213 204 OFFCURVE",
"239 306 CURVE",
"304 306 LINE"
);
}
);
width = 402;
}
);
note = uni0197;
unicode = 0197;
},
{
glyphname = Itilde;
lastChange = "2019-08-23 19:48:00 +0000";
layers = (
{
layerId = "4FCB07EB-01E7-4D87-AA20-FCB2BF85BBFF";
paths = (
{
closed = 1;
nodes = (
"241 791 LINE",
"253 834 OFFCURVE",
"272 897 OFFCURVE",
"308 896 CURVE SMOOTH",
"342 895 OFFCURVE",
"327 792 OFFCURVE",
"393 791 CURVE SMOOTH",
"441 790 OFFCURVE",
"473 795 OFFCURVE",
"517 941 CURVE",
"474 941 LINE",
"458 892 OFFCURVE",
"454 841 OFFCURVE",
"408 841 CURVE SMOOTH",
"368 841 OFFCURVE",
"381 941 OFFCURVE",
"321 941 CURVE SMOOTH",
"256 941 OFFCURVE",
"233 908 OFFCURVE",
"191 791 CURVE"
);
},
{
closed = 1;
nodes = (
"168 0 LINE",
"217 243 OFFCURVE",
"282 492 OFFCURVE",
"361 729 CURVE",
"261 729 LINE",
"242 632 OFFCURVE",
"155 292 OFFCURVE",
"40 0 CURVE"
);
}
);
width = 557;
}
);
note = Itilde;
unicode = 0128;
},
{
glyphname = J;
lastChange = "2019-08-23 19:48:00 +0000";
layers = (
{
layerId = "4FCB07EB-01E7-4D87-AA20-FCB2BF85BBFF";
paths = (
{
closed = 1;
nodes = (
"507 727 LINE",
"612 727 LINE",
"373 31 LINE SMOOTH",
"313 -145 OFFCURVE",
"242 -209 OFFCURVE",
"98 -211 CURVE",
"40 -205 LINE",
"95 -44 LINE",
"137 -55 LINE SMOOTH",
"210 -74 OFFCURVE",
"262 -16 OFFCURVE",
"281 37 CURVE SMOOTH"
);
}
);
width = 652;
}
);
note = J;
unicode = 004A;
},
{
glyphname = K;
lastChange = "2019-08-23 19:48:00 +0000";
layers = (
{
layerId = "4FCB07EB-01E7-4D87-AA20-FCB2BF85BBFF";
paths = (
{
closed = 1;
nodes = (
"40 0 LINE",
"157 0 LINE",
"255 289 LINE",
"348 0 LINE",
"562 0 LINE",
"348 327 LINE",
"691 729 LINE",
"575 729 LINE",
"275 359 LINE",
"397 729 LINE",
"316 729 LINE"
);
}
);
width = 731;
}
);
note = K;
unicode = 004B;
},
{
glyphname = Kcommaaccent;
lastChange = "2019-08-23 19:48:00 +0000";
layers = (
{
layerId = "4FCB07EB-01E7-4D87-AA20-FCB2BF85BBFF";
paths = (
{
closed = 1;
nodes = (
"560 774 LINE",
"689 1007 LINE",
"588 1007 LINE",
"562 920 LINE",
"565 920 LINE",
"473 774 LINE"
);
},
{
closed = 1;
nodes = (
"349 327 LINE",
"691 729 LINE",
"575 729 LINE",
"275 359 LINE",
"396 729 LINE",
"316 729 LINE",
"40 0 LINE",
"157 0 LINE",
"254 289 LINE",
"348 0 LINE",
"561 0 LINE"
);
}
);
width = 731;
}
);
note = uni0136;
unicode = 0136;
},
{
glyphname = Khook;
lastChange = "2019-08-23 19:48:00 +0000";
layers = (
{
layerId = "4FCB07EB-01E7-4D87-AA20-FCB2BF85BBFF";
paths = (
{
closed = 1;
nodes = (
"348 327 LINE",
"608 631 LINE",
"632 614 OFFCURVE",
"637 581 OFFCURVE",
"632 545 CURVE SMOOTH",
"627 509 OFFCURVE",
"606 439 OFFCURVE",
"595 403 CURVE",
"684 502 LINE",
"704 569 LINE SMOOTH",
"720 623 OFFCURVE",
"719 686 OFFCURVE",
"690 727 CURVE",
"691 729 LINE",
"688 729 LINE",
"670 756 OFFCURVE",
"637 774 OFFCURVE",
"591 774 CURVE",
"586 757 OFFCURVE",
"582 742 OFFCURVE",
"578 729 CURVE",
"575 729 LINE",
"274 359 LINE",
"396 729 LINE",
"315 729 LINE",
"40 0 LINE",
"157 0 LINE",
"253 289 LINE",
"347 0 LINE",
"561 0 LINE"
);
}
);
width = 754;
}
);
note = uni0198;
unicode = 0198;
},
{
glyphname = L;
lastChange = "2019-08-23 22:53:46 +0000";
layers = (
{
anchors = (
{
name = bottom;
position = "{273, 0}";
},
{
name = center;
position = "{273, 350}";
},
{
name = top;
position = "{273, 700}";
},
{
name = topright;
position = "{370, 464}";
}
);
layerId = "4FCB07EB-01E7-4D87-AA20-FCB2BF85BBFF";
paths = (
{
closed = 1;
nodes = (
"40 0 LINE",
"469 0 LINE",
"505 151 LINE",
"178 145 LINE",
"352 729 LINE",
"280 729 LINE"
);
}
);
width = 545;
}
);
note = L;
unicode = 004C;
},
{
glyphname = LJ;
lastChange = "2019-08-23 19:48:00 +0000";
layers = (
{
layerId = "4FCB07EB-01E7-4D87-AA20-FCB2BF85BBFF";
paths = (
{
closed = 1;
nodes = (
"40 0 LINE",
"470 0 LINE",
"505 151 LINE",
"178 145 LINE",
"352 729 LINE",
"281 729 LINE"
);
},
{
closed = 1;
nodes = (
"1021 727 LINE",
"1126 727 LINE",
"888 31 LINE SMOOTH",
"828 -145 OFFCURVE",
"758 -209 OFFCURVE",
"614 -211 CURVE",
"555 -205 LINE",
"610 -44 LINE",
"651 -55 LINE SMOOTH",
"724 -74 OFFCURVE",
"776 -16 OFFCURVE",
"795 37 CURVE SMOOTH"
);
}
);
width = 1166;
}
);
note = uni01C7;
unicode = 01C7;
},
{
glyphname = Lacute;
lastChange = "2019-08-23 19:48:00 +0000";
layers = (
{
layerId = "4FCB07EB-01E7-4D87-AA20-FCB2BF85BBFF";
paths = (
{
closed = 1;
nodes = (
"394 942 LINE",
"280 788 LINE",
"349 788 LINE",
"441 942 LINE"
);
},
{
closed = 1;
nodes = (
"40 0 LINE",
"468 0 LINE",
"505 151 LINE",
"177 145 LINE",
"351 729 LINE",
"280 729 LINE"
);
}
);
width = 545;
}
);
note = Lacute;
unicode = 0139;
},
{
glyphname = Lcircumflexbelow;
lastChange = "2019-08-23 19:48:00 +0000";
layers = (
{
layerId = "4FCB07EB-01E7-4D87-AA20-FCB2BF85BBFF";
paths = (
{
closed = 1;
nodes = (
"91 0 LINE",
"521 0 LINE",
"557 151 LINE",
"229 145 LINE",
"403 729 LINE",
"332 729 LINE"
);
},
{
closed = 1;
nodes = (
"260 -108 LINE",
"200 -172 LINE",
"40 -303 LINE",
"89 -303 LINE",
"249 -204 LINE",
"353 -303 LINE",
"402 -303 LINE",
"320 -172 LINE",
"303 -108 LINE"
);
}
);
width = 597;
}
);
note = uni1E3C;
unicode = 1E3C;
},
{
glyphname = Lcommaaccent;
lastChange = "2019-08-23 19:48:00 +0000";
layers = (
{
layerId = "4FCB07EB-01E7-4D87-AA20-FCB2BF85BBFF";
paths = (
{
closed = 1;
nodes = (
"352 774 LINE",
"482 1007 LINE",
"381 1007 LINE",
"354 920 LINE",
"357 920 LINE",
"266 774 LINE"
);
},
{
closed = 1;
nodes = (
"506 151 LINE",
"178 145 LINE",
"352 729 LINE",
"281 729 LINE",
"40 0 LINE",
"470 0 LINE"
);
}
);
width = 546;
}
);
note = uni013B;
unicode = 013B;
},
{
glyphname = Ldot;
lastChange = "2019-08-23 19:48:00 +0000";
layers = (
{
layerId = "4FCB07EB-01E7-4D87-AA20-FCB2BF85BBFF";
paths = (
{
closed = 1;
nodes = (
"40 0 LINE",
"469 0 LINE",
"505 151 LINE",
"178 145 LINE",
"352 729 LINE",
"280 729 LINE"
);
},
{
closed = 1;
nodes = (
"514 698 LINE",
"485 597 LINE",
"578 597 LINE",
"607 698 LINE"
);
}
);
width = 647;
}
);
note = Ldot;
unicode = 013F;
},
{
glyphname = Ldotbelow;
lastChange = "2019-08-23 19:48:00 +0000";
layers = (
{
layerId = "4FCB07EB-01E7-4D87-AA20-FCB2BF85BBFF";
paths = (
{
closed = 1;
nodes = (
"40 0 LINE",
"470 0 LINE",
"506 151 LINE",
"178 145 LINE",
"352 729 LINE",
"281 729 LINE"
);
},
{
closed = 1;
nodes = (
"195 -54 LINE",
"164 -155 LINE",
"257 -155 LINE",
"287 -54 LINE"
);
}
);
width = 546;
}
);
note = uni1E36;
unicode = 1E36;
},
{
glyphname = Lj;
lastChange = "2019-08-23 19:48:00 +0000";
layers = (
{
layerId = "4FCB07EB-01E7-4D87-AA20-FCB2BF85BBFF";
paths = (
{
closed = 1;
nodes = (
"40 0 LINE",
"469 0 LINE",
"506 151 LINE",
"178 145 LINE",
"352 729 LINE",
"280 729 LINE"
);
},
{
closed = 1;
nodes = (
"817 708 LINE",
"788 607 LINE",
"880 607 LINE",
"910 708 LINE"
);
},
{
closed = 1;
nodes = (
"481 -172 OFFCURVE",
"479 -171 OFFCURVE",
"438 -151 CURVE",
"384 -263 LINE",
"424 -265 OFFCURVE",
"524 -271 OFFCURVE",
"560 -240 CURVE SMOOTH",
"591 -213 OFFCURVE",
"611 -161 OFFCURVE",
"650 -54 CURVE SMOOTH",
"840 480 LINE",
"762 480 LINE",
"632 78 OFFCURVE",
"587 -67 OFFCURVE",
"536 -118 CURVE SMOOTH"
);
}
);
width = 950;
}
);
note = uni01C8;
unicode = 01C8;
},
{
glyphname = Lmiddletilde;
lastChange = "2019-08-23 19:48:00 +0000";
layers = (
{
layerId = "4FCB07EB-01E7-4D87-AA20-FCB2BF85BBFF";
paths = (
{
closed = 1;
nodes = (
"505 0 LINE",
"540 151 LINE",
"213 145 LINE",
"257 290 LINE",
"268 281 OFFCURVE",
"282 275 OFFCURVE",
"302 275 CURVE SMOOTH",
"366 274 OFFCURVE",
"403 279 OFFCURVE",
"449 425 CURVE",
"395 425 LINE",
"378 376 OFFCURVE",
"375 325 OFFCURVE",
"316 325 CURVE SMOOTH",
"296 325 OFFCURVE",
"288 339 OFFCURVE",
"277 356 CURVE",
"387 729 LINE",
"316 729 LINE",
"215 423 LINE",
"209 424 OFFCURVE",
"203 425 OFFCURVE",
"196 425 CURVE SMOOTH",
"112 425 OFFCURVE",
"84 392 OFFCURVE",
"40 275 CURVE",
"105 275 LINE",
"117 318 OFFCURVE",
"138 381 OFFCURVE",
"183 380 CURVE SMOOTH",
"190 380 OFFCURVE",
"193 378 OFFCURVE",
"198 374 CURVE",
"75 0 LINE"
);
}
);
width = 580;
}
);
note = uni2C62;
unicode = 2C62;
},
{
glyphname = Lslash;
lastChange = "2019-08-23 19:48:00 +0000";
layers = (
{
layerId = "4FCB07EB-01E7-4D87-AA20-FCB2BF85BBFF";
paths = (
{
closed = 1;
nodes = (
"545 0 LINE",
"581 151 LINE",
"253 145 LINE",
"333 411 LINE",
"574 581 LINE",
"530 607 LINE",
"358 494 LINE",
"427 729 LINE",
"357 729 LINE",
"257 428 LINE",
"40 285 LINE",
"125 263 LINE",
"226 335 LINE",
"115 0 LINE"
);
}
);
width = 621;
}
);
note = Lslash;
unicode = 0141;
},
{
glyphname = M;
lastChange = "2019-08-23 19:48:00 +0000";
layers = (
{
layerId = "4FCB07EB-01E7-4D87-AA20-FCB2BF85BBFF";
paths = (
{
closed = 1;
nodes = (
"40 0 LINE",
"171 0 LINE",
"328 671 LINE",
"338 63 LINE",
"437 63 LINE",
"791 671 LINE",
"545 0 LINE",
"693 0 LINE",
"882 729 LINE",
"756 729 LINE",
"457 289 LINE",
"415 729 LINE",
"280 729 LINE"
);
}
);
width = 922;
}
);
note = M;
unicode = 004D;
},
{
glyphname = Macute;
lastChange = "2019-08-23 19:48:00 +0000";
layers = (
{
layerId = "4FCB07EB-01E7-4D87-AA20-FCB2BF85BBFF";
paths = (
{
closed = 1;
nodes = (
"656 913 LINE",
"541 759 LINE",
"610 759 LINE",
"703 913 LINE"
);
},
{
closed = 1;
nodes = (
"40 0 LINE",
"171 0 LINE",
"329 671 LINE",
"338 63 LINE",
"439 63 LINE",
"792 671 LINE",
"547 0 LINE",
"694 0 LINE",
"882 729 LINE",
"757 729 LINE",
"457 289 LINE",
"415 729 LINE",
"281 729 LINE"
);
}
);
width = 922;
}
);
note = uni1E3E;
unicode = 1E3E;
},
{
glyphname = Mdotaccent;
lastChange = "2019-08-23 19:48:00 +0000";
layers = (
{
layerId = "4FCB07EB-01E7-4D87-AA20-FCB2BF85BBFF";
paths = (
{
closed = 1;
nodes = (
"580 882 LINE",
"549 781 LINE",
"642 781 LINE",
"673 882 LINE"
);
},
{
closed = 1;
nodes = (
"40 0 LINE",
"172 0 LINE",
"329 671 LINE",
"339 63 LINE",
"439 63 LINE",
"793 671 LINE",
"547 0 LINE",
"694 0 LINE",
"883 729 LINE",
"757 729 LINE",
"459 289 LINE",
"416 729 LINE",
"281 729 LINE"
);
}
);
width = 923;
}
);
note = uni1E40;
unicode = 1E40;
},
{
glyphname = N;
lastChange = "2019-08-23 22:54:27 +0000";
layers = (
{
anchors = (
{
name = bottom;
position = "{422, 0}";
},
{
name = top;
position = "{555, 708}";
}
);
layerId = "4FCB07EB-01E7-4D87-AA20-FCB2BF85BBFF";
paths = (
{
closed = 1;
nodes = (
"40 0 LINE",
"187 0 LINE",
"352 616 LINE",
"403 0 LINE",
"550 0 LINE",
"803 727 LINE",
"720 727 LINE",
"499 139 LINE",
"414 700 LINE",
"301 700 LINE"
);
}
);
width = 843;
}
);
note = N;
unicode = 004E;
},
{
glyphname = NJ;
lastChange = "2019-08-23 19:48:00 +0000";
layers = (
{
layerId = "4FCB07EB-01E7-4D87-AA20-FCB2BF85BBFF";
paths = (
{
closed = 1;
nodes = (
"40 0 LINE",
"187 0 LINE",
"352 616 LINE",
"403 0 LINE",
"550 0 LINE",
"803 727 LINE",
"720 727 LINE",
"500 139 LINE",
"415 700 LINE",
"302 700 LINE"
);
},
{
closed = 1;
nodes = (
"1139 727 LINE",
"1244 727 LINE",
"1005 31 LINE SMOOTH",
"945 -145 OFFCURVE",
"874 -209 OFFCURVE",
"730 -211 CURVE",
"672 -205 LINE",
"727 -44 LINE",
"769 -55 LINE SMOOTH",
"842 -74 OFFCURVE",
"893 -16 OFFCURVE",
"912 37 CURVE SMOOTH"
);
}
);
width = 1284;
}
);
note = uni01CA;
unicode = 01CA;
},
{
glyphname = Nacute;
lastChange = "2019-08-23 19:48:00 +0000";
layers = (
{
layerId = "4FCB07EB-01E7-4D87-AA20-FCB2BF85BBFF";
paths = (
{
closed = 1;
nodes = (
"644 942 LINE",
"529 788 LINE",
"599 788 LINE",
"690 942 LINE"
);
},
{
closed = 1;
nodes = (
"40 0 LINE",
"187 0 LINE",
"352 616 LINE",
"403 0 LINE",
"550 0 LINE",
"803 727 LINE",
"720 727 LINE",
"500 139 LINE",
"414 700 LINE",
"302 700 LINE"
);
}
);
width = 843;
}
);
note = Nacute;
unicode = 0143;
},
{
glyphname = Ncircumflexbelow;
lastChange = "2019-08-23 19:48:00 +0000";
layers = (
{
layerId = "4FCB07EB-01E7-4D87-AA20-FCB2BF85BBFF";
paths = (
{
closed = 1;
nodes = (
"40 0 LINE",
"188 0 LINE",
"353 616 LINE",
"403 0 LINE",
"551 0 LINE",
"804 727 LINE",
"721 727 LINE",
"501 139 LINE",
"415 700 LINE",
"303 700 LINE"
);
},
{
closed = 1;
nodes = (
"265 -113 LINE",
"205 -177 LINE",
"44 -308 LINE",
"94 -308 LINE",
"255 -209 LINE",
"358 -308 LINE",
"407 -308 LINE",
"325 -177 LINE",
"308 -113 LINE"
);
}
);
width = 844;
}
);
note = uni1E4A;
unicode = 1E4A;
},
{
glyphname = Ncommaaccent;
lastChange = "2019-08-23 19:48:00 +0000";
layers = (
{
layerId = "4FCB07EB-01E7-4D87-AA20-FCB2BF85BBFF";
paths = (
{
closed = 1;
nodes = (
"720 727 LINE",
"500 139 LINE",
"415 700 LINE",
"302 700 LINE",
"40 0 LINE",
"187 0 LINE",
"352 616 LINE",
"403 0 LINE",
"550 0 LINE",
"804 727 LINE"
);
},
{
closed = 1;
nodes = (
"515 -59 LINE",
"414 -59 LINE",
"387 -146 LINE",
"390 -146 LINE",
"299 -292 LINE",
"386 -292 LINE"
);
}
);
width = 844;
}
);
note = uni0145;
unicode = 0145;
},
{
glyphname = Ndotaccent;
lastChange = "2019-08-23 19:48:00 +0000";
layers = (
{
layerId = "4FCB07EB-01E7-4D87-AA20-FCB2BF85BBFF";
paths = (
{
closed = 1;
nodes = (
"568 911 LINE",
"538 810 LINE",
"630 810 LINE",
"660 911 LINE"
);
},
{
closed = 1;
nodes = (
"40 0 LINE",
"187 0 LINE",
"353 616 LINE",
"403 0 LINE",
"550 0 LINE",
"804 727 LINE",
"720 727 LINE",
"500 139 LINE",
"415 700 LINE",
"303 700 LINE"
);
}
);
width = 844;
}
);
note = uni1E44;
unicode = 1E44;
},
{
glyphname = Ndotbelow;
lastChange = "2019-08-23 19:48:00 +0000";
layers = (
{
layerId = "4FCB07EB-01E7-4D87-AA20-FCB2BF85BBFF";
paths = (
{
closed = 1;
nodes = (
"40 0 LINE",
"187 0 LINE",
"352 616 LINE",
"403 0 LINE",
"550 0 LINE",
"803 727 LINE",
"720 727 LINE",
"500 139 LINE",
"414 700 LINE",
"301 700 LINE"
);
},
{
closed = 1;
nodes = (
"249 -59 LINE",
"219 -160 LINE",
"311 -160 LINE",
"342 -59 LINE"
);
}
);
width = 843;
}
);
note = uni1E46;
unicode = 1E46;
},
{
glyphname = Ngrave;
lastChange = "2019-08-23 19:48:00 +0000";
layers = (
{
layerId = "4FCB07EB-01E7-4D87-AA20-FCB2BF85BBFF";
paths = (
{
closed = 1;
nodes = (
"541 744 LINE",
"659 729 LINE",
"541 856 LINE",
"468 856 LINE"
);
},
{
closed = 1;
nodes = (
"40 0 LINE",
"188 0 LINE",
"352 616 LINE",
"403 0 LINE",
"550 0 LINE",
"804 727 LINE",
"720 727 LINE",
"500 139 LINE",
"415 700 LINE",
"302 700 LINE"
);
}
);
width = 844;
}
);
note = uni01F8;
unicode = 01F8;
},
{
glyphname = Eng;
lastChange = "2019-08-23 19:48:00 +0000";
layers = (
{
layerId = "4FCB07EB-01E7-4D87-AA20-FCB2BF85BBFF";
paths = (
{
closed = 1;
nodes = (
"804 727 LINE",
"720 727 LINE",
"500 139 LINE",
"415 700 LINE",
"302 700 LINE",
"40 0 LINE",
"187 0 LINE",
"352 616 LINE",
"403 0 LINE",
"382 -70 OFFCURVE",
"375 -88 OFFCURVE",
"311 -88 CURVE SMOOTH",
"262 -88 LINE",
"255 -99 OFFCURVE",
"225 -152 OFFCURVE",
"219 -161 CURVE",
"259 -175 OFFCURVE",
"443 -163 OFFCURVE",
"477 -139 CURVE SMOOTH",
"501 -123 OFFCURVE",
"527 -85 OFFCURVE",
"555 12 CURVE"
);
}
);
width = 844;
}
);
note = Eng;
unicode = 014A;
},
{
glyphname = Nhookleft;
lastChange = "2019-08-23 19:48:00 +0000";
layers = (
{
layerId = "4FCB07EB-01E7-4D87-AA20-FCB2BF85BBFF";
paths = (
{
closed = 1;
nodes = (
"864 727 LINE",
"644 139 LINE",
"559 700 LINE",
"446 700 LINE",
"190 16 LINE",
"166 -15 OFFCURVE",
"130 -37 OFFCURVE",
"86 -37 CURVE",
"65 -89 OFFCURVE",
"57 -113 OFFCURVE",
"40 -166 CURVE",
"159 -166 OFFCURVE",
"306 -85 OFFCURVE",
"330 -5 CURVE",
"330 -3 OFFCURVE",
"331 -2 OFFCURVE",
"331 0 CURVE",
"332 0 LINE",
"496 616 LINE",
"546 0 LINE",
"694 0 LINE",
"947 727 LINE"
);
}
);
width = 987;
}
);
note = uni019D;
unicode = 019D;
},
{
glyphname = Nj;
lastChange = "2019-08-23 19:48:00 +0000";
layers = (
{
layerId = "4FCB07EB-01E7-4D87-AA20-FCB2BF85BBFF";
paths = (
{
closed = 1;
nodes = (
"905 729 LINE",
"875 628 LINE",
"968 628 LINE",
"997 729 LINE"
);
},
{
closed = 1;
nodes = (
"40 0 LINE",
"187 0 LINE",
"352 616 LINE",
"402 0 LINE",
"549 0 LINE",
"803 727 LINE",
"720 727 LINE",
"499 139 LINE",
"414 700 LINE",
"302 700 LINE"
);
},
{
closed = 1;
nodes = (
"569 -151 OFFCURVE",
"565 -150 OFFCURVE",
"525 -130 CURVE",
"471 -242 LINE",
"511 -244 OFFCURVE",
"611 -250 OFFCURVE",
"646 -219 CURVE SMOOTH",
"678 -192 OFFCURVE",
"698 -140 OFFCURVE",
"736 -33 CURVE SMOOTH",
"927 501 LINE",
"850 501 LINE",
"720 99 OFFCURVE",
"674 -46 OFFCURVE",
"624 -97 CURVE SMOOTH"
);
}
);
width = 1037;
}
);
note = uni01CB;
unicode = 01CB;
},
{
glyphname = O;
lastChange = "2019-08-23 22:55:08 +0000";
layers = (
{
anchors = (
{
name = bottom;
position = "{381, 0}";
},
{
name = center;
position = "{381, 350}";
},
{
name = ogonek;
position = "{686, 10}";
},
{
name = top;
position = "{576, 766}";
},
{
name = topleft;
position = "{20, 700}";
},
{
name = topright;
position = "{742, 700}";
}
);
layerId = "4FCB07EB-01E7-4D87-AA20-FCB2BF85BBFF";
paths = (
{
closed = 1;
nodes = (
"311 742 OFFCURVE",
"146 594 OFFCURVE",
"78 364 CURVE SMOOTH",
"-14 54 OFFCURVE",
"62 -12 OFFCURVE",
"275 -14 CURVE SMOOTH",
"506 -16 OFFCURVE",
"597 54 OFFCURVE",
"696 364 CURVE SMOOTH",
"769 594 OFFCURVE",
"687 742 OFFCURVE",
"499 742 CURVE SMOOTH"
);
},
{
closed = 1;
nodes = (
"610 672 OFFCURVE",
"656 548 OFFCURVE",
"600 364 CURVE SMOOTH",
"555 213 OFFCURVE",
"462 173 OFFCURVE",
"331 173 CURVE SMOOTH",
"200 173 OFFCURVE",
"128 213 OFFCURVE",
"173 364 CURVE SMOOTH",
"229 548 OFFCURVE",
"348 672 OFFCURVE",
"479 672 CURVE SMOOTH"
);
}
);
width = 762;
}
);
note = O;
unicode = 004F;
},
{
glyphname = Obreve;
lastChange = "2019-08-23 19:48:00 +0000";
layers = (
{
layerId = "4FCB07EB-01E7-4D87-AA20-FCB2BF85BBFF";
paths = (
{
closed = 1;
nodes = (
"615 836 OFFCURVE",
"725 910 OFFCURVE",
"761 1033 CURVE",
"701 1033 LINE",
"675 946 OFFCURVE",
"633 931 OFFCURVE",
"547 931 CURVE SMOOTH",
"474 931 OFFCURVE",
"435 945 OFFCURVE",
"460 1033 CURVE",
"401 1033 LINE",
"365 910 OFFCURVE",
"420 836 OFFCURVE",
"518 836 CURVE SMOOTH"
);
},
{
closed = 1;
nodes = (
"312 742 OFFCURVE",
"146 594 OFFCURVE",
"78 364 CURVE SMOOTH",
"-14 54 OFFCURVE",
"62 -12 OFFCURVE",
"275 -14 CURVE SMOOTH",
"506 -16 OFFCURVE",
"598 54 OFFCURVE",
"697 364 CURVE SMOOTH",
"770 594 OFFCURVE",
"688 742 OFFCURVE",
"500 742 CURVE SMOOTH"
);
},
{
closed = 1;
nodes = (
"200 173 OFFCURVE",
"128 213 OFFCURVE",
"173 364 CURVE SMOOTH",
"229 548 OFFCURVE",
"348 672 OFFCURVE",
"479 672 CURVE SMOOTH",
"610 672 OFFCURVE",
"657 548 OFFCURVE",
"601 364 CURVE SMOOTH",
"556 213 OFFCURVE",
"462 173 OFFCURVE",
"331 173 CURVE SMOOTH"
);
}
);
width = 801;
}
);
note = Obreve;
unicode = 014E;
},
{
glyphname = Ocircumflexacute;
lastChange = "2019-08-23 19:48:00 +0000";
layers = (
{
layerId = "4FCB07EB-01E7-4D87-AA20-FCB2BF85BBFF";
paths = (
{
closed = 1;
nodes = (
"813 1075 LINE",
"699 921 LINE",
"769 921 LINE",
"861 1075 LINE"
);
},
{
closed = 1;
nodes = (
"565 1044 LINE",
"505 980 LINE",
"345 849 LINE",
"394 849 LINE",
"554 948 LINE",
"658 849 LINE",
"707 849 LINE",
"625 980 LINE",
"609 1044 LINE"
);
},
{
closed = 1;
nodes = (
"313 742 OFFCURVE",
"146 594 OFFCURVE",
"78 364 CURVE SMOOTH",
"-14 54 OFFCURVE",
"63 -12 OFFCURVE",
"276 -14 CURVE SMOOTH",
"507 -16 OFFCURVE",
"597 54 OFFCURVE",
"696 364 CURVE SMOOTH",
"769 594 OFFCURVE",
"689 742 OFFCURVE",
"501 742 CURVE SMOOTH"
);
},
{
closed = 1;
nodes = (
"611 672 OFFCURVE",
"658 548 OFFCURVE",
"602 364 CURVE SMOOTH",
"557 213 OFFCURVE",
"462 173 OFFCURVE",
"331 173 CURVE SMOOTH",
"200 173 OFFCURVE",
"129 213 OFFCURVE",
"174 364 CURVE SMOOTH",
"230 548 OFFCURVE",
"349 672 OFFCURVE",
"480 672 CURVE SMOOTH"
);
}
);
width = 901;
}
);
note = uni1ED0;
unicode = 1ED0;
},
{
glyphname = Ocircumflexdotbelow;
lastChange = "2019-08-23 19:48:00 +0000";
layers = (
{
layerId = "4FCB07EB-01E7-4D87-AA20-FCB2BF85BBFF";
paths = (
{
closed = 1;
nodes = (
"569 1046 LINE",
"510 982 LINE",
"349 851 LINE",
"399 851 LINE",
"559 950 LINE",
"662 851 LINE",
"711 851 LINE",
"630 982 LINE",
"614 1046 LINE"
);
},
{
closed = 1;
nodes = (
"312 742 OFFCURVE",
"146 594 OFFCURVE",
"78 364 CURVE SMOOTH",
"-14 54 OFFCURVE",
"62 -12 OFFCURVE",
"275 -14 CURVE SMOOTH",
"506 -16 OFFCURVE",
"597 54 OFFCURVE",
"696 364 CURVE SMOOTH",
"769 594 OFFCURVE",
"688 742 OFFCURVE",
"500 742 CURVE SMOOTH"
);
},
{
closed = 1;
nodes = (
"610 672 OFFCURVE",
"657 548 OFFCURVE",
"601 364 CURVE SMOOTH",
"556 213 OFFCURVE",
"462 173 OFFCURVE",
"331 173 CURVE SMOOTH",
"200 173 OFFCURVE",
"129 213 OFFCURVE",
"174 364 CURVE SMOOTH",
"230 548 OFFCURVE",
"348 672 OFFCURVE",
"479 672 CURVE SMOOTH"
);
},
{
closed = 1;
nodes = (
"199 -113 LINE",
"169 -214 LINE",
"261 -214 LINE",
"292 -113 LINE"
);
}
);
width = 763;
}
);
note = uni1ED8;
unicode = 1ED8;
},
{
glyphname = Ocircumflexgrave;
lastChange = "2019-08-23 19:48:00 +0000";
layers = (
{
layerId = "4FCB07EB-01E7-4D87-AA20-FCB2BF85BBFF";
paths = (
{
closed = 1;
nodes = (
"770 969 LINE",
"888 954 LINE",
"769 1081 LINE",
"697 1081 LINE"
);
},
{
closed = 1;
nodes = (
"567 1052 LINE",
"507 988 LINE",
"347 857 LINE",
"396 857 LINE",
"557 956 LINE",
"660 857 LINE",
"709 857 LINE",
"627 988 LINE",
"611 1052 LINE"
);
},
{
closed = 1;
nodes = (
"312 742 OFFCURVE",
"146 594 OFFCURVE",
"78 364 CURVE SMOOTH",
"-14 54 OFFCURVE",
"63 -12 OFFCURVE",
"276 -14 CURVE SMOOTH",
"507 -16 OFFCURVE",
"597 54 OFFCURVE",
"696 364 CURVE SMOOTH",
"769 594 OFFCURVE",
"688 742 OFFCURVE",
"500 742 CURVE SMOOTH"
);
},
{
closed = 1;
nodes = (
"610 672 OFFCURVE",
"657 548 OFFCURVE",
"601 364 CURVE SMOOTH",
"556 213 OFFCURVE",
"462 173 OFFCURVE",
"331 173 CURVE SMOOTH",
"200 173 OFFCURVE",
"129 213 OFFCURVE",
"174 364 CURVE SMOOTH",
"230 548 OFFCURVE",
"348 672 OFFCURVE",
"479 672 CURVE SMOOTH"
);
}
);
width = 928;
}
);
note = uni1ED2;
unicode = 1ED2;
},
{
glyphname = Ocircumflexhookabove;
lastChange = "2019-08-23 19:48:00 +0000";
layers = (
{
layerId = "4FCB07EB-01E7-4D87-AA20-FCB2BF85BBFF";
paths = (
{
closed = 1;
nodes = (
"679 1095 LINE",
"698 1103 OFFCURVE",
"714 1107 OFFCURVE",
"729 1107 CURVE SMOOTH",
"745 1107 OFFCURVE",
"755 1103 OFFCURVE",
"762 1097 CURVE SMOOTH",
"770 1091 OFFCURVE",
"772 1081 OFFCURVE",
"769 1071 CURVE SMOOTH",
"767 1061 OFFCURVE",
"756 1050 OFFCURVE",
"740 1040 CURVE SMOOTH",
"728 1033 LINE SMOOTH",
"722 1029 OFFCURVE",
"719 1026 OFFCURVE",
"718 1025 CURVE",
"716 1022 OFFCURVE",
"714 1018 OFFCURVE",
"713 1013 CURVE",
"687 1013 LINE",
"688 1016 LINE SMOOTH",
"689 1022 OFFCURVE",
"693 1028 OFFCURVE",
"696 1032 CURVE",
"700 1037 OFFCURVE",
"705 1041 OFFCURVE",
"715 1047 CURVE SMOOTH",
"728 1056 LINE",
"736 1061 OFFCURVE",
"741 1067 OFFCURVE",
"743 1073 CURVE SMOOTH",
"744 1079 OFFCURVE",
"739 1087 OFFCURVE",
"718 1087 CURVE SMOOTH",
"704 1087 OFFCURVE",
"690 1082 OFFCURVE",
"673 1074 CURVE"
);
},
{
closed = 1;
nodes = (
"567 1052 LINE",
"507 988 LINE",
"346 857 LINE",
"397 857 LINE",
"557 956 LINE",
"660 857 LINE",
"709 857 LINE",
"627 988 LINE",
"611 1052 LINE"
);
},
{
closed = 1;
nodes = (
"312 742 OFFCURVE",
"146 594 OFFCURVE",
"78 364 CURVE SMOOTH",
"-14 54 OFFCURVE",
"62 -12 OFFCURVE",
"275 -14 CURVE SMOOTH",
"506 -16 OFFCURVE",
"597 54 OFFCURVE",
"696 364 CURVE SMOOTH",
"769 594 OFFCURVE",
"688 742 OFFCURVE",
"500 742 CURVE SMOOTH"
);
},
{
closed = 1;
nodes = (
"610 672 OFFCURVE",
"656 548 OFFCURVE",
"601 364 CURVE SMOOTH",
"556 213 OFFCURVE",
"462 173 OFFCURVE",
"331 173 CURVE SMOOTH",
"200 173 OFFCURVE",
"128 213 OFFCURVE",
"173 364 CURVE SMOOTH",
"228 548 OFFCURVE",
"348 672 OFFCURVE",
"479 672 CURVE SMOOTH"
);
}
);
width = 810;
}
);
note = uni1ED4;
unicode = 1ED4;
},
{
glyphname = Ocircumflextilde;
lastChange = "2019-08-23 19:48:00 +0000";
layers = (
{
layerId = "4FCB07EB-01E7-4D87-AA20-FCB2BF85BBFF";
paths = (
{
closed = 1;
nodes = (
"522 1092 LINE",
"534 1135 OFFCURVE",
"554 1198 OFFCURVE",
"589 1197 CURVE SMOOTH",
"623 1196 OFFCURVE",
"610 1093 OFFCURVE",
"676 1092 CURVE SMOOTH",
"725 1091 OFFCURVE",
"755 1096 OFFCURVE",
"800 1242 CURVE",
"757 1242 LINE",
"740 1193 OFFCURVE",
"736 1142 OFFCURVE",
"690 1142 CURVE SMOOTH",
"650 1142 OFFCURVE",
"663 1242 OFFCURVE",
"603 1242 CURVE SMOOTH",
"538 1242 OFFCURVE",
"514 1209 OFFCURVE",
"472 1092 CURVE"
);
},
{
closed = 1;
nodes = (
"571 1057 LINE",
"511 993 LINE",
"350 862 LINE",
"401 862 LINE",
"561 961 LINE",
"664 862 LINE",
"713 862 LINE",
"631 993 LINE",
"615 1057 LINE"
);
},
{
closed = 1;
nodes = (
"311 742 OFFCURVE",
"146 594 OFFCURVE",
"78 364 CURVE SMOOTH",
"-14 54 OFFCURVE",
"62 -12 OFFCURVE",
"275 -14 CURVE SMOOTH",
"506 -16 OFFCURVE",
"597 54 OFFCURVE",
"696 364 CURVE SMOOTH",
"769 594 OFFCURVE",
"687 742 OFFCURVE",
"499 742 CURVE SMOOTH"
);
},
{
closed = 1;
nodes = (
"610 672 OFFCURVE",
"657 548 OFFCURVE",
"601 364 CURVE SMOOTH",
"556 213 OFFCURVE",
"462 173 OFFCURVE",
"331 173 CURVE SMOOTH",
"200 173 OFFCURVE",
"128 213 OFFCURVE",
"173 364 CURVE SMOOTH",
"229 548 OFFCURVE",
"348 672 OFFCURVE",
"479 672 CURVE SMOOTH"
);
}
);
width = 840;
}
);
note = uni1ED6;
unicode = 1ED6;
},
{
glyphname = Odieresismacron;
lastChange = "2019-08-23 19:48:00 +0000";
layers = (
{
layerId = "4FCB07EB-01E7-4D87-AA20-FCB2BF85BBFF";
paths = (
{
closed = 1;
nodes = (
"412 1039 LINE",
"363 969 LINE",
"777 986 LINE",
"772 1063 LINE"
);
},
{
closed = 1;
nodes = (
"370 887 LINE",
"339 786 LINE",
"431 786 LINE",
"462 887 LINE"
);
},
{
closed = 1;
nodes = (
"619 887 LINE",
"589 786 LINE",
"681 786 LINE",
"711 887 LINE"
);
},
{
closed = 1;
nodes = (
"313 742 OFFCURVE",
"146 594 OFFCURVE",
"78 364 CURVE SMOOTH",
"-14 54 OFFCURVE",
"63 -12 OFFCURVE",
"276 -14 CURVE SMOOTH",
"507 -16 OFFCURVE",
"597 54 OFFCURVE",
"696 364 CURVE SMOOTH",
"769 594 OFFCURVE",
"689 742 OFFCURVE",
"501 742 CURVE SMOOTH"
);
},
{
closed = 1;
nodes = (
"611 672 OFFCURVE",
"658 548 OFFCURVE",
"602 364 CURVE SMOOTH",
"557 213 OFFCURVE",
"462 173 OFFCURVE",
"331 173 CURVE SMOOTH",
"200 173 OFFCURVE",
"129 213 OFFCURVE",
"174 364 CURVE SMOOTH",
"230 548 OFFCURVE",
"349 672 OFFCURVE",
"480 672 CURVE SMOOTH"
);
}
);
width = 817;
}
);
note = uni022A;
unicode = 022A;
},
{
glyphname = Odotbelow;
lastChange = "2019-08-23 19:48:00 +0000";
layers = (
{
layerId = "4FCB07EB-01E7-4D87-AA20-FCB2BF85BBFF";
paths = (
{
closed = 1;
nodes = (
"313 742 OFFCURVE",
"146 594 OFFCURVE",
"78 364 CURVE SMOOTH",
"-14 54 OFFCURVE",
"63 -12 OFFCURVE",
"276 -14 CURVE SMOOTH",
"507 -16 OFFCURVE",
"598 54 OFFCURVE",
"697 364 CURVE SMOOTH",
"770 594 OFFCURVE",
"689 742 OFFCURVE",
"501 742 CURVE SMOOTH"
);
},
{
closed = 1;
nodes = (
"611 672 OFFCURVE",
"658 548 OFFCURVE",
"602 364 CURVE SMOOTH",
"557 213 OFFCURVE",
"462 173 OFFCURVE",
"331 173 CURVE SMOOTH",
"200 173 OFFCURVE",
"129 213 OFFCURVE",
"174 364 CURVE SMOOTH",
"230 548 OFFCURVE",
"349 672 OFFCURVE",
"480 672 CURVE SMOOTH"
);
},
{
closed = 1;
nodes = (
"199 -113 LINE",
"170 -214 LINE",
"263 -214 LINE",
"292 -113 LINE"
);
}
);
width = 764;
}
);
note = uni1ECC;
unicode = 1ECC;
},
{
glyphname = Ohookabove;
lastChange = "2019-08-23 19:48:00 +0000";
layers = (
{
layerId = "4FCB07EB-01E7-4D87-AA20-FCB2BF85BBFF";
paths = (
{
closed = 1;
nodes = (
"495 893 LINE",
"514 901 OFFCURVE",
"531 905 OFFCURVE",
"546 905 CURVE SMOOTH",
"562 905 OFFCURVE",
"572 901 OFFCURVE",
"580 895 CURVE SMOOTH",
"587 889 OFFCURVE",
"589 879 OFFCURVE",
"587 869 CURVE SMOOTH",
"584 859 OFFCURVE",
"574 848 OFFCURVE",
"557 838 CURVE SMOOTH",
"546 831 LINE SMOOTH",
"539 827 OFFCURVE",
"536 824 OFFCURVE",
"535 823 CURVE",
"533 820 OFFCURVE",
"530 816 OFFCURVE",
"529 811 CURVE",
"504 811 LINE",
"505 814 LINE SMOOTH",
"506 820 OFFCURVE",
"509 826 OFFCURVE",
"512 830 CURVE",
"516 835 OFFCURVE",
"523 839 OFFCURVE",
"532 845 CURVE",
"544 854 LINE",
"552 859 OFFCURVE",
"559 865 OFFCURVE",
"560 871 CURVE SMOOTH",
"561 877 OFFCURVE",
"555 885 OFFCURVE",
"534 885 CURVE SMOOTH",
"520 885 OFFCURVE",
"506 880 OFFCURVE",
"489 872 CURVE"
);
},
{
closed = 1;
nodes = (
"313 742 OFFCURVE",
"146 594 OFFCURVE",
"78 364 CURVE SMOOTH",
"-14 54 OFFCURVE",
"63 -12 OFFCURVE",
"276 -14 CURVE SMOOTH",
"507 -16 OFFCURVE",
"598 54 OFFCURVE",
"697 364 CURVE SMOOTH",
"770 594 OFFCURVE",
"689 742 OFFCURVE",
"501 742 CURVE SMOOTH"
);
},
{
closed = 1;
nodes = (
"611 672 OFFCURVE",
"658 548 OFFCURVE",
"602 364 CURVE SMOOTH",
"557 213 OFFCURVE",
"463 173 OFFCURVE",
"332 173 CURVE SMOOTH",
"201 173 OFFCURVE",
"129 213 OFFCURVE",
"174 364 CURVE SMOOTH",
"230 548 OFFCURVE",
"349 672 OFFCURVE",
"480 672 CURVE SMOOTH"
);
}
);
width = 764;
}
);
note = uni1ECE;
unicode = 1ECE;
},
{
glyphname = Ohorn;
lastChange = "2019-08-23 19:48:00 +0000";
layers = (
{
layerId = "4FCB07EB-01E7-4D87-AA20-FCB2BF85BBFF";
paths = (
{
closed = 1;
nodes = (
"734 662 OFFCURVE",
"758 709 OFFCURVE",
"769 748 CURVE",
"771 757 OFFCURVE",
"772 768 OFFCURVE",
"773 780 CURVE",
"731 786 LINE",
"732 776 OFFCURVE",
"732 767 OFFCURVE",
"729 756 CURVE SMOOTH",
"724 739 OFFCURVE",
"712 693 OFFCURVE",
"686 673 CURVE SMOOTH",
"684 671 OFFCURVE",
"680 669 OFFCURVE",
"678 668 CURVE",
"640 716 OFFCURVE",
"580 742 OFFCURVE",
"500 742 CURVE SMOOTH",
"312 742 OFFCURVE",
"146 594 OFFCURVE",
"78 364 CURVE SMOOTH",
"-14 54 OFFCURVE",
"63 -12 OFFCURVE",
"276 -14 CURVE SMOOTH",
"507 -16 OFFCURVE",
"598 54 OFFCURVE",
"697 364 CURVE SMOOTH",
"732 477 OFFCURVE",
"731 569 OFFCURVE",
"699 635 CURVE"
);
},
{
closed = 1;
nodes = (
"200 173 OFFCURVE",
"128 213 OFFCURVE",
"173 364 CURVE SMOOTH",
"229 548 OFFCURVE",
"349 672 OFFCURVE",
"480 672 CURVE SMOOTH",
"611 672 OFFCURVE",
"657 548 OFFCURVE",
"601 364 CURVE SMOOTH",
"556 213 OFFCURVE",
"462 173 OFFCURVE",
"331 173 CURVE SMOOTH"
);
}
);
width = 813;
}
);
note = Ohorn;
unicode = 01A0;
},
{
glyphname = Ohornacute;
lastChange = "2019-08-23 19:48:00 +0000";
layers = (
{
layerId = "4FCB07EB-01E7-4D87-AA20-FCB2BF85BBFF";
paths = (
{
closed = 1;
nodes = (
"646 1028 LINE",
"599 1028 LINE",
"484 874 LINE",
"554 874 LINE"
);
},
{
closed = 1;
nodes = (
"735 662 OFFCURVE",
"758 709 OFFCURVE",
"769 748 CURVE",
"771 757 OFFCURVE",
"773 768 OFFCURVE",
"774 780 CURVE",
"731 786 LINE",
"732 776 OFFCURVE",
"732 767 OFFCURVE",
"729 756 CURVE SMOOTH",
"724 739 OFFCURVE",
"712 693 OFFCURVE",
"686 673 CURVE SMOOTH",
"684 671 OFFCURVE",
"680 669 OFFCURVE",
"678 668 CURVE",
"640 716 OFFCURVE",
"581 742 OFFCURVE",
"501 742 CURVE SMOOTH",
"313 742 OFFCURVE",
"146 594 OFFCURVE",
"78 364 CURVE SMOOTH",
"-14 54 OFFCURVE",
"63 -12 OFFCURVE",
"276 -14 CURVE SMOOTH",
"507 -16 OFFCURVE",
"598 54 OFFCURVE",
"697 364 CURVE SMOOTH",
"732 477 OFFCURVE",
"732 569 OFFCURVE",
"700 635 CURVE"
);
},
{
closed = 1;
nodes = (
"201 173 OFFCURVE",
"129 213 OFFCURVE",
"174 364 CURVE SMOOTH",
"230 548 OFFCURVE",
"349 672 OFFCURVE",
"480 672 CURVE SMOOTH",
"611 672 OFFCURVE",
"658 548 OFFCURVE",
"602 364 CURVE SMOOTH",
"557 213 OFFCURVE",
"463 173 OFFCURVE",
"332 173 CURVE SMOOTH"
);
}
);
width = 814;
}
);
note = uni1EDA;
unicode = 1EDA;
},
{
glyphname = Ohorndotbelow;
lastChange = "2019-08-23 19:48:00 +0000";
layers = (
{
layerId = "4FCB07EB-01E7-4D87-AA20-FCB2BF85BBFF";
paths = (
{
closed = 1;
nodes = (
"734 662 OFFCURVE",
"758 709 OFFCURVE",
"769 748 CURVE",
"771 757 OFFCURVE",
"773 768 OFFCURVE",
"774 780 CURVE",
"731 786 LINE",
"732 776 OFFCURVE",
"732 767 OFFCURVE",
"729 756 CURVE SMOOTH",
"724 739 OFFCURVE",
"711 693 OFFCURVE",
"685 673 CURVE SMOOTH",
"683 671 OFFCURVE",
"679 669 OFFCURVE",
"677 668 CURVE",
"639 716 OFFCURVE",
"580 742 OFFCURVE",
"500 742 CURVE SMOOTH",
"312 742 OFFCURVE",
"146 594 OFFCURVE",
"78 364 CURVE SMOOTH",
"-14 54 OFFCURVE",
"63 -12 OFFCURVE",
"276 -14 CURVE SMOOTH",
"507 -16 OFFCURVE",
"597 54 OFFCURVE",
"696 364 CURVE SMOOTH",
"731 477 OFFCURVE",
"731 569 OFFCURVE",
"699 635 CURVE"
);
},
{
closed = 1;
nodes = (
"200 173 OFFCURVE",
"129 213 OFFCURVE",
"174 364 CURVE SMOOTH",
"230 548 OFFCURVE",
"348 672 OFFCURVE",
"479 672 CURVE SMOOTH",
"610 672 OFFCURVE",
"657 548 OFFCURVE",
"601 364 CURVE SMOOTH",
"556 213 OFFCURVE",
"462 173 OFFCURVE",
"331 173 CURVE SMOOTH"
);
},
{
closed = 1;
nodes = (
"169 -214 LINE",
"261 -214 LINE",
"292 -113 LINE",
"199 -113 LINE"
);
}
);
width = 814;
}
);
note = uni1EE2;
unicode = 1EE2;
},
{
glyphname = Ohorngrave;
lastChange = "2019-08-23 19:48:00 +0000";
layers = (
{
layerId = "4FCB07EB-01E7-4D87-AA20-FCB2BF85BBFF";
paths = (
{
closed = 1;
nodes = (
"613 815 LINE",
"494 942 LINE",
"422 942 LINE",
"495 830 LINE"
);
},
{
closed = 1;
nodes = (
"733 662 OFFCURVE",
"757 709 OFFCURVE",
"768 748 CURVE",
"770 757 OFFCURVE",
"772 768 OFFCURVE",
"773 780 CURVE",
"731 786 LINE",
"732 776 OFFCURVE",
"732 767 OFFCURVE",
"729 756 CURVE SMOOTH",
"724 739 OFFCURVE",
"711 693 OFFCURVE",
"685 673 CURVE SMOOTH",
"683 671 OFFCURVE",
"680 669 OFFCURVE",
"678 668 CURVE",
"640 716 OFFCURVE",
"580 742 OFFCURVE",
"500 742 CURVE SMOOTH",
"312 742 OFFCURVE",
"146 594 OFFCURVE",
"78 364 CURVE SMOOTH",
"-14 54 OFFCURVE",
"62 -12 OFFCURVE",
"275 -14 CURVE SMOOTH",
"506 -16 OFFCURVE",
"597 54 OFFCURVE",
"696 364 CURVE SMOOTH",
"731 477 OFFCURVE",
"730 569 OFFCURVE",
"698 635 CURVE"
);
},
{
closed = 1;
nodes = (
"199 173 OFFCURVE",
"128 213 OFFCURVE",
"173 364 CURVE SMOOTH",
"229 548 OFFCURVE",
"348 672 OFFCURVE",
"479 672 CURVE SMOOTH",
"610 672 OFFCURVE",
"657 548 OFFCURVE",
"601 364 CURVE SMOOTH",
"556 213 OFFCURVE",
"461 173 OFFCURVE",
"330 173 CURVE SMOOTH"
);
}
);
width = 813;
}
);
note = uni1EDC;
unicode = 1EDC;
},
{
glyphname = Ohornhookabove;
lastChange = "2019-08-23 19:48:00 +0000";
layers = (
{
layerId = "4FCB07EB-01E7-4D87-AA20-FCB2BF85BBFF";
paths = (
{
closed = 1;
nodes = (
"559 865 OFFCURVE",
"552 859 OFFCURVE",
"544 854 CURVE",
"532 845 LINE",
"523 839 OFFCURVE",
"516 835 OFFCURVE",
"512 830 CURVE",
"509 826 OFFCURVE",
"506 820 OFFCURVE",
"505 814 CURVE SMOOTH",
"504 811 LINE",
"529 811 LINE",
"530 816 OFFCURVE",
"533 820 OFFCURVE",
"535 823 CURVE",
"536 824 OFFCURVE",
"539 827 OFFCURVE",
"546 831 CURVE SMOOTH",
"557 838 LINE SMOOTH",
"574 848 OFFCURVE",
"584 859 OFFCURVE",
"587 869 CURVE SMOOTH",
"589 879 OFFCURVE",
"587 889 OFFCURVE",
"580 895 CURVE SMOOTH",
"572 901 OFFCURVE",
"562 905 OFFCURVE",
"546 905 CURVE SMOOTH",
"531 905 OFFCURVE",
"514 901 OFFCURVE",
"495 893 CURVE",
"489 872 LINE",
"506 880 OFFCURVE",
"520 885 OFFCURVE",
"534 885 CURVE SMOOTH",
"555 885 OFFCURVE",
"561 877 OFFCURVE",
"560 871 CURVE SMOOTH"
);
},
{
closed = 1;
nodes = (
"735 662 OFFCURVE",
"758 709 OFFCURVE",
"769 748 CURVE",
"771 757 OFFCURVE",
"773 768 OFFCURVE",
"774 780 CURVE",
"731 786 LINE",
"732 776 OFFCURVE",
"733 767 OFFCURVE",
"730 756 CURVE SMOOTH",
"725 739 OFFCURVE",
"712 693 OFFCURVE",
"686 673 CURVE SMOOTH",
"684 671 OFFCURVE",
"680 669 OFFCURVE",
"678 668 CURVE",
"640 716 OFFCURVE",
"581 742 OFFCURVE",
"501 742 CURVE SMOOTH",
"313 742 OFFCURVE",
"146 594 OFFCURVE",
"78 364 CURVE SMOOTH",
"-14 54 OFFCURVE",
"63 -12 OFFCURVE",
"276 -14 CURVE SMOOTH",
"507 -16 OFFCURVE",
"598 54 OFFCURVE",
"697 364 CURVE SMOOTH",
"732 477 OFFCURVE",
"732 569 OFFCURVE",
"700 635 CURVE"
);
},
{
closed = 1;
nodes = (
"201 173 OFFCURVE",
"129 213 OFFCURVE",
"174 364 CURVE SMOOTH",
"230 548 OFFCURVE",
"349 672 OFFCURVE",
"480 672 CURVE SMOOTH",
"611 672 OFFCURVE",
"658 548 OFFCURVE",
"602 364 CURVE SMOOTH",
"557 213 OFFCURVE",
"463 173 OFFCURVE",
"332 173 CURVE SMOOTH"
);
}
);
width = 814;
}
);
note = uni1EDE;
unicode = 1EDE;
},
{
glyphname = Ohorntilde;
lastChange = "2019-08-23 19:48:00 +0000";
layers = (
{
layerId = "4FCB07EB-01E7-4D87-AA20-FCB2BF85BBFF";
paths = (
{
closed = 1;
nodes = (
"530 931 OFFCURVE",
"516 828 OFFCURVE",
"582 827 CURVE SMOOTH",
"631 826 OFFCURVE",
"660 831 OFFCURVE",
"705 977 CURVE",
"664 977 LINE",
"647 928 OFFCURVE",
"641 877 OFFCURVE",
"595 877 CURVE SMOOTH",
"555 877 OFFCURVE",
"570 977 OFFCURVE",
"510 977 CURVE SMOOTH",
"445 977 OFFCURVE",
"421 944 OFFCURVE",
"379 827 CURVE",
"429 827 LINE",
"441 870 OFFCURVE",
"460 933 OFFCURVE",
"496 932 CURVE SMOOTH"
);
},
{
closed = 1;
nodes = (
"734 662 OFFCURVE",
"759 709 OFFCURVE",
"770 748 CURVE",
"772 757 OFFCURVE",
"773 768 OFFCURVE",
"774 780 CURVE",
"732 786 LINE",
"733 776 OFFCURVE",
"733 767 OFFCURVE",
"730 756 CURVE SMOOTH",
"725 739 OFFCURVE",
"712 693 OFFCURVE",
"686 673 CURVE SMOOTH",
"684 671 OFFCURVE",
"680 669 OFFCURVE",
"678 668 CURVE",
"640 716 OFFCURVE",
"580 742 OFFCURVE",
"500 742 CURVE SMOOTH",
"312 742 OFFCURVE",
"147 594 OFFCURVE",
"79 364 CURVE SMOOTH",
"-13 54 OFFCURVE",
"62 -12 OFFCURVE",
"275 -14 CURVE SMOOTH",
"506 -16 OFFCURVE",
"598 54 OFFCURVE",
"697 364 CURVE SMOOTH",
"732 477 OFFCURVE",
"731 569 OFFCURVE",
"699 635 CURVE"
);
},
{
closed = 1;
nodes = (
"200 173 OFFCURVE",
"129 213 OFFCURVE",
"174 364 CURVE SMOOTH",
"230 548 OFFCURVE",
"348 672 OFFCURVE",
"479 672 CURVE SMOOTH",
"610 672 OFFCURVE",
"657 548 OFFCURVE",
"601 364 CURVE SMOOTH",
"556 213 OFFCURVE",
"462 173 OFFCURVE",
"331 173 CURVE SMOOTH"
);
}
);
width = 814;
}
);
note = uni1EE0;
unicode = 1EE0;
},
{
glyphname = Ohungarumlaut;
lastChange = "2019-08-23 19:48:00 +0000";
layers = (
{
layerId = "4FCB07EB-01E7-4D87-AA20-FCB2BF85BBFF";
paths = (
{
closed = 1;
nodes = (
"470 837 LINE",
"609 949 LINE",
"537 949 LINE",
"343 822 LINE"
);
},
{
closed = 1;
nodes = (
"637 837 LINE",
"778 949 LINE",
"705 949 LINE",
"511 822 LINE"
);
},
{
closed = 1;
nodes = (
"313 742 OFFCURVE",
"146 594 OFFCURVE",
"78 364 CURVE SMOOTH",
"-14 54 OFFCURVE",
"63 -12 OFFCURVE",
"276 -14 CURVE SMOOTH",
"507 -16 OFFCURVE",
"597 54 OFFCURVE",
"696 364 CURVE SMOOTH",
"769 594 OFFCURVE",
"689 742 OFFCURVE",
"501 742 CURVE SMOOTH"
);
},
{
closed = 1;
nodes = (
"611 672 OFFCURVE",
"658 548 OFFCURVE",
"602 364 CURVE SMOOTH",
"557 213 OFFCURVE",
"462 173 OFFCURVE",
"331 173 CURVE SMOOTH",
"200 173 OFFCURVE",
"129 213 OFFCURVE",
"174 364 CURVE SMOOTH",
"230 548 OFFCURVE",
"349 672 OFFCURVE",
"480 672 CURVE SMOOTH"
);
}
);
width = 818;
}
);
note = Ohungarumlaut;
unicode = 0150;
},
{
glyphname = Omacron;
lastChange = "2019-08-23 19:48:00 +0000";
layers = (
{
layerId = "4FCB07EB-01E7-4D87-AA20-FCB2BF85BBFF";
paths = (
{
closed = 1;
nodes = (
"383 947 LINE",
"333 877 LINE",
"746 894 LINE",
"743 971 LINE"
);
},
{
closed = 1;
nodes = (
"312 742 OFFCURVE",
"146 594 OFFCURVE",
"78 364 CURVE SMOOTH",
"-14 54 OFFCURVE",
"62 -12 OFFCURVE",
"275 -14 CURVE SMOOTH",
"506 -16 OFFCURVE",
"597 54 OFFCURVE",
"696 364 CURVE SMOOTH",
"769 594 OFFCURVE",
"688 742 OFFCURVE",
"500 742 CURVE SMOOTH"
);
},
{
closed = 1;
nodes = (
"610 672 OFFCURVE",
"657 548 OFFCURVE",
"601 364 CURVE SMOOTH",
"556 213 OFFCURVE",
"462 173 OFFCURVE",
"331 173 CURVE SMOOTH",
"200 173 OFFCURVE",
"129 213 OFFCURVE",
"174 364 CURVE SMOOTH",
"230 548 OFFCURVE",
"348 672 OFFCURVE",
"479 672 CURVE SMOOTH"
);
}
);
width = 786;
}
);
note = Omacron;
unicode = 014C;
},
{
glyphname = Omacronacute;
lastChange = "2019-08-23 19:48:00 +0000";
layers = (
{
layerId = "4FCB07EB-01E7-4D87-AA20-FCB2BF85BBFF";
paths = (
{
closed = 1;
nodes = (
"658 1223 LINE",
"543 1069 LINE",
"613 1069 LINE",
"705 1223 LINE"
);
},
{
closed = 1;
nodes = (
"384 947 LINE",
"333 877 LINE",
"747 894 LINE",
"743 971 LINE"
);
},
{
closed = 1;
nodes = (
"312 742 OFFCURVE",
"147 594 OFFCURVE",
"79 364 CURVE SMOOTH",
"-13 54 OFFCURVE",
"62 -12 OFFCURVE",
"275 -14 CURVE SMOOTH",
"506 -16 OFFCURVE",
"597 54 OFFCURVE",
"696 364 CURVE SMOOTH",
"769 594 OFFCURVE",
"688 742 OFFCURVE",
"500 742 CURVE SMOOTH"
);
},
{
closed = 1;
nodes = (
"610 672 OFFCURVE",
"657 548 OFFCURVE",
"601 364 CURVE SMOOTH",
"556 213 OFFCURVE",
"462 173 OFFCURVE",
"331 173 CURVE SMOOTH",
"200 173 OFFCURVE",
"129 213 OFFCURVE",
"174 364 CURVE SMOOTH",
"230 548 OFFCURVE",
"348 672 OFFCURVE",
"479 672 CURVE SMOOTH"
);
}
);
width = 787;
}
);
note = uni1E52;
unicode = 1E52;
},
{
glyphname = Omacrongrave;
lastChange = "2019-08-23 19:48:00 +0000";
layers = (
{
layerId = "4FCB07EB-01E7-4D87-AA20-FCB2BF85BBFF";
paths = (
{
closed = 1;
nodes = (
"555 1025 LINE",
"672 1010 LINE",
"555 1137 LINE",
"482 1137 LINE"
);
},
{
closed = 1;
nodes = (
"383 947 LINE",
"333 877 LINE",
"747 894 LINE",
"744 971 LINE"
);
},
{
closed = 1;
nodes = (
"312 742 OFFCURVE",
"146 594 OFFCURVE",
"78 364 CURVE SMOOTH",
"-14 54 OFFCURVE",
"62 -12 OFFCURVE",
"275 -14 CURVE SMOOTH",
"506 -16 OFFCURVE",
"598 54 OFFCURVE",
"697 364 CURVE SMOOTH",
"770 594 OFFCURVE",
"688 742 OFFCURVE",
"500 742 CURVE SMOOTH"
);
},
{
closed = 1;
nodes = (
"611 672 OFFCURVE",
"657 548 OFFCURVE",
"601 364 CURVE SMOOTH",
"556 213 OFFCURVE",
"462 173 OFFCURVE",
"331 173 CURVE SMOOTH",
"200 173 OFFCURVE",
"128 213 OFFCURVE",
"173 364 CURVE SMOOTH",
"229 548 OFFCURVE",
"349 672 OFFCURVE",
"480 672 CURVE SMOOTH"
);
}
);
width = 787;
}
);
note = uni1E50;
unicode = 1E50;
},
{
glyphname = Oopen;
lastChange = "2019-08-23 19:48:00 +0000";
layers = (
{
layerId = "4FCB07EB-01E7-4D87-AA20-FCB2BF85BBFF";
paths = (
{
closed = 1;
nodes = (
"232 656 LINE",
"325 672 OFFCURVE",
"324 672 OFFCURVE",
"402 672 CURVE SMOOTH",
"554 672 OFFCURVE",
"623 561 OFFCURVE",
"565 368 CURVE SMOOTH",
"513 197 OFFCURVE",
"396 139 OFFCURVE",
"244 139 CURVE SMOOTH",
"166 139 OFFCURVE",
"131 144 OFFCURVE",
"91 159 CURVE",
"40 -13 LINE",
"324 -13 LINE SMOOTH",
"498 -13 OFFCURVE",
"534 0 OFFCURVE",
"644 368 CURVE SMOOTH",
"714 602 OFFCURVE",
"633 746 OFFCURVE",
"430 746 CURVE SMOOTH",
"349 746 OFFCURVE",
"328 744 OFFCURVE",
"242 732 CURVE"
);
}
);
width = 709;
}
);
note = uni0186;
unicode = 0186;
},
{
glyphname = Oslashacute;
lastChange = "2019-08-23 19:48:00 +0000";
layers = (
{
layerId = "4FCB07EB-01E7-4D87-AA20-FCB2BF85BBFF";
paths = (
{
closed = 1;
nodes = (
"777 1028 LINE",
"730 1028 LINE",
"615 874 LINE",
"685 874 LINE"
);
},
{
closed = 1;
nodes = (
"1008 845 LINE",
"878 819 LINE",
"772 703 LINE",
"736 728 OFFCURVE",
"688 742 OFFCURVE",
"631 742 CURVE SMOOTH",
"443 742 OFFCURVE",
"277 594 OFFCURVE",
"209 364 CURVE SMOOTH",
"165 216 OFFCURVE",
"160 124 OFFCURVE",
"188 67 CURVE",
"40 -96 LINE",
"262 -18 LINE",
"277 1 LINE",
"312 -9 OFFCURVE",
"356 -14 OFFCURVE",
"407 -14 CURVE SMOOTH",
"638 -16 OFFCURVE",
"728 54 OFFCURVE",
"827 364 CURVE SMOOTH",
"863 478 OFFCURVE",
"862 571 OFFCURVE",
"828 637 CURVE"
);
},
{
closed = 1;
nodes = (
"361 548 OFFCURVE",
"480 672 OFFCURVE",
"611 672 CURVE SMOOTH",
"653 672 OFFCURVE",
"685 659 OFFCURVE",
"710 635 CURVE",
"321 210 LINE",
"290 238 OFFCURVE",
"282 286 OFFCURVE",
"305 364 CURVE SMOOTH"
);
},
{
closed = 1;
nodes = (
"687 213 OFFCURVE",
"593 173 OFFCURVE",
"462 173 CURVE SMOOTH",
"450 173 OFFCURVE",
"438 173 OFFCURVE",
"427 174 CURVE",
"752 548 LINE",
"759 499 OFFCURVE",
"754 436 OFFCURVE",
"732 364 CURVE SMOOTH"
);
}
);
width = 1048;
}
);
note = Oslashacute;
unicode = 01FE;
},
{
glyphname = Otildeacute;
lastChange = "2019-08-23 19:48:00 +0000";
layers = (
{
layerId = "4FCB07EB-01E7-4D87-AA20-FCB2BF85BBFF";
paths = (
{
closed = 1;
nodes = (
"713 1190 LINE",
"596 1036 LINE",
"666 1036 LINE",
"759 1190 LINE"
);
},
{
closed = 1;
nodes = (
"428 827 LINE",
"440 870 OFFCURVE",
"458 933 OFFCURVE",
"494 932 CURVE SMOOTH",
"528 931 OFFCURVE",
"515 828 OFFCURVE",
"581 827 CURVE SMOOTH",
"630 826 OFFCURVE",
"660 831 OFFCURVE",
"705 977 CURVE",
"663 977 LINE",
"646 928 OFFCURVE",
"640 877 OFFCURVE",
"594 877 CURVE SMOOTH",
"554 877 OFFCURVE",
"568 977 OFFCURVE",
"508 977 CURVE SMOOTH",
"443 977 OFFCURVE",
"419 944 OFFCURVE",
"377 827 CURVE"
);
},
{
closed = 1;
nodes = (
"312 742 OFFCURVE",
"146 594 OFFCURVE",
"78 364 CURVE SMOOTH",
"-14 54 OFFCURVE",
"62 -12 OFFCURVE",
"275 -14 CURVE SMOOTH",
"506 -16 OFFCURVE",
"596 54 OFFCURVE",
"695 364 CURVE SMOOTH",
"768 594 OFFCURVE",
"688 742 OFFCURVE",
"500 742 CURVE SMOOTH"
);
},
{
closed = 1;
nodes = (
"610 672 OFFCURVE",
"657 548 OFFCURVE",
"601 364 CURVE SMOOTH",
"556 213 OFFCURVE",
"461 173 OFFCURVE",
"330 173 CURVE SMOOTH",
"199 173 OFFCURVE",
"128 213 OFFCURVE",
"173 364 CURVE SMOOTH",
"229 548 OFFCURVE",
"348 672 OFFCURVE",
"479 672 CURVE SMOOTH"
);
}
);
width = 799;
}
);
note = uni1E4C;
unicode = 1E4C;
},
{
glyphname = P;
lastChange = "2019-08-23 19:48:00 +0000";
layers = (
{
layerId = "4FCB07EB-01E7-4D87-AA20-FCB2BF85BBFF";
paths = (
{
closed = 1;
nodes = (
"40 0 LINE",
"176 0 LINE",
"239 274 LINE",
"351 280 LINE SMOOTH",
"504 288 OFFCURVE",
"592 361 OFFCURVE",
"636 505 CURVE SMOOTH",
"664 601 OFFCURVE",
"629 716 OFFCURVE",
"461 716 CURVE SMOOTH",
"291 716 LINE"
);
},
{
closed = 1;
nodes = (
"446 651 LINE SMOOTH",
"565 651 OFFCURVE",
"580 584 OFFCURVE",
"570 549 CURVE SMOOTH",
"538 441 OFFCURVE",
"492 423 OFFCURVE",
"401 419 CURVE SMOOTH",
"275 413 LINE",
"346 651 LINE"
);
}
);
width = 685;
}
);
note = P;
unicode = 0050;
},
{
glyphname = Pdotaccent;
lastChange = "2019-08-23 19:48:00 +0000";
layers = (
{
layerId = "4FCB07EB-01E7-4D87-AA20-FCB2BF85BBFF";
paths = (
{
closed = 1;
nodes = (
"476 882 LINE",
"445 781 LINE",
"537 781 LINE",
"569 882 LINE"
);
},
{
closed = 1;
nodes = (
"40 0 LINE",
"176 0 LINE",
"239 274 LINE",
"350 280 LINE SMOOTH",
"503 288 OFFCURVE",
"592 361 OFFCURVE",
"636 505 CURVE SMOOTH",
"664 601 OFFCURVE",
"630 716 OFFCURVE",
"462 716 CURVE SMOOTH",
"291 716 LINE"
);
},
{
closed = 1;
nodes = (
"446 651 LINE SMOOTH",
"565 651 OFFCURVE",
"581 584 OFFCURVE",
"571 549 CURVE SMOOTH",
"539 441 OFFCURVE",
"492 423 OFFCURVE",
"401 419 CURVE SMOOTH",
"276 413 LINE",
"347 651 LINE"
);
}
);
width = 685;
}
);
note = uni1E56;
unicode = 1E56;
},
{
glyphname = Phook;
lastChange = "2019-08-23 19:48:00 +0000";
layers = (
{
layerId = "4FCB07EB-01E7-4D87-AA20-FCB2BF85BBFF";
paths = (
{
closed = 1;
nodes = (
"296 716 LINE",
"296 714 LINE",
"177 714 OFFCURVE",
"87 600 OFFCURVE",
"60 509 CURVE SMOOTH",
"40 442 LINE",
"69 343 LINE",
"80 379 OFFCURVE",
"101 449 OFFCURVE",
"117 485 CURVE SMOOTH",
"141 539 OFFCURVE",
"186 585 OFFCURVE",
"249 585 CURVE",
"260 613 LINE",
"46 0 LINE",
"181 0 LINE",
"244 274 LINE",
"356 280 LINE SMOOTH",
"508 288 OFFCURVE",
"597 361 OFFCURVE",
"641 505 CURVE SMOOTH",
"669 601 OFFCURVE",
"634 716 OFFCURVE",
"466 716 CURVE SMOOTH"
);
},
{
closed = 1;
nodes = (
"281 413 LINE",
"352 651 LINE",
"450 651 LINE SMOOTH",
"569 651 OFFCURVE",
"586 584 OFFCURVE",
"576 549 CURVE SMOOTH",
"544 441 OFFCURVE",
"497 423 OFFCURVE",
"406 419 CURVE SMOOTH"
);
}
);
width = 690;
}
);
note = uni01A4;
unicode = 01A4;
},
{
glyphname = Thorn;
lastChange = "2019-08-23 19:53:59 +0000";
layers = (
{
layerId = "4FCB07EB-01E7-4D87-AA20-FCB2BF85BBFF";
paths = (
{
closed = 1;
nodes = (
"12 1 LINE",
"100 1 LINE",
"369 701 LINE",
"281 701 LINE"
);
},
{
closed = 1;
nodes = (
"281 145 OFFCURVE",
"499 199 OFFCURVE",
"537 328 CURVE SMOOTH",
"575 456 OFFCURVE",
"450 585 OFFCURVE",
"310 598 CURVE",
"193 460 OFFCURVE",
"123 283 OFFCURVE",
"136 145 CURVE"
);
},
{
closed = 1;
nodes = (
"190 275 OFFCURVE",
"229 353 OFFCURVE",
"246 399 CURVE SMOOTH",
"263 445 OFFCURVE",
"284 529 OFFCURVE",
"337 524 CURVE SMOOTH",
"394 519 OFFCURVE",
"484 416 OFFCURVE",
"466 370 CURVE SMOOTH",
"435 290 OFFCURVE",
"271 219 OFFCURVE",
"229 248 CURVE SMOOTH"
);
}
);
width = 680;
}
);
unicode = 00DE;
},
{
glyphname = Q;
lastChange = "2019-08-23 19:48:00 +0000";
layers = (
{
layerId = "4FCB07EB-01E7-4D87-AA20-FCB2BF85BBFF";
paths = (
{
closed = 1;
nodes = (
"489 42 LINE",
"561 106 OFFCURVE",
"642 194 OFFCURVE",
"692 364 CURVE SMOOTH",
"760 594 OFFCURVE",
"686 742 OFFCURVE",
"498 742 CURVE SMOOTH",
"310 742 OFFCURVE",
"136 565 OFFCURVE",
"76 364 CURVE SMOOTH",
"-21 40 OFFCURVE",
"89 -14 OFFCURVE",
"270 -14 CURVE SMOOTH",
"280 -14 OFFCURVE",
"288 -14 OFFCURVE",
"307 -12 CURVE",
"367 -129 LINE",
"579 -129 LINE"
);
},
{
closed = 1;
nodes = (
"607 662 OFFCURVE",
"653 548 OFFCURVE",
"597 364 CURVE SMOOTH",
"574 288 OFFCURVE",
"518 185 OFFCURVE",
"490 185 CURVE SMOOTH",
"454 185 OFFCURVE",
"410 206 OFFCURVE",
"369 234 CURVE",
"316 158 LINE",
"267 156 LINE SMOOTH",
"215 154 OFFCURVE",
"112 153 OFFCURVE",
"175 364 CURVE SMOOTH",
"222 519 OFFCURVE",
"345 662 OFFCURVE",
"476 662 CURVE SMOOTH"
);
}
);
width = 757;
}
);
note = Q;
unicode = 0051;
},
{
glyphname = R;
lastChange = "2019-08-23 22:55:34 +0000";
layers = (
{
anchors = (
{
name = bottom;
position = "{333, 0}";
},
{
name = top;
position = "{468, 770}";
}
);
layerId = "4FCB07EB-01E7-4D87-AA20-FCB2BF85BBFF";
paths = (
{
closed = 1;
nodes = (
"531 373 OFFCURVE",
"585 423 OFFCURVE",
"613 519 CURVE SMOOTH",
"654 660 OFFCURVE",
"596 729 OFFCURVE",
"461 729 CURVE SMOOTH",
"299 729 LINE",
"40 0 LINE",
"185 0 LINE",
"252 282 LINE",
"303 291 LINE SMOOTH",
"360 301 OFFCURVE",
"457 294 OFFCURVE",
"420 187 CURVE SMOOTH",
"357 0 LINE",
"521 0 LINE",
"528 199 LINE SMOOTH",
"531 277 OFFCURVE",
"497 340 OFFCURVE",
"466 362 CURVE"
);
},
{
closed = 1;
nodes = (
"455 677 LINE SMOOTH",
"524 677 OFFCURVE",
"586 644 OFFCURVE",
"549 519 CURVE SMOOTH",
"530 456 OFFCURVE",
"443 405 OFFCURVE",
"374 405 CURVE SMOOTH",
"260 405 LINE",
"341 677 LINE"
);
}
);
width = 666;
}
);
note = R;
unicode = 0052;
},
{
glyphname = Racute;
lastChange = "2019-08-23 19:48:00 +0000";
layers = (
{
layerId = "4FCB07EB-01E7-4D87-AA20-FCB2BF85BBFF";
paths = (
{
closed = 1;
nodes = (
"557 942 LINE",
"442 788 LINE",
"511 788 LINE",
"603 942 LINE"
);
},
{
closed = 1;
nodes = (
"530 373 OFFCURVE",
"584 423 OFFCURVE",
"612 519 CURVE SMOOTH",
"653 660 OFFCURVE",
"596 729 OFFCURVE",
"461 729 CURVE SMOOTH",
"298 729 LINE",
"40 0 LINE",
"184 0 LINE",
"252 282 LINE",
"302 291 LINE SMOOTH",
"360 301 OFFCURVE",
"457 294 OFFCURVE",
"420 187 CURVE SMOOTH",
"356 0 LINE",
"520 0 LINE",
"528 199 LINE SMOOTH",
"531 277 OFFCURVE",
"497 340 OFFCURVE",
"465 362 CURVE"
);
},
{
closed = 1;
nodes = (
"454 677 LINE SMOOTH",
"523 677 OFFCURVE",
"585 644 OFFCURVE",
"548 519 CURVE SMOOTH",
"529 456 OFFCURVE",
"443 405 OFFCURVE",
"374 405 CURVE SMOOTH",
"261 405 LINE",
"341 677 LINE"
);
}
);
width = 665;
}
);
note = Racute;
unicode = 0154;
},
{
glyphname = Rcommaaccent;
lastChange = "2019-08-23 19:48:00 +0000";
layers = (
{
layerId = "4FCB07EB-01E7-4D87-AA20-FCB2BF85BBFF";
paths = (
{
closed = 1;
nodes = (
"514 774 LINE",
"643 1007 LINE",
"543 1007 LINE",
"516 920 LINE",
"518 920 LINE",
"428 774 LINE"
);
},
{
closed = 1;
nodes = (
"356 0 LINE",
"521 0 LINE",
"528 199 LINE SMOOTH",
"531 277 OFFCURVE",
"496 340 OFFCURVE",
"465 362 CURVE",
"530 373 OFFCURVE",
"584 423 OFFCURVE",
"612 519 CURVE SMOOTH",
"653 660 OFFCURVE",
"596 729 OFFCURVE",
"461 729 CURVE SMOOTH",
"298 729 LINE",
"40 0 LINE",
"183 0 LINE",
"252 282 LINE",
"303 291 LINE SMOOTH",
"360 301 OFFCURVE",
"456 294 OFFCURVE",
"419 187 CURVE SMOOTH"
);
},
{
closed = 1;
nodes = (
"260 405 LINE",
"341 677 LINE",
"455 677 LINE SMOOTH",
"524 677 OFFCURVE",
"585 644 OFFCURVE",
"548 519 CURVE SMOOTH",
"529 456 OFFCURVE",
"443 405 OFFCURVE",
"374 405 CURVE SMOOTH"
);
}
);
width = 683;
}
);
note = uni0156;
unicode = 0156;
},
{
glyphname = Rdotbelow;
lastChange = "2019-08-23 19:48:00 +0000";
layers = (
{
layerId = "4FCB07EB-01E7-4D87-AA20-FCB2BF85BBFF";
paths = (
{
closed = 1;
nodes = (
"530 373 OFFCURVE",
"584 423 OFFCURVE",
"612 519 CURVE SMOOTH",
"653 660 OFFCURVE",
"596 729 OFFCURVE",
"461 729 CURVE SMOOTH",
"298 729 LINE",
"40 0 LINE",
"184 0 LINE",
"252 282 LINE",
"302 291 LINE SMOOTH",
"359 301 OFFCURVE",
"457 294 OFFCURVE",
"420 187 CURVE SMOOTH",
"356 0 LINE",
"520 0 LINE",
"528 199 LINE SMOOTH",
"531 277 OFFCURVE",
"496 340 OFFCURVE",
"465 362 CURVE"
);
},
{
closed = 1;
nodes = (
"454 677 LINE SMOOTH",
"523 677 OFFCURVE",
"585 644 OFFCURVE",
"548 519 CURVE SMOOTH",
"529 456 OFFCURVE",
"442 405 OFFCURVE",
"373 405 CURVE SMOOTH",
"260 405 LINE",
"341 677 LINE"
);
},
{
closed = 1;
nodes = (
"195 -59 LINE",
"165 -160 LINE",
"258 -160 LINE",
"287 -59 LINE"
);
}
);
width = 665;
}
);
note = uni1E5A;
unicode = 1E5A;
},
{
glyphname = Rstroke;
lastChange = "2019-08-23 19:48:00 +0000";
layers = (
{
layerId = "4FCB07EB-01E7-4D87-AA20-FCB2BF85BBFF";
paths = (
{
closed = 1;
nodes = (
"355 0 LINE",
"521 0 LINE",
"527 199 LINE SMOOTH",
"528 261 OFFCURVE",
"508 314 OFFCURVE",
"483 344 CURVE",
"492 369 LINE",
"545 389 OFFCURVE",
"587 437 OFFCURVE",
"612 519 CURVE SMOOTH",
"653 660 OFFCURVE",
"596 729 OFFCURVE",
"461 729 CURVE SMOOTH",
"297 729 LINE",
"178 389 LINE",
"74 389 LINE",
"42 298 LINE",
"145 298 LINE",
"40 0 LINE",
"183 0 LINE",
"252 282 LINE",
"301 291 LINE SMOOTH",
"358 301 OFFCURVE",
"456 294 OFFCURVE",
"419 187 CURVE SMOOTH"
);
},
{
closed = 1;
nodes = (
"341 677 LINE",
"454 677 LINE SMOOTH",
"523 677 OFFCURVE",
"584 644 OFFCURVE",
"547 519 CURVE SMOOTH",
"528 456 OFFCURVE",
"442 405 OFFCURVE",
"373 405 CURVE SMOOTH",
"259 405 LINE"
);
}
);
width = 665;
}
);
note = uni024C;
unicode = 024C;
},
{
glyphname = Rtail;
lastChange = "2019-08-23 19:48:00 +0000";
layers = (
{
layerId = "4FCB07EB-01E7-4D87-AA20-FCB2BF85BBFF";
paths = (
{
closed = 1;
nodes = (
"502 0 LINE",
"667 0 LINE",
"674 199 LINE SMOOTH",
"677 277 OFFCURVE",
"642 340 OFFCURVE",
"611 362 CURVE",
"676 373 OFFCURVE",
"731 423 OFFCURVE",
"759 519 CURVE SMOOTH",
"800 660 OFFCURVE",
"742 729 OFFCURVE",
"607 729 CURVE SMOOTH",
"444 729 LINE",
"190 9 LINE",
"165 -22 OFFCURVE",
"130 -43 OFFCURVE",
"87 -43 CURVE",
"66 -95 OFFCURVE",
"58 -119 OFFCURVE",
"40 -172 CURVE",
"159 -172 OFFCURVE",
"307 -91 OFFCURVE",
"330 -11 CURVE",
"331 -7 OFFCURVE",
"331 -1 OFFCURVE",
"331 5 CURVE",
"398 282 LINE",
"448 291 LINE SMOOTH",
"505 301 OFFCURVE",
"603 294 OFFCURVE",
"566 187 CURVE SMOOTH"
);
},
{
closed = 1;
nodes = (
"407 405 LINE",
"487 677 LINE",
"600 677 LINE SMOOTH",
"669 677 OFFCURVE",
"731 644 OFFCURVE",
"694 519 CURVE SMOOTH",
"675 456 OFFCURVE",
"589 405 OFFCURVE",
"520 405 CURVE SMOOTH"
);
}
);
width = 812;
}
);
note = uni2C64;
unicode = 2C64;
},
{
glyphname = S;
lastChange = "2019-08-23 20:03:52 +0000";
layers = (
{
anchors = (
{
name = bottom;
position = "{334, -14}";
},
{
name = top;
position = "{436, 778}";
}
);
layerId = "4FCB07EB-01E7-4D87-AA20-FCB2BF85BBFF";
paths = (
{
closed = 1;
nodes = (
"674 720 LINE",
"611 737 OFFCURVE",
"574 742 OFFCURVE",
"512 742 CURVE SMOOTH",
"365 742 OFFCURVE",
"254 663 OFFCURVE",
"216 534 CURVE SMOOTH",
"184 423 OFFCURVE",
"222 364 OFFCURVE",
"348 335 CURVE SMOOTH",
"400 323 LINE SMOOTH",
"485 303 OFFCURVE",
"538 268 OFFCURVE",
"518 208 CURVE SMOOTH",
"484 110 OFFCURVE",
"421 100 OFFCURVE",
"330 100 CURVE SMOOTH",
"280 100 OFFCURVE",
"202 138 OFFCURVE",
"176 167 CURVE",
"40 85 LINE",
"69 -14 OFFCURVE",
"150 -14 OFFCURVE",
"268 -14 CURVE SMOOTH",
"483 -14 OFFCURVE",
"560 -14 OFFCURVE",
"623 201 CURVE SMOOTH",
"659 320 OFFCURVE",
"582 387 OFFCURVE",
"454 417 CURVE SMOOTH",
"404 429 LINE SMOOTH",
"329 447 OFFCURVE",
"269 485 OFFCURVE",
"289 549 CURVE SMOOTH",
"312 626 OFFCURVE",
"401 662 OFFCURVE",
"499 662 CURVE SMOOTH",
"563 662 OFFCURVE",
"574 659 OFFCURVE",
"615 646 CURVE"
);
}
);
width = 714;
}
);
note = S;
unicode = 0053;
},
{
glyphname = Sacute;
lastChange = "2019-08-23 19:48:00 +0000";
layers = (
{
layerId = "4FCB07EB-01E7-4D87-AA20-FCB2BF85BBFF";
paths = (
{
closed = 1;
nodes = (
"582 942 LINE",
"467 788 LINE",
"537 788 LINE",
"629 942 LINE"
);
},
{
closed = 1;
nodes = (
"675 720 LINE",
"612 737 OFFCURVE",
"575 742 OFFCURVE",
"513 742 CURVE SMOOTH",
"366 742 OFFCURVE",
"255 663 OFFCURVE",
"217 534 CURVE SMOOTH",
"185 423 OFFCURVE",
"222 364 OFFCURVE",
"348 335 CURVE SMOOTH",
"401 323 LINE SMOOTH",
"486 303 OFFCURVE",
"537 268 OFFCURVE",
"517 208 CURVE SMOOTH",
"483 110 OFFCURVE",
"422 100 OFFCURVE",
"331 100 CURVE SMOOTH",
"281 100 OFFCURVE",
"202 138 OFFCURVE",
"176 167 CURVE",
"40 85 LINE",
"69 -14 OFFCURVE",
"150 -14 OFFCURVE",
"268 -14 CURVE SMOOTH",
"483 -14 OFFCURVE",
"561 -14 OFFCURVE",
"624 201 CURVE SMOOTH",
"660 320 OFFCURVE",
"583 387 OFFCURVE",
"455 417 CURVE SMOOTH",
"404 429 LINE SMOOTH",
"329 447 OFFCURVE",
"269 485 OFFCURVE",
"289 549 CURVE SMOOTH",
"312 626 OFFCURVE",
"401 662 OFFCURVE",
"499 662 CURVE SMOOTH",
"563 662 OFFCURVE",
"574 659 OFFCURVE",
"615 646 CURVE"
);
}
);
width = 715;
}
);
note = Sacute;
unicode = 015A;
},
{
glyphname = Saltillo;
lastChange = "2019-08-23 19:48:00 +0000";
layers = (
{
layerId = "4FCB07EB-01E7-4D87-AA20-FCB2BF85BBFF";
paths = (
{
closed = 1;
nodes = (
"160 763 LINE",
"40 120 LINE",
"135 120 LINE",
"373 763 LINE"
);
}
);
width = 413;
}
);
note = uniA78B;
unicode = A78B;
},
{
glyphname = Schwa;
lastChange = "2019-08-23 19:48:00 +0000";
layers = (
{
layerId = "4FCB07EB-01E7-4D87-AA20-FCB2BF85BBFF";
paths = (
{
closed = 1;
nodes = (
"49 208 LINE",
"18 26 OFFCURVE",
"72 -32 OFFCURVE",
"170 -46 CURVE",
"320 -52 OFFCURVE",
"445 57 OFFCURVE",
"510 235 CURVE SMOOTH",
"568 408 OFFCURVE",
"507 522 OFFCURVE",
"349 529 CURVE SMOOTH",
"285 531 OFFCURVE",
"222 520 OFFCURVE",
"153 495 CURVE",
"112 371 LINE",
"194 401 OFFCURVE",
"232 396 OFFCURVE",
"301 396 CURVE SMOOTH",
"430 395 OFFCURVE",
"463 315 OFFCURVE",
"432 220 CURVE"
);
},
{
closed = 1;
nodes = (
"382 134 LINE",
"361 68 OFFCURVE",
"276 -3 OFFCURVE",
"186 1 CURVE SMOOTH",
"106 5 OFFCURVE",
"79 74 OFFCURVE",
"89 135 CURVE"
);
}
);
width = 572;
}
);
note = uni018F;
unicode = 018F;
},
{
glyphname = T;
lastChange = "2019-08-23 20:15:28 +0000";
layers = (
{
anchors = (
{
name = bottom;
position = "{142, 46}";
},
{
name = bottom_wide;
position = "{141, 25}";
},
{
name = center;
position = "{335, 350}";
},
{
name = top;
position = "{366, 770}";
},
{
name = top_hook;
position = "{78, 690}";
}
);
layerId = "4FCB07EB-01E7-4D87-AA20-FCB2BF85BBFF";
paths = (
{
closed = 1;
nodes = (
"40 646 LINE",
"280 656 LINE",
"68 0 LINE",
"194 0 LINE",
"371 656 LINE",
"606 646 LINE",
"630 729 LINE",
"65 729 LINE"
);
}
);
width = 670;
}
);
note = T;
unicode = 0054;
},
{
glyphname = U;
lastChange = "2019-08-23 22:45:28 +0000";
layers = (
{
anchors = (
{
name = top;
position = "{482, 750}";
}
);
layerId = "4FCB07EB-01E7-4D87-AA20-FCB2BF85BBFF";
paths = (
{
closed = 1;
nodes = (
"69 274 LINE SMOOTH",
"-7 -14 OFFCURVE",
"71 -14 OFFCURVE",
"240 -14 CURVE SMOOTH",
"407 -14 OFFCURVE",
"482 -14 OFFCURVE",
"580 274 CURVE SMOOTH",
"736 729 LINE",
"616 729 LINE",
"518 354 LINE SMOOTH",
"462 142 OFFCURVE",
"401 142 OFFCURVE",
"286 142 CURVE SMOOTH",
"170 142 OFFCURVE",
"109 142 OFFCURVE",
"179 354 CURVE SMOOTH",
"303 729 LINE",
"190 729 LINE"
);
}
);
width = 776;
}
);
note = U;
unicode = 0055;
},
{
glyphname = Udieresisgrave;
lastChange = "2019-08-23 19:48:00 +0000";
layers = (
{
layerId = "4FCB07EB-01E7-4D87-AA20-FCB2BF85BBFF";
paths = (
{
closed = 1;
nodes = (
"495 916 LINE",
"614 901 LINE",
"495 1028 LINE",
"422 1028 LINE"
);
},
{
closed = 1;
nodes = (
"340 881 LINE",
"311 780 LINE",
"403 780 LINE",
"432 881 LINE"
);
},
{
closed = 1;
nodes = (
"590 881 LINE",
"560 780 LINE",
"652 780 LINE",
"682 881 LINE"
);
},
{
closed = 1;
nodes = (
"69 274 LINE SMOOTH",
"-7 -14 OFFCURVE",
"72 -14 OFFCURVE",
"241 -14 CURVE SMOOTH",
"408 -14 OFFCURVE",
"483 -14 OFFCURVE",
"581 274 CURVE SMOOTH",
"736 729 LINE",
"617 729 LINE",
"519 354 LINE SMOOTH",
"463 142 OFFCURVE",
"402 142 OFFCURVE",
"287 142 CURVE SMOOTH",
"171 142 OFFCURVE",
"110 142 OFFCURVE",
"180 354 CURVE SMOOTH",
"304 729 LINE",
"190 729 LINE"
);
}
);
width = 776;
}
);
note = uni01DB;
unicode = 01DB;
},
{
glyphname = Udieresismacron;
lastChange = "2019-08-23 19:48:00 +0000";
layers = (
{
layerId = "4FCB07EB-01E7-4D87-AA20-FCB2BF85BBFF";
paths = (
{
closed = 1;
nodes = (
"382 1033 LINE",
"332 963 LINE",
"747 980 LINE",
"743 1057 LINE"
);
},
{
closed = 1;
nodes = (
"339 881 LINE",
"310 780 LINE",
"403 780 LINE",
"432 881 LINE"
);
},
{
closed = 1;
nodes = (
"588 881 LINE",
"559 780 LINE",
"652 780 LINE",
"681 881 LINE"
);
},
{
closed = 1;
nodes = (
"69 274 LINE SMOOTH",
"-7 -14 OFFCURVE",
"71 -14 OFFCURVE",
"240 -14 CURVE SMOOTH",
"407 -14 OFFCURVE",
"482 -14 OFFCURVE",
"580 274 CURVE SMOOTH",
"736 729 LINE",
"617 729 LINE",
"519 354 LINE SMOOTH",
"463 142 OFFCURVE",
"402 142 OFFCURVE",
"287 142 CURVE SMOOTH",
"171 142 OFFCURVE",
"109 142 OFFCURVE",
"179 354 CURVE SMOOTH",
"303 729 LINE",
"190 729 LINE"
);
}
);
width = 787;
}
);
note = uni01D5;
unicode = 01D5;
},
{
glyphname = Udotbelow;
lastChange = "2019-08-23 19:48:00 +0000";
layers = (
{
layerId = "4FCB07EB-01E7-4D87-AA20-FCB2BF85BBFF";
paths = (
{
closed = 1;
nodes = (
"69 274 LINE SMOOTH",
"-7 -14 OFFCURVE",
"72 -14 OFFCURVE",
"241 -14 CURVE SMOOTH",
"408 -14 OFFCURVE",
"482 -14 OFFCURVE",
"580 274 CURVE SMOOTH",
"736 729 LINE",
"617 729 LINE",
"518 354 LINE SMOOTH",
"462 142 OFFCURVE",
"402 142 OFFCURVE",
"287 142 CURVE SMOOTH",
"171 142 OFFCURVE",
"110 142 OFFCURVE",
"180 354 CURVE SMOOTH",
"303 729 LINE",
"190 729 LINE"
);
},
{
closed = 1;
nodes = (
"181 -59 LINE",
"152 -160 LINE",
"245 -160 LINE",
"274 -59 LINE"
);
}
);
width = 776;
}
);
note = uni1EE4;
unicode = 1EE4;
},
{
glyphname = Uhookabove;
lastChange = "2019-08-23 19:48:00 +0000";
layers = (
{
layerId = "4FCB07EB-01E7-4D87-AA20-FCB2BF85BBFF";
paths = (
{
closed = 1;
nodes = (
"466 887 LINE",
"485 895 OFFCURVE",
"501 899 OFFCURVE",
"516 899 CURVE SMOOTH",
"532 899 OFFCURVE",
"543 895 OFFCURVE",
"550 889 CURVE SMOOTH",
"558 883 OFFCURVE",
"559 873 OFFCURVE",
"556 863 CURVE SMOOTH",
"554 853 OFFCURVE",
"544 842 OFFCURVE",
"528 832 CURVE",
"515 825 LINE SMOOTH",
"509 821 OFFCURVE",
"507 818 OFFCURVE",
"506 817 CURVE",
"504 814 OFFCURVE",
"501 810 OFFCURVE",
"500 805 CURVE",
"474 805 LINE",
"476 808 LINE",
"477 814 OFFCURVE",
"479 820 OFFCURVE",
"482 824 CURVE",
"486 829 OFFCURVE",
"492 833 OFFCURVE",
"502 839 CURVE",
"514 848 LINE",
"522 853 OFFCURVE",
"528 859 OFFCURVE",
"530 865 CURVE SMOOTH",
"531 871 OFFCURVE",
"525 879 OFFCURVE",
"504 879 CURVE SMOOTH",
"490 879 OFFCURVE",
"476 874 OFFCURVE",
"459 866 CURVE"
);
},
{
closed = 1;
nodes = (
"69 274 LINE SMOOTH",
"-7 -14 OFFCURVE",
"72 -14 OFFCURVE",
"241 -14 CURVE SMOOTH",
"408 -14 OFFCURVE",
"483 -14 OFFCURVE",
"581 274 CURVE SMOOTH",
"736 729 LINE",
"617 729 LINE",
"519 354 LINE SMOOTH",
"463 142 OFFCURVE",
"402 142 OFFCURVE",
"287 142 CURVE SMOOTH",
"171 142 OFFCURVE",
"109 142 OFFCURVE",
"179 354 CURVE SMOOTH",
"304 729 LINE",
"190 729 LINE"
);
}
);
width = 776;
}
);
note = uni1EE6;
unicode = 1EE6;
},
{
glyphname = Uhorn;
lastChange = "2019-08-23 19:48:00 +0000";
layers = (
{
layerId = "4FCB07EB-01E7-4D87-AA20-FCB2BF85BBFF";
paths = (
{
closed = 1;
nodes = (
"787 819 LINE",
"788 809 OFFCURVE",
"788 800 OFFCURVE",
"784 789 CURVE SMOOTH",
"779 772 OFFCURVE",
"767 726 OFFCURVE",
"741 706 CURVE",
"735 702 OFFCURVE",
"729 699 OFFCURVE",
"724 696 CURVE",
"736 729 LINE",
"616 729 LINE",
"518 354 LINE SMOOTH",
"462 142 OFFCURVE",
"402 142 OFFCURVE",
"287 142 CURVE SMOOTH",
"171 142 OFFCURVE",
"109 142 OFFCURVE",
"179 354 CURVE SMOOTH",
"303 729 LINE",
"190 729 LINE",
"69 274 LINE SMOOTH",
"-7 -14 OFFCURVE",
"71 -14 OFFCURVE",
"240 -14 CURVE SMOOTH",
"407 -14 OFFCURVE",
"482 -14 OFFCURVE",
"580 274 CURVE SMOOTH",
"703 636 LINE",
"724 646 OFFCURVE",
"729 650 OFFCURVE",
"753 667 CURVE",
"788 694 OFFCURVE",
"813 742 OFFCURVE",
"824 781 CURVE",
"826 790 OFFCURVE",
"829 801 OFFCURVE",
"830 813 CURVE"
);
}
);
width = 870;
}
);
note = Uhorn;
unicode = 01AF;
},
{
glyphname = Uhornacute;
lastChange = "2019-08-23 19:48:00 +0000";
layers = (
{
layerId = "4FCB07EB-01E7-4D87-AA20-FCB2BF85BBFF";
paths = (
{
closed = 1;
nodes = (
"617 1022 LINE",
"570 1022 LINE",
"454 868 LINE",
"524 868 LINE"
);
},
{
closed = 1;
nodes = (
"788 819 LINE",
"789 809 OFFCURVE",
"789 800 OFFCURVE",
"785 789 CURVE SMOOTH",
"780 772 OFFCURVE",
"769 726 OFFCURVE",
"743 706 CURVE",
"737 702 OFFCURVE",
"730 699 OFFCURVE",
"725 696 CURVE",
"736 729 LINE",
"617 729 LINE",
"519 354 LINE SMOOTH",
"463 142 OFFCURVE",
"402 142 OFFCURVE",
"287 142 CURVE SMOOTH",
"171 142 OFFCURVE",
"110 142 OFFCURVE",
"180 354 CURVE SMOOTH",
"305 729 LINE",
"190 729 LINE",
"69 274 LINE SMOOTH",
"-7 -14 OFFCURVE",
"72 -14 OFFCURVE",
"241 -14 CURVE SMOOTH",
"408 -14 OFFCURVE",
"483 -14 OFFCURVE",
"581 274 CURVE SMOOTH",
"705 636 LINE",
"726 646 OFFCURVE",
"730 650 OFFCURVE",
"754 667 CURVE",
"789 694 OFFCURVE",
"814 742 OFFCURVE",
"825 781 CURVE",
"827 790 OFFCURVE",
"829 801 OFFCURVE",
"830 813 CURVE"
);
}
);
width = 870;
}
);
note = uni1EE8;
unicode = 1EE8;
},
{
glyphname = Uhorndotbelow;
lastChange = "2019-08-23 19:48:00 +0000";
layers = (
{
layerId = "4FCB07EB-01E7-4D87-AA20-FCB2BF85BBFF";
paths = (
{
closed = 1;
nodes = (
"787 819 LINE",
"788 809 OFFCURVE",
"789 800 OFFCURVE",
"785 789 CURVE SMOOTH",
"780 772 OFFCURVE",
"767 726 OFFCURVE",
"741 706 CURVE",
"735 702 OFFCURVE",
"729 699 OFFCURVE",
"724 696 CURVE",
"736 729 LINE",
"617 729 LINE",
"519 354 LINE SMOOTH",
"463 142 OFFCURVE",
"402 142 OFFCURVE",
"287 142 CURVE SMOOTH",
"171 142 OFFCURVE",
"109 142 OFFCURVE",
"179 354 CURVE SMOOTH",
"303 729 LINE",
"190 729 LINE",
"69 274 LINE SMOOTH",
"-7 -14 OFFCURVE",
"71 -14 OFFCURVE",
"240 -14 CURVE SMOOTH",
"407 -14 OFFCURVE",
"482 -14 OFFCURVE",
"580 274 CURVE SMOOTH",
"704 636 LINE",
"725 646 OFFCURVE",
"729 650 OFFCURVE",
"753 667 CURVE",
"788 694 OFFCURVE",
"813 742 OFFCURVE",
"824 781 CURVE",
"826 790 OFFCURVE",
"829 801 OFFCURVE",
"830 813 CURVE"
);
},
{
closed = 1;
nodes = (
"152 -160 LINE",
"244 -160 LINE",
"273 -59 LINE",
"181 -59 LINE"
);
}
);
width = 870;
}
);
note = uni1EF0;
unicode = 1EF0;
},
{
glyphname = Uhorngrave;
lastChange = "2019-08-23 19:48:00 +0000";
layers = (
{
layerId = "4FCB07EB-01E7-4D87-AA20-FCB2BF85BBFF";
paths = (
{
closed = 1;
nodes = (
"584 809 LINE",
"465 936 LINE",
"393 936 LINE",
"465 824 LINE"
);
},
{
closed = 1;
nodes = (
"788 819 LINE",
"789 809 OFFCURVE",
"789 800 OFFCURVE",
"785 789 CURVE SMOOTH",
"780 772 OFFCURVE",
"768 726 OFFCURVE",
"742 706 CURVE",
"736 702 OFFCURVE",
"730 699 OFFCURVE",
"725 696 CURVE",
"736 729 LINE",
"617 729 LINE",
"519 354 LINE SMOOTH",
"463 142 OFFCURVE",
"402 142 OFFCURVE",
"287 142 CURVE SMOOTH",
"171 142 OFFCURVE",
"109 142 OFFCURVE",
"179 354 CURVE SMOOTH",
"303 729 LINE",
"190 729 LINE",
"69 274 LINE SMOOTH",
"-7 -14 OFFCURVE",
"71 -14 OFFCURVE",
"240 -14 CURVE SMOOTH",
"407 -14 OFFCURVE",
"482 -14 OFFCURVE",
"580 274 CURVE SMOOTH",
"704 636 LINE",
"725 646 OFFCURVE",
"729 650 OFFCURVE",
"753 667 CURVE",
"788 694 OFFCURVE",
"813 742 OFFCURVE",
"824 781 CURVE",
"826 790 OFFCURVE",
"829 801 OFFCURVE",
"830 813 CURVE"
);
}
);
width = 870;
}
);
note = uni1EEA;
unicode = 1EEA;
},
{
glyphname = Uhornhookabove;
lastChange = "2019-08-23 19:48:00 +0000";
layers = (
{
layerId = "4FCB07EB-01E7-4D87-AA20-FCB2BF85BBFF";
paths = (
{
closed = 1;
nodes = (
"528 859 OFFCURVE",
"522 853 OFFCURVE",
"514 848 CURVE",
"502 839 LINE",
"492 833 OFFCURVE",
"485 829 OFFCURVE",
"481 824 CURVE",
"478 820 OFFCURVE",
"476 814 OFFCURVE",
"475 808 CURVE SMOOTH",
"474 805 LINE",
"499 805 LINE",
"500 810 OFFCURVE",
"503 814 OFFCURVE",
"505 817 CURVE",
"506 818 OFFCURVE",
"509 821 OFFCURVE",
"515 825 CURVE SMOOTH",
"527 832 LINE SMOOTH",
"543 842 OFFCURVE",
"554 853 OFFCURVE",
"556 863 CURVE SMOOTH",
"559 873 OFFCURVE",
"557 883 OFFCURVE",
"549 889 CURVE SMOOTH",
"542 895 OFFCURVE",
"532 899 OFFCURVE",
"516 899 CURVE SMOOTH",
"501 899 OFFCURVE",
"484 895 OFFCURVE",
"465 887 CURVE",
"459 866 LINE",
"476 874 OFFCURVE",
"490 879 OFFCURVE",
"504 879 CURVE SMOOTH",
"525 879 OFFCURVE",
"531 871 OFFCURVE",
"530 865 CURVE SMOOTH"
);
},
{
closed = 1;
nodes = (
"787 819 LINE",
"788 809 OFFCURVE",
"788 800 OFFCURVE",
"784 789 CURVE SMOOTH",
"779 772 OFFCURVE",
"768 726 OFFCURVE",
"742 706 CURVE",
"736 702 OFFCURVE",
"729 699 OFFCURVE",
"724 696 CURVE",
"736 729 LINE",
"617 729 LINE",
"518 354 LINE SMOOTH",
"462 142 OFFCURVE",
"402 142 OFFCURVE",
"287 142 CURVE SMOOTH",
"171 142 OFFCURVE",
"109 142 OFFCURVE",
"179 354 CURVE SMOOTH",
"304 729 LINE",
"190 729 LINE",
"69 274 LINE SMOOTH",
"-7 -14 OFFCURVE",
"71 -14 OFFCURVE",
"240 -14 CURVE SMOOTH",
"407 -14 OFFCURVE",
"482 -14 OFFCURVE",
"580 274 CURVE SMOOTH",
"704 636 LINE",
"725 646 OFFCURVE",
"729 650 OFFCURVE",
"753 667 CURVE",
"788 694 OFFCURVE",
"813 742 OFFCURVE",
"824 781 CURVE",
"826 790 OFFCURVE",
"829 801 OFFCURVE",
"830 813 CURVE"
);
}
);
width = 870;
}
);
note = uni1EEC;
unicode = 1EEC;
},
{
glyphname = Uhorntilde;
lastChange = "2019-08-23 19:48:00 +0000";
layers = (
{
layerId = "4FCB07EB-01E7-4D87-AA20-FCB2BF85BBFF";
paths = (
{
closed = 1;
nodes = (
"500 925 OFFCURVE",
"486 822 OFFCURVE",
"552 821 CURVE SMOOTH",
"600 820 OFFCURVE",
"629 825 OFFCURVE",
"674 971 CURVE",
"633 971 LINE",
"617 922 OFFCURVE",
"611 871 OFFCURVE",
"565 871 CURVE SMOOTH",
"525 871 OFFCURVE",
"539 971 OFFCURVE",
"479 971 CURVE SMOOTH",
"414 971 OFFCURVE",
"391 938 OFFCURVE",
"349 821 CURVE",
"399 821 LINE",
"410 864 OFFCURVE",
"430 927 OFFCURVE",
"466 926 CURVE SMOOTH"
);
},
{
closed = 1;
nodes = (
"788 819 LINE",
"789 809 OFFCURVE",
"789 800 OFFCURVE",
"785 789 CURVE SMOOTH",
"780 772 OFFCURVE",
"768 726 OFFCURVE",
"742 706 CURVE",
"736 702 OFFCURVE",
"730 699 OFFCURVE",
"725 696 CURVE",
"736 729 LINE",
"616 729 LINE",
"518 354 LINE SMOOTH",
"462 142 OFFCURVE",
"401 142 OFFCURVE",
"286 142 CURVE SMOOTH",
"170 142 OFFCURVE",
"109 142 OFFCURVE",
"179 354 CURVE SMOOTH",
"303 729 LINE",
"190 729 LINE",
"69 274 LINE SMOOTH",
"-7 -14 OFFCURVE",
"71 -14 OFFCURVE",
"240 -14 CURVE SMOOTH",
"407 -14 OFFCURVE",
"481 -14 OFFCURVE",
"579 274 CURVE SMOOTH",
"703 636 LINE",
"724 646 OFFCURVE",
"729 650 OFFCURVE",
"753 667 CURVE",
"788 694 OFFCURVE",
"814 742 OFFCURVE",
"825 781 CURVE",
"827 790 OFFCURVE",
"829 801 OFFCURVE",
"830 813 CURVE"
);
}
);
width = 870;
}
);
note = uni1EEE;
unicode = 1EEE;
},
{
glyphname = Uhungarumlaut;
lastChange = "2019-08-23 19:48:00 +0000";
layers = (
{
layerId = "4FCB07EB-01E7-4D87-AA20-FCB2BF85BBFF";
paths = (
{
closed = 1;
nodes = (
"440 831 LINE",
"580 943 LINE",
"508 943 LINE",
"313 816 LINE"
);
},
{
closed = 1;
nodes = (
"608 831 LINE",
"748 943 LINE",
"675 943 LINE",
"480 816 LINE"
);
},
{
closed = 1;
nodes = (
"69 274 LINE SMOOTH",
"-7 -14 OFFCURVE",
"71 -14 OFFCURVE",
"240 -14 CURVE SMOOTH",
"407 -14 OFFCURVE",
"482 -14 OFFCURVE",
"580 274 CURVE SMOOTH",
"736 729 LINE",
"617 729 LINE",
"519 354 LINE SMOOTH",
"463 142 OFFCURVE",
"402 142 OFFCURVE",
"287 142 CURVE SMOOTH",
"171 142 OFFCURVE",
"109 142 OFFCURVE",
"179 354 CURVE SMOOTH",
"303 729 LINE",
"190 729 LINE"
);
}
);
width = 788;
}
);
note = Uhungarumlaut;
unicode = 0170;
},
{
glyphname = Umacron;
lastChange = "2019-08-23 19:48:00 +0000";
layers = (
{
layerId = "4FCB07EB-01E7-4D87-AA20-FCB2BF85BBFF";
paths = (
{
closed = 1;
nodes = (
"353 941 LINE",
"304 871 LINE",
"717 888 LINE",
"714 965 LINE"
);
},
{
closed = 1;
nodes = (
"69 274 LINE SMOOTH",
"-7 -14 OFFCURVE",
"71 -14 OFFCURVE",
"240 -14 CURVE SMOOTH",
"407 -14 OFFCURVE",
"482 -14 OFFCURVE",
"580 274 CURVE SMOOTH",
"736 729 LINE",
"617 729 LINE",
"518 354 LINE SMOOTH",
"462 142 OFFCURVE",
"402 142 OFFCURVE",
"287 142 CURVE SMOOTH",
"171 142 OFFCURVE",
"109 142 OFFCURVE",
"179 354 CURVE SMOOTH",
"303 729 LINE",
"190 729 LINE"
);
}
);
width = 776;
}
);
note = Umacron;
unicode = 016A;
},
{
glyphname = Uogonek;
lastChange = "2019-08-23 19:48:00 +0000";
layers = (
{
layerId = "4FCB07EB-01E7-4D87-AA20-FCB2BF85BBFF";
paths = (
{
closed = 1;
nodes = (
"617 729 LINE",
"519 354 LINE SMOOTH",
"463 142 OFFCURVE",
"402 142 OFFCURVE",
"287 142 CURVE SMOOTH",
"171 142 OFFCURVE",
"110 142 OFFCURVE",
"180 354 CURVE SMOOTH",
"304 729 LINE",
"190 729 LINE",
"69 274 LINE SMOOTH",
"-7 -14 OFFCURVE",
"72 -14 OFFCURVE",
"241 -14 CURVE SMOOTH",
"295 -14 LINE",
"245 -54 OFFCURVE",
"215 -90 OFFCURVE",
"206 -120 CURVE SMOOTH",
"189 -176 OFFCURVE",
"243 -208 OFFCURVE",
"349 -206 CURVE",
"351 -189 OFFCURVE",
"357 -156 OFFCURVE",
"361 -136 CURVE",
"341 -139 OFFCURVE",
"321 -141 OFFCURVE",
"307 -141 CURVE SMOOTH",
"270 -141 OFFCURVE",
"256 -130 OFFCURVE",
"262 -110 CURVE SMOOTH",
"268 -88 OFFCURVE",
"300 -55 OFFCURVE",
"357 -9 CURVE",
"449 6 OFFCURVE",
"509 62 OFFCURVE",
"581 274 CURVE SMOOTH",
"736 729 LINE"
);
}
);
width = 776;
}
);
note = Uogonek;
unicode = 0172;
},
{
glyphname = Upsilonafrican;
lastChange = "2019-08-23 19:48:00 +0000";
layers = (
{
layerId = "4FCB07EB-01E7-4D87-AA20-FCB2BF85BBFF";
paths = (
{
closed = 1;
nodes = (
"799 712 LINE",
"783 716 OFFCURVE",
"725 712 OFFCURVE",
"691 712 CURVE SMOOTH",
"541 712 LINE",
"529 670 OFFCURVE",
"522 637 OFFCURVE",
"513 584 CURVE",
"596 552 OFFCURVE",
"617 436 OFFCURVE",
"588 336 CURVE SMOOTH",
"532 152 OFFCURVE",
"413 28 OFFCURVE",
"282 28 CURVE SMOOTH",
"151 28 OFFCURVE",
"104 152 OFFCURVE",
"160 336 CURVE SMOOTH",
"189 436 OFFCURVE",
"275 599 OFFCURVE",
"368 589 CURVE",
"394 651 OFFCURVE",
"401 670 OFFCURVE",
"413 712 CURVE",
"249 712 LINE SMOOTH",
"211 712 OFFCURVE",
"183 713 OFFCURVE",
"160 712 CURVE",
"132 617 LINE",
"164 610 OFFCURVE",
"202 604 OFFCURVE",
"248 598 CURVE",
"199 556 OFFCURVE",
"119 521 OFFCURVE",
"65 336 CURVE SMOOTH",
"-4 106 OFFCURVE",
"74 -42 OFFCURVE",
"262 -42 CURVE SMOOTH",
"450 -42 OFFCURVE",
"614 106 OFFCURVE",
"683 336 CURVE SMOOTH",
"739 524 OFFCURVE",
"689 556 OFFCURVE",
"644 598 CURVE",
"730 612 OFFCURVE",
"734 612 OFFCURVE",
"770 617 CURVE"
);
}
);
width = 839;
}
);
note = uni01B1;
unicode = 01B1;
},
{
glyphname = Uring;
lastChange = "2019-08-23 19:48:00 +0000";
layers = (
{
layerId = "4FCB07EB-01E7-4D87-AA20-FCB2BF85BBFF";
paths = (
{
closed = 1;
nodes = (
"430 863 OFFCURVE",
"479 906 OFFCURVE",
"495 959 CURVE SMOOTH",
"511 1011 OFFCURVE",
"487 1054 OFFCURVE",
"441 1054 CURVE SMOOTH",
"395 1054 OFFCURVE",
"346 1011 OFFCURVE",
"330 959 CURVE SMOOTH",
"314 906 OFFCURVE",
"338 863 OFFCURVE",
"384 863 CURVE SMOOTH"
);
},
{
closed = 1;
nodes = (
"375 918 OFFCURVE",
"354 919 OFFCURVE",
"370 972 CURVE SMOOTH",
"379 1001 OFFCURVE",
"407 1025 OFFCURVE",
"433 1025 CURVE SMOOTH",
"459 1025 OFFCURVE",
"472 1001 OFFCURVE",
"463 972 CURVE SMOOTH",
"447 919 OFFCURVE",
"427 918 OFFCURVE",
"401 918 CURVE SMOOTH"
);
},
{
closed = 1;
nodes = (
"69 274 LINE SMOOTH",
"-7 -14 OFFCURVE",
"71 -14 OFFCURVE",
"240 -14 CURVE SMOOTH",
"407 -14 OFFCURVE",
"482 -14 OFFCURVE",
"580 274 CURVE SMOOTH",
"736 729 LINE",
"617 729 LINE",
"519 354 LINE SMOOTH",
"463 142 OFFCURVE",
"402 142 OFFCURVE",
"287 142 CURVE SMOOTH",
"171 142 OFFCURVE",
"109 142 OFFCURVE",
"179 354 CURVE SMOOTH",
"303 729 LINE",
"190 729 LINE"
);
}
);
width = 776;
}
);
note = Uring;
unicode = 016E;
},
{
glyphname = Utilde;
lastChange = "2019-08-23 19:48:00 +0000";
layers = (
{
layerId = "4FCB07EB-01E7-4D87-AA20-FCB2BF85BBFF";
paths = (
{
closed = 1;
nodes = (
"399 821 LINE",
"410 864 OFFCURVE",
"430 927 OFFCURVE",
"466 926 CURVE SMOOTH",
"500 925 OFFCURVE",
"487 822 OFFCURVE",
"553 821 CURVE SMOOTH",
"601 820 OFFCURVE",
"630 825 OFFCURVE",
"675 971 CURVE",
"634 971 LINE",
"618 922 OFFCURVE",
"612 871 OFFCURVE",
"566 871 CURVE SMOOTH",
"526 871 OFFCURVE",
"539 971 OFFCURVE",
"479 971 CURVE SMOOTH",
"414 971 OFFCURVE",
"391 938 OFFCURVE",
"349 821 CURVE"
);
},
{
closed = 1;
nodes = (
"69 274 LINE SMOOTH",
"-7 -14 OFFCURVE",
"72 -14 OFFCURVE",
"241 -14 CURVE SMOOTH",
"408 -14 OFFCURVE",
"482 -14 OFFCURVE",
"580 274 CURVE SMOOTH",
"736 729 LINE",
"617 729 LINE",
"518 354 LINE SMOOTH",
"462 142 OFFCURVE",
"402 142 OFFCURVE",
"287 142 CURVE SMOOTH",
"171 142 OFFCURVE",
"110 142 OFFCURVE",
"180 354 CURVE SMOOTH",
"303 729 LINE",
"190 729 LINE"
);
}
);
width = 776;
}
);
note = Utilde;
unicode = 0168;
},
{
glyphname = V;
lastChange = "2019-08-23 19:48:00 +0000";
layers = (
{
layerId = "4FCB07EB-01E7-4D87-AA20-FCB2BF85BBFF";
paths = (
{
closed = 1;
nodes = (
"227 0 LINE",
"661 729 LINE",
"567 729 LINE",
"214 214 LINE",
"171 214 LINE",
"143 729 LINE",
"49 729 LINE",
"40 0 LINE"
);
}
);
width = 701;
}
);
note = V;
unicode = 0056;
},
{
glyphname = Gammaafrican;
lastChange = "2019-08-23 19:48:00 +0000";
layers = (
{
layerId = "4FCB07EB-01E7-4D87-AA20-FCB2BF85BBFF";
paths = (
{
closed = 1;
nodes = (
"768 800 LINE",
"752 783 OFFCURVE",
"754 789 OFFCURVE",
"740 772 CURVE SMOOTH",
"627 640 OFFCURVE",
"521 523 OFFCURVE",
"428 420 CURVE",
"407 516 OFFCURVE",
"384 625 OFFCURVE",
"362 749 CURVE",
"357 771 OFFCURVE",
"355 775 OFFCURVE",
"347 800 CURVE",
"201 800 LINE",
"206 780 OFFCURVE",
"216 738 OFFCURVE",
"221 726 CURVE",
"264 552 OFFCURVE",
"301 416 OFFCURVE",
"328 308 CURVE",
"16 -41 OFFCURVE",
"-94 -196 OFFCURVE",
"258 -200 CURVE SMOOTH",
"560 -204 OFFCURVE",
"540 -72 OFFCURVE",
"455 305 CURVE",
"554 412 OFFCURVE",
"683 546 OFFCURVE",
"847 713 CURVE SMOOTH",
"856 723 OFFCURVE",
"919 783 OFFCURVE",
"936 800 CURVE"
);
},
{
closed = 1;
nodes = (
"173 -69 OFFCURVE",
"184 -4 OFFCURVE",
"355 194 CURVE",
"408 -37 OFFCURVE",
"393 -76 OFFCURVE",
"293 -73 CURVE SMOOTH"
);
}
);
width = 976;
}
);
note = uni0194;
unicode = 0194;
},
{
glyphname = Vhook;
lastChange = "2019-08-23 19:48:00 +0000";
layers = (
{
layerId = "4FCB07EB-01E7-4D87-AA20-FCB2BF85BBFF";
paths = (
{
closed = 1;
nodes = (
"729 729 LINE",
"748 818 OFFCURVE",
"700 922 OFFCURVE",
"539 922 CURVE",
"525 869 OFFCURVE",
"521 845 OFFCURVE",
"513 793 CURVE",
"582 793 OFFCURVE",
"615 766 OFFCURVE",
"623 729 CURVE",
"617 729 LINE",
"519 354 LINE SMOOTH",
"463 142 OFFCURVE",
"402 142 OFFCURVE",
"287 142 CURVE SMOOTH",
"171 142 OFFCURVE",
"109 142 OFFCURVE",
"179 354 CURVE SMOOTH",
"304 729 LINE",
"190 729 LINE",
"69 274 LINE SMOOTH",
"-7 -14 OFFCURVE",
"72 -14 OFFCURVE",
"241 -14 CURVE SMOOTH",
"408 -14 OFFCURVE",
"483 -14 OFFCURVE",
"581 274 CURVE SMOOTH",
"736 729 LINE"
);
}
);
width = 776;
}
);
note = uni01B2;
unicode = 01B2;
},
{
glyphname = Vtilde;
lastChange = "2019-08-23 19:48:00 +0000";
layers = (
{
layerId = "4FCB07EB-01E7-4D87-AA20-FCB2BF85BBFF";
paths = (
{
closed = 1;
nodes = (
"256 712 LINE",
"268 755 OFFCURVE",
"288 818 OFFCURVE",
"324 817 CURVE SMOOTH",
"357 816 OFFCURVE",
"344 713 OFFCURVE",
"409 712 CURVE SMOOTH",
"458 711 OFFCURVE",
"488 716 OFFCURVE",
"533 862 CURVE",
"490 862 LINE",
"474 813 OFFCURVE",
"470 762 OFFCURVE",
"424 762 CURVE SMOOTH",
"384 762 OFFCURVE",
"397 862 OFFCURVE",
"337 862 CURVE SMOOTH",
"272 862 OFFCURVE",
"248 829 OFFCURVE",
"206 712 CURVE"
);
},
{
closed = 1;
nodes = (
"227 0 LINE",
"660 729 LINE",
"567 729 LINE",
"214 214 LINE",
"171 214 LINE",
"143 729 LINE",
"49 729 LINE",
"40 0 LINE"
);
}
);
width = 700;
}
);
note = uni1E7C;
unicode = 1E7C;
},
{
glyphname = Vturned;
lastChange = "2019-08-23 19:48:00 +0000";
layers = (
{
layerId = "4FCB07EB-01E7-4D87-AA20-FCB2BF85BBFF";
paths = (
{
closed = 1;
nodes = (
"652 700 LINE",
"466 700 LINE",
"40 -29 LINE",
"135 -29 LINE",
"469 486 LINE",
"512 486 LINE",
"559 -29 LINE",
"652 -29 LINE"
);
}
);
width = 692;
}
);
note = uni0245;
unicode = 0245;
},
{
glyphname = W;
lastChange = "2019-08-23 19:58:39 +0000";
layers = (
{
anchors = (
{
name = bottom;
position = "{497, 0}";
},
{
name = top;
position = "{497, 700}";
}
);
layerId = "4FCB07EB-01E7-4D87-AA20-FCB2BF85BBFF";
paths = (
{
closed = 1;
nodes = (
"40 0 LINE",
"180 0 LINE",
"431 394 LINE",
"436 0 LINE",
"568 0 LINE",
"953 729 LINE",
"865 729 LINE",
"553 196 LINE",
"511 543 LINE",
"432 543 LINE",
"174 206 LINE",
"194 729 LINE",
"107 729 LINE"
);
}
);
width = 993;
}
);
note = W;
unicode = 0057;
},
{
glyphname = Whook;
lastChange = "2019-08-23 19:48:00 +0000";
layers = (
{
layerId = "4FCB07EB-01E7-4D87-AA20-FCB2BF85BBFF";
paths = (
{
closed = 1;
nodes = (
"873 748 OFFCURVE",
"870 738 OFFCURVE",
"869 729 CURVE",
"867 729 LINE",
"554 196 LINE",
"512 543 LINE",
"434 543 LINE",
"176 206 LINE",
"195 729 LINE",
"108 729 LINE",
"40 0 LINE",
"182 0 LINE",
"432 394 LINE",
"438 0 LINE",
"569 0 LINE",
"894 616 LINE",
"918 599 OFFCURVE",
"924 566 OFFCURVE",
"918 530 CURVE SMOOTH",
"913 494 OFFCURVE",
"893 424 OFFCURVE",
"882 388 CURVE",
"970 487 LINE",
"990 554 LINE SMOOTH",
"1017 645 OFFCURVE",
"995 759 OFFCURVE",
"876 759 CURVE"
);
}
);
width = 1040;
}
);
note = uni2C72;
unicode = 2C72;
},
{
glyphname = X;
lastChange = "2019-08-23 19:48:00 +0000";
layers = (
{
layerId = "4FCB07EB-01E7-4D87-AA20-FCB2BF85BBFF";
paths = (
{
closed = 1;
nodes = (
"616 0 LINE",
"495 361 LINE",
"811 730 LINE",
"731 730 LINE",
"466 451 LINE",
"373 729 LINE",
"291 729 LINE",
"382 362 LINE",
"40 2 LINE",
"187 0 LINE",
"407 257 LINE",
"470 0 LINE"
);
}
);
width = 851;
}
);
note = X;
unicode = 0058;
},
{
glyphname = Y;
lastChange = "2019-08-23 19:59:18 +0000";
layers = (
{
anchors = (
{
name = bottom;
position = "{318, 0}";
},
{
name = top;
position = "{318, 719}";
},
{
name = topleft;
position = "{20, 700}";
}
);
layerId = "4FCB07EB-01E7-4D87-AA20-FCB2BF85BBFF";
paths = (
{
closed = 1;
nodes = (
"115 250 LINE",
"40 0 LINE",
"162 0 LINE",
"237 250 LINE",
"596 729 LINE",
"499 729 LINE",
"209 356 LINE",
"140 729 LINE",
"43 729 LINE"
);
}
);
width = 636;
}
);
note = Y;
unicode = 0059;
},
{
glyphname = Ydotbelow;
lastChange = "2019-08-23 19:48:00 +0000";
layers = (
{
layerId = "4FCB07EB-01E7-4D87-AA20-FCB2BF85BBFF";
paths = (
{
closed = 1;
nodes = (
"147 250 LINE",
"72 0 LINE",
"194 0 LINE",
"269 250 LINE",
"628 729 LINE",
"531 729 LINE",
"241 356 LINE",
"172 729 LINE",
"75 729 LINE"
);
},
{
closed = 1;
nodes = (
"70 -59 LINE",
"40 -160 LINE",
"133 -160 LINE",
"163 -59 LINE"
);
}
);
width = 668;
}
);
note = uni1EF4;
unicode = 1EF4;
},
{
glyphname = Yhook;
lastChange = "2019-08-23 19:48:00 +0000";
layers = (
{
layerId = "4FCB07EB-01E7-4D87-AA20-FCB2BF85BBFF";
paths = (
{
closed = 1;
nodes = (
"595 729 LINE",
"592 729 LINE",
"573 748 OFFCURVE",
"544 759 OFFCURVE",
"507 759 CURVE",
"504 748 OFFCURVE",
"500 738 OFFCURVE",
"499 729 CURVE",
"498 729 LINE",
"209 356 LINE",
"139 729 LINE",
"42 729 LINE",
"115 250 LINE",
"40 0 LINE",
"162 0 LINE",
"235 250 LINE",
"515 622 LINE",
"547 607 OFFCURVE",
"554 571 OFFCURVE",
"548 530 CURVE SMOOTH",
"543 494 OFFCURVE",
"523 424 OFFCURVE",
"512 388 CURVE",
"601 487 LINE",
"621 554 LINE SMOOTH",
"639 615 OFFCURVE",
"635 687 OFFCURVE",
"594 728 CURVE"
);
}
);
width = 671;
}
);
note = uni01B3;
unicode = 01B3;
},
{
glyphname = Yhookabove;
lastChange = "2019-08-23 19:48:00 +0000";
layers = (
{
layerId = "4FCB07EB-01E7-4D87-AA20-FCB2BF85BBFF";
paths = (
{
closed = 1;
nodes = (
"313 863 LINE",
"332 871 OFFCURVE",
"348 875 OFFCURVE",
"363 875 CURVE SMOOTH",
"379 875 OFFCURVE",
"389 871 OFFCURVE",
"397 865 CURVE SMOOTH",
"404 859 OFFCURVE",
"405 849 OFFCURVE",
"403 839 CURVE SMOOTH",
"400 829 OFFCURVE",
"391 818 OFFCURVE",
"375 808 CURVE SMOOTH",
"363 801 LINE SMOOTH",
"356 797 OFFCURVE",
"353 794 OFFCURVE",
"352 793 CURVE",
"350 790 OFFCURVE",
"347 786 OFFCURVE",
"346 781 CURVE",
"321 781 LINE",
"322 784 LINE SMOOTH",
"323 790 OFFCURVE",
"327 796 OFFCURVE",
"330 800 CURVE",
"334 805 OFFCURVE",
"339 809 OFFCURVE",
"348 815 CURVE SMOOTH",
"362 824 LINE SMOOTH",
"370 829 OFFCURVE",
"375 835 OFFCURVE",
"376 841 CURVE SMOOTH",
"378 847 OFFCURVE",
"372 855 OFFCURVE",
"351 855 CURVE SMOOTH",
"337 855 OFFCURVE",
"323 850 OFFCURVE",
"306 842 CURVE"
);
},
{
closed = 1;
nodes = (
"115 250 LINE",
"40 0 LINE",
"162 0 LINE",
"237 250 LINE",
"596 729 LINE",
"499 729 LINE",
"209 356 LINE",
"140 729 LINE",
"42 729 LINE"
);
}
);
width = 636;
}
);
note = uni1EF6;
unicode = 1EF6;
},
{
glyphname = Z;
lastChange = "2019-08-23 22:50:31 +0000";
layers = (
{
anchors = (
{
name = bottom;
position = "{437, 0}";
},
{
name = center;
position = "{437, 350}";
},
{
name = top;
position = "{598, 728}";
}
);
layerId = "4FCB07EB-01E7-4D87-AA20-FCB2BF85BBFF";
paths = (
{
closed = 1;
nodes = (
"81 139 LINE",
"40 0 LINE",
"611 6 LINE",
"611 146 LINE",
"196 146 LINE",
"811 606 LINE",
"833 681 LINE",
"309 681 LINE",
"327 604 LINE",
"696 598 LINE"
);
}
);
width = 873;
}
);
note = Z;
unicode = 005A;
},
{
glyphname = Zacute;
lastChange = "2019-08-23 19:48:00 +0000";
layers = (
{
layerId = "4FCB07EB-01E7-4D87-AA20-FCB2BF85BBFF";
paths = (
{
closed = 1;
nodes = (
"631 942 LINE",
"515 788 LINE",
"585 788 LINE",
"677 942 LINE"
);
},
{
closed = 1;
nodes = (
"327 604 LINE",
"309 681 LINE",
"833 681 LINE",
"811 606 LINE",
"196 146 LINE",
"611 146 LINE",
"611 6 LINE",
"40 0 LINE",
"81 139 LINE",
"696 598 LINE"
);
}
);
width = 873;
}
);
note = Zacute;
unicode = 0179;
},
{
glyphname = Zcircumflex;
lastChange = "2019-08-23 19:48:00 +0000";
layers = (
{
layerId = "4FCB07EB-01E7-4D87-AA20-FCB2BF85BBFF";
paths = (
{
closed = 1;
nodes = (
"596 958 LINE",
"537 894 LINE",
"376 763 LINE",
"425 763 LINE",
"587 862 LINE",
"690 763 LINE",
"739 763 LINE",
"657 894 LINE",
"640 958 LINE"
);
},
{
closed = 1;
nodes = (
"327 604 LINE",
"308 681 LINE",
"833 681 LINE",
"812 606 LINE",
"197 146 LINE",
"612 146 LINE",
"612 6 LINE",
"40 0 LINE",
"82 139 LINE",
"696 598 LINE"
);
}
);
width = 873;
}
);
note = uni1E90;
unicode = 1E90;
},
{
glyphname = Zdotaccent;
lastChange = "2019-08-23 19:48:00 +0000";
layers = (
{
layerId = "4FCB07EB-01E7-4D87-AA20-FCB2BF85BBFF";
paths = (
{
closed = 1;
nodes = (
"554 911 LINE",
"524 810 LINE",
"617 810 LINE",
"646 911 LINE"
);
},
{
closed = 1;
nodes = (
"327 604 LINE",
"309 681 LINE",
"833 681 LINE",
"812 606 LINE",
"197 146 LINE",
"612 146 LINE",
"613 6 LINE",
"40 0 LINE",
"82 139 LINE",
"697 598 LINE"
);
}
);
width = 873;
}
);
note = Zdotaccent;
unicode = 017B;
},
{
glyphname = Zdotbelow;
lastChange = "2019-08-23 19:48:00 +0000";
layers = (
{
layerId = "4FCB07EB-01E7-4D87-AA20-FCB2BF85BBFF";
paths = (
{
closed = 1;
nodes = (
"327 604 LINE",
"309 681 LINE",
"833 681 LINE",
"811 606 LINE",
"196 146 LINE",
"611 146 LINE",
"612 6 LINE",
"40 0 LINE",
"81 139 LINE",
"696 598 LINE"
);
},
{
closed = 1;
nodes = (
"271 -59 LINE",
"242 -160 LINE",
"334 -160 LINE",
"364 -59 LINE"
);
}
);
width = 873;
}
);
note = uni1E92;
unicode = 1E92;
},
{
glyphname = Bsmall;
layers = (
{
hints = (
{
horizontal = 1;
place = "{0, 99}";
type = Stem;
},
{
horizontal = 1;
place = "{224, 54}";
type = Stem;
},
{
horizontal = 1;
place = "{424, 45}";
type = Stem;
}
);
layerId = "4FCB07EB-01E7-4D87-AA20-FCB2BF85BBFF";
paths = (
{
closed = 1;
nodes = (
"86 0 LINE",
"236 0 LINE SMOOTH",
"330 0 OFFCURVE",
"388 0 OFFCURVE",
"427.47 132 CURVE SMOOTH",
"446.25 196 OFFCURVE",
"427.64 241 OFFCURVE",
"358.64 254 CURVE",
"406.49 262 OFFCURVE",
"441.57 297 OFFCURVE",
"458.73 354 CURVE SMOOTH",
"480.58 427 OFFCURVE",
"444.28 469 OFFCURVE",
"358.28 469 CURVE SMOOTH",
"227.28 469 LINE"
);
},
{
closed = 1;
nodes = (
"353.89 424 LINE SMOOTH",
"408.89 424 OFFCURVE",
"426.27 391 OFFCURVE",
"412.88 346 CURVE SMOOTH",
"399.26 300 OFFCURVE",
"366.18 278 OFFCURVE",
"311.18 278 CURVE SMOOTH",
"228.18 278 LINE",
"270.89 424 LINE"
);
},
{
closed = 1;
nodes = (
"300.72 224 LINE SMOOTH",
"330.72 224 OFFCURVE",
"353.33 218 OFFCURVE",
"363.1 204 CURVE",
"374.64 189 OFFCURVE",
"379.41 175 OFFCURVE",
"375.64 163 CURVE SMOOTH",
"360.17 109 OFFCURVE",
"324.86 99 OFFCURVE",
"263.86 99 CURVE SMOOTH",
"173.86 99 LINE",
"211.72 224 LINE"
);
}
);
width = 401;
}
);
note = uni0299;
unicode = 0299;
},
{
glyphname = Gsmall;
layers = (
{
hints = (
{
horizontal = 1;
place = "{-9, 107}";
type = Stem;
},
{
horizontal = 1;
place = "{161, 60}";
type = Stem;
},
{
horizontal = 1;
place = "{423, 48}";
type = Stem;
}
);
layerId = "4FCB07EB-01E7-4D87-AA20-FCB2BF85BBFF";
paths = (
{
closed = 1;
nodes = (
"422.93 121 LINE",
"404.24 105 OFFCURVE",
"367.62 98 OFFCURVE",
"328.62 98 CURVE SMOOTH",
"226.62 98 OFFCURVE",
"188.55 128 OFFCURVE",
"218.63 241 CURVE SMOOTH",
"270.8 415 OFFCURVE",
"323.65 423 OFFCURVE",
"425.65 423 CURVE SMOOTH",
"452.65 423 OFFCURVE",
"496.96 420 OFFCURVE",
"536.65 410 CURVE",
"546.42 461 LINE",
"534.11 464 OFFCURVE",
"490.73 471 OFFCURVE",
"435.73 471 CURVE SMOOTH",
"305.73 471 OFFCURVE",
"218.88 437 OFFCURVE",
"156.55 232 CURVE SMOOTH",
"110.46 80 OFFCURVE",
"159.91 -9 OFFCURVE",
"289.91 -9 CURVE SMOOTH",
"349.91 -9 OFFCURVE",
"390.91 -9 OFFCURVE",
"449.22 27 CURVE",
"483.16 161 LINE",
"522.16 161 LINE",
"531.01 221 LINE",
"375.4 240 LINE",
"364.01 182 LINE",
"437.47 171 LINE"
);
}
);
width = 489;
}
);
note = uni0262;
unicode = 0262;
},
{
glyphname = Gsmallhook;
layers = (
{
hints = (
{
horizontal = 1;
place = "{-9, 107}";
type = Stem;
},
{
horizontal = 1;
place = "{166, 65}";
type = Stem;
},
{
horizontal = 1;
place = "{450, 48}";
type = Stem;
},
{
horizontal = 1;
place = "{597, 85}";
type = Stem;
}
);
layerId = "4FCB07EB-01E7-4D87-AA20-FCB2BF85BBFF";
paths = (
{
closed = 1;
nodes = (
"539.32 166 LINE",
"549.33 231 LINE",
"395.18 252 LINE",
"381.64 189 LINE",
"453.87 177 LINE",
"437.4 123 LINE",
"418.48 106 OFFCURVE",
"382.63 98 OFFCURVE",
"343.63 98 CURVE SMOOTH",
"241.63 98 OFFCURVE",
"204.25 131 OFFCURVE",
"238.41 253 CURVE SMOOTH",
"297.04 442 OFFCURVE",
"350.89 450 OFFCURVE",
"452.89 450 CURVE SMOOTH",
"479.89 450 OFFCURVE",
"523.2 447 OFFCURVE",
"562.66 436 CURVE",
"572.67 488 LINE",
"570.67 488 OFFCURVE",
"567.9 489 OFFCURVE",
"565.13 490 CURVE",
"583.06 546 LINE SMOOTH",
"598.14 594 OFFCURVE",
"601.83 597 OFFCURVE",
"658.83 597 CURVE",
"684.45 682 LINE",
"578.68 683 OFFCURVE",
"556.3 677 OFFCURVE",
"518.44 565 CURVE SMOOTH",
"504.44 526 OFFCURVE",
"505.67 527 OFFCURVE",
"495.74 497 CURVE",
"484.97 498 OFFCURVE",
"473.97 498 OFFCURVE",
"461.97 498 CURVE SMOOTH",
"331.97 498 OFFCURVE",
"244.89 463 OFFCURVE",
"176.79 246 CURVE SMOOTH",
"126.62 85 OFFCURVE",
"174.92 -9 OFFCURVE",
"304.92 -9 CURVE SMOOTH",
"364.92 -9 OFFCURVE",
"404.92 -9 OFFCURVE",
"463.23 27 CURVE",
"499.32 166 LINE"
);
}
);
width = 776;
}
);
note = uni029B;
unicode = 029B;
},
{
glyphname = Hsmall;
layers = (
{
hints = (
{
horizontal = 1;
place = "{0, 21}";
target = up;
type = BottomGhost;
},
{
horizontal = 1;
place = "{119, 100}";
type = Stem;
},
{
place = "{242.2, 63}";
type = Stem;
},
{
place = "{511.2, 63}";
type = Stem;
}
);
layerId = "4FCB07EB-01E7-4D87-AA20-FCB2BF85BBFF";
paths = (
{
closed = 1;
nodes = (
"453 0 LINE",
"574.2 473 LINE",
"511.2 473 LINE",
"428.56 219 LINE",
"239.56 219 LINE",
"305.2 473 LINE",
"242.2 473 LINE",
"90 0 LINE",
"182 0 LINE",
"211.47 119 LINE",
"395.47 119 LINE",
"358 0 LINE"
);
}
);
width = 466;
}
);
note = uni029C;
unicode = 029C;
},
{
glyphname = Ismall;
layers = (
{
hints = (
{
horizontal = 1;
place = "{0, 21}";
target = up;
type = BottomGhost;
},
{
place = "{89, 207.43}";
type = Stem;
}
);
layerId = "4FCB07EB-01E7-4D87-AA20-FCB2BF85BBFF";
paths = (
{
closed = 1;
nodes = (
"172 0 LINE",
"203.48 158 OFFCURVE",
"245.88 320 OFFCURVE",
"296.43 474 CURVE",
"231.43 474 LINE",
"220.12 412 OFFCURVE",
"163.86 190 OFFCURVE",
"89 0 CURVE"
);
}
);
width = 182;
}
);
note = uni026A;
unicode = 026A;
},
{
glyphname = Lsmall;
layers = (
{
hints = (
{
horizontal = 1;
place = "{0, 99}";
type = Stem;
},
{
place = "{88, 296.01}";
type = Stem;
}
);
layerId = "4FCB07EB-01E7-4D87-AA20-FCB2BF85BBFF";
paths = (
{
closed = 1;
nodes = (
"88 0 LINE",
"359 0 LINE",
"384.01 104 LINE",
"177.85 99 LINE",
"289.19 473 LINE",
"245.19 473 LINE"
);
}
);
width = 370;
}
);
note = uni029F;
unicode = 029F;
},
{
glyphname = Nsmall;
layers = (
{
hints = (
{
horizontal = 1;
place = "{0, 21}";
target = up;
type = BottomGhost;
}
);
layerId = "4FCB07EB-01E7-4D87-AA20-FCB2BF85BBFF";
paths = (
{
closed = 1;
nodes = (
"88 0 LINE",
"186 0 LINE",
"292.81 402 LINE",
"322 0 LINE",
"417 0 LINE",
"582.66 475 LINE",
"529.66 475 LINE",
"386.01 91 LINE",
"332.51 457 LINE",
"260.51 457 LINE"
);
}
);
width = 454;
}
);
note = uni0274;
unicode = 0274;
},
{
glyphname = OEsmall;
layers = (
{
hints = (
{
horizontal = 1;
place = "{-7, 102}";
type = Stem;
},
{
horizontal = 1;
place = "{412, 49}";
type = Stem;
},
{
horizontal = 1;
place = "{-10, 128}";
type = Stem;
},
{
horizontal = 1;
place = "{430, 48}";
type = Stem;
}
);
layerId = "4FCB07EB-01E7-4D87-AA20-FCB2BF85BBFF";
paths = (
{
closed = 1;
nodes = (
"683.38 -7 LINE",
"696.93 95 LINE",
"505.93 95 LINE",
"541.25 209 LINE",
"682.56 219 LINE",
"698.56 271 LINE",
"556.71 263 LINE",
"597.34 400 LINE",
"789.11 412 LINE",
"816.42 461 LINE",
"559.34 452 LINE",
"545.87 411 LINE",
"525.8 454 OFFCURVE",
"483.34 478 OFFCURVE",
"426.34 478 CURVE SMOOTH",
"309.34 478 OFFCURVE",
"203.18 382 OFFCURVE",
"159.01 234 CURVE SMOOTH",
"98.84 34 OFFCURVE",
"146.14 -8 OFFCURVE",
"278.68 -10 CURVE SMOOTH",
"335.68 -10 OFFCURVE",
"380.3 -3 OFFCURVE",
"416.14 18 CURVE",
"406.37 -7 LINE"
);
},
{
closed = 1;
nodes = (
"237.23 118 OFFCURVE",
"193 143 OFFCURVE",
"220.93 238 CURVE SMOOTH",
"255.48 353 OFFCURVE",
"330.26 430 OFFCURVE",
"412.26 430 CURVE SMOOTH",
"494.26 430 OFFCURVE",
"522.48 353 OFFCURVE",
"487.93 238 CURVE SMOOTH",
"460 143 OFFCURVE",
"401.23 118 OFFCURVE",
"319.23 118 CURVE SMOOTH"
);
}
);
width = 702;
}
);
note = uni0276;
unicode = 0276;
},
{
glyphname = Rsmall;
layers = (
{
hints = (
{
horizontal = 1;
place = "{0, 21}";
target = up;
type = BottomGhost;
},
{
horizontal = 1;
place = "{184, 79}";
type = Stem;
},
{
horizontal = 1;
place = "{440, 36}";
type = Stem;
}
);
layerId = "4FCB07EB-01E7-4D87-AA20-FCB2BF85BBFF";
paths = (
{
closed = 1;
nodes = (
"400.87 242 OFFCURVE",
"436.48 275 OFFCURVE",
"455.03 338 CURVE SMOOTH",
"483.27 430 OFFCURVE",
"446.89 476 OFFCURVE",
"360.89 476 CURVE SMOOTH",
"257.89 476 LINE",
"88 0 LINE",
"179 0 LINE",
"224.48 184 LINE",
"256.63 189 LINE SMOOTH",
"293.25 196 OFFCURVE",
"355.09 191 OFFCURVE",
"330.93 121 CURVE SMOOTH",
"288 0 LINE",
"394 0 LINE",
"398.78 129 LINE SMOOTH",
"401.55 180 OFFCURVE",
"379.02 221 OFFCURVE",
"359.25 235 CURVE"
);
},
{
closed = 1;
nodes = (
"355.58 440 LINE SMOOTH",
"399.58 440 OFFCURVE",
"438.5 418 OFFCURVE",
"413.8 337 CURVE SMOOTH",
"401.56 297 OFFCURVE",
"345.72 263 OFFCURVE",
"301.72 263 CURVE SMOOTH",
"230.72 263 LINE",
"283.58 440 LINE"
);
}
);
width = 407;
}
);
note = uni0280;
unicode = 0280;
},
{
glyphname = Rsmallinverted;
layers = (
{
hints = (
{
horizontal = 1;
place = "{-3, 36}";
type = Stem;
},
{
horizontal = 1;
place = "{210, 79}";
type = Stem;
}
);
layerId = "4FCB07EB-01E7-4D87-AA20-FCB2BF85BBFF";
paths = (
{
closed = 1;
nodes = (
"222.1 230 OFFCURVE",
"186.72 198 OFFCURVE",
"168.17 135 CURVE SMOOTH",
"139.93 43 OFFCURVE",
"176.31 -3 OFFCURVE",
"262.31 -3 CURVE SMOOTH",
"365.31 -3 LINE",
"535.2 473 LINE",
"444.2 473 LINE",
"398.72 289 LINE",
"366.34 283 LINE SMOOTH",
"329.72 276 OFFCURVE",
"267.88 281 OFFCURVE",
"292.04 351 CURVE SMOOTH",
"335.21 473 LINE",
"229.21 473 LINE",
"224.43 344 LINE SMOOTH",
"221.66 293 OFFCURVE",
"243.96 251 OFFCURVE",
"263.73 237 CURVE"
);
},
{
closed = 1;
nodes = (
"267.63 33 LINE SMOOTH",
"223.63 33 OFFCURVE",
"184.71 55 OFFCURVE",
"209.41 136 CURVE SMOOTH",
"221.64 176 OFFCURVE",
"277.49 210 OFFCURVE",
"321.49 210 CURVE SMOOTH",
"392.49 210 LINE",
"339.63 33 LINE"
);
}
);
width = 407;
}
);
note = uni0281;
unicode = 0281;
},
{
glyphname = Ysmall;
layers = (
{
hints = (
{
horizontal = 1;
place = "{0, 21}";
target = up;
type = BottomGhost;
}
);
layerId = "4FCB07EB-01E7-4D87-AA20-FCB2BF85BBFF";
paths = (
{
closed = 1;
nodes = (
"271.4 162 LINE",
"222 0 LINE",
"299 0 LINE",
"347.4 162 LINE",
"577.97 472 LINE",
"516.97 472 LINE",
"331.33 231 LINE",
"290.97 472 LINE",
"229.97 472 LINE"
);
}
);
width = 452;
}
);
note = uni028F;
unicode = 028F;
},
{
glyphname = a;
lastChange = "2019-08-23 20:19:48 +0000";
layers = (
{
anchors = (
{
name = bottom;
position = "{288, 0}";
},
{
name = ogonek;
position = "{518, 10}";
},
{
name = top;
position = "{353, 583}";
}
);
hints = (
{
horizontal = 1;
place = "{-14, 163}";
type = Stem;
},
{
horizontal = 1;
place = "{471, 65}";
type = Stem;
},
{
horizontal = 1;
place = "{-2, 21}";
target = up;
type = BottomGhost;
}
);
layerId = "4FCB07EB-01E7-4D87-AA20-FCB2BF85BBFF";
paths = (
{
closed = 1;
nodes = (
"450 440 LINE",
"439 505 OFFCURVE",
"400 536 OFFCURVE",
"332 536 CURVE SMOOTH",
"221 536 OFFCURVE",
"109 421 OFFCURVE",
"63 273 CURVE SMOOTH",
"9 101 OFFCURVE",
"27 -20 OFFCURVE",
"161 -14 CURVE SMOOTH",
"229 -11 OFFCURVE",
"289 17 OFFCURVE",
"340 82 CURVE",
"314 0 LINE",
"393 -2 LINE",
"456 235 LINE",
"564 547 LINE",
"485 537 LINE"
);
},
{
closed = 1;
nodes = (
"153 391 OFFCURVE",
"226 471 OFFCURVE",
"307 471 CURVE SMOOTH",
"387 471 OFFCURVE",
"404 398 OFFCURVE",
"371 290 CURVE SMOOTH",
"334 169 OFFCURVE",
"285 149 OFFCURVE",
"205 149 CURVE SMOOTH",
"125 149 OFFCURVE",
"91 188 OFFCURVE",
"120 283 CURVE SMOOTH"
);
}
);
width = 575;
}
);
note = a;
unicode = 0061;
},
{
glyphname = abreve;
layers = (
{
hints = (
{
horizontal = 1;
place = "{476, 49}";
type = Stem;
},
{
horizontal = 1;
place = "{605, 95}";
type = Stem;
},
{
horizontal = 1;
place = "{802, -20}";
target = down;
type = TopGhost;
},
{
place = "{411.16, 57}";
type = Stem;
},
{
place = "{689.16, 57}";
type = Stem;
},
{
horizontal = 1;
place = "{0, 21}";
target = up;
type = BottomGhost;
},
{
horizontal = 1;
place = "{-14, 152}";
type = Stem;
}
);
layerId = "4FCB07EB-01E7-4D87-AA20-FCB2BF85BBFF";
paths = (
{
closed = 1;
nodes = (
"603.67 605 OFFCURVE",
"708.75 679 OFFCURVE",
"746.15 802 CURVE",
"689.15 802 LINE",
"662.06 715 OFFCURVE",
"622.6 700 OFFCURVE",
"543.6 700 CURVE SMOOTH",
"476.6 700 OFFCURVE",
"440.83 714 OFFCURVE",
"468.15 802 CURVE",
"411.15 802 LINE",
"373.75 679 OFFCURVE",
"422.67 605 OFFCURVE",
"513.67 605 CURVE SMOOTH"
);
},
{
closed = 1;
nodes = (
"557 0 LINE",
"660.21 525 LINE",
"617.21 525 LINE",
"602.97 446 LINE",
"590.36 504 OFFCURVE",
"539.21 525 OFFCURVE",
"479.21 525 CURVE SMOOTH",
"401.21 525 OFFCURVE",
"290.27 404 OFFCURVE",
"216.95 251 CURVE SMOOTH",
"146.32 101 OFFCURVE",
"178.77 -14 OFFCURVE",
"311.77 -14 CURVE SMOOTH",
"379.77 -14 OFFCURVE",
"451.93 17 OFFCURVE",
"503.93 82 CURVE",
"478 0 LINE"
);
},
{
closed = 1;
nodes = (
"223.86 138 OFFCURVE",
"226.4 175 OFFCURVE",
"289.34 296 CURVE SMOOTH",
"361.2 434 OFFCURVE",
"411.9 476 OFFCURVE",
"463.9 476 CURVE SMOOTH",
"520.9 476 OFFCURVE",
"603.44 448 OFFCURVE",
"557.04 299 CURVE SMOOTH",
"517.26 170 OFFCURVE",
"502.87 138 OFFCURVE",
"349.87 138 CURVE SMOOTH"
);
}
);
width = 570;
}
);
note = abreve;
unicode = 0103;
},
{
glyphname = abreveacute;
layers = (
{
hints = (
{
horizontal = 1;
place = "{476, 49}";
type = Stem;
},
{
horizontal = 1;
place = "{605, 95}";
type = Stem;
},
{
horizontal = 1;
place = "{802, -20}";
target = down;
type = TopGhost;
},
{
place = "{427.16, 57}";
type = Stem;
},
{
place = "{706.16, 57}";
type = Stem;
},
{
horizontal = 1;
place = "{0, 21}";
target = up;
type = BottomGhost;
},
{
horizontal = 1;
place = "{-14, 152}";
type = Stem;
}
);
layerId = "4FCB07EB-01E7-4D87-AA20-FCB2BF85BBFF";
paths = (
{
closed = 1;
nodes = (
"720.33 1015 LINE",
"677.33 1015 LINE",
"566.78 861 LINE",
"629.78 861 LINE"
);
},
{
closed = 1;
nodes = (
"620.68 605 OFFCURVE",
"725.76 679 OFFCURVE",
"763.16 802 CURVE",
"706.16 802 LINE",
"679.07 715 OFFCURVE",
"638.61 700 OFFCURVE",
"559.61 700 CURVE SMOOTH",
"492.61 700 OFFCURVE",
"456.84 714 OFFCURVE",
"484.16 802 CURVE",
"427.16 802 LINE",
"389.76 679 OFFCURVE",
"439.68 605 OFFCURVE",
"530.68 605 CURVE SMOOTH"
);
},
{
closed = 1;
nodes = (
"572.01 0 LINE",
"677.22 525 LINE",
"634.22 525 LINE",
"618.98 446 LINE",
"606.37 504 OFFCURVE",
"556.22 525 OFFCURVE",
"496.22 525 CURVE SMOOTH",
"418.22 525 OFFCURVE",
"306.28 404 OFFCURVE",
"232.96 251 CURVE SMOOTH",
"162.33 101 OFFCURVE",
"195.78 -14 OFFCURVE",
"328.78 -14 CURVE SMOOTH",
"396.78 -14 OFFCURVE",
"466.94 17 OFFCURVE",
"518.94 82 CURVE",
"494.01 0 LINE"
);
},
{
closed = 1;
nodes = (
"239.87 138 OFFCURVE",
"242.41 175 OFFCURVE",
"305.35 296 CURVE SMOOTH",
"377.21 434 OFFCURVE",
"427.91 476 OFFCURVE",
"479.91 476 CURVE SMOOTH",
"536.91 476 OFFCURVE",
"618.45 448 OFFCURVE",
"572.05 299 CURVE SMOOTH",
"532.27 170 OFFCURVE",
"518.88 138 OFFCURVE",
"365.88 138 CURVE SMOOTH"
);
}
);
width = 570;
}
);
note = uni1EAF;
unicode = 1EAF;
},
{
glyphname = abrevedotbelow;
layers = (
{
hints = (
{
horizontal = 1;
place = "{-150, 101}";
type = Stem;
},
{
horizontal = 1;
place = "{476, 49}";
type = Stem;
},
{
horizontal = 1;
place = "{605, 95}";
type = Stem;
},
{
horizontal = 1;
place = "{802, -20}";
target = down;
type = TopGhost;
},
{
place = "{400.16, 57}";
type = Stem;
},
{
place = "{679.16, 57}";
type = Stem;
},
{
horizontal = 1;
place = "{0, 21}";
target = up;
type = BottomGhost;
},
{
horizontal = 1;
place = "{-14, 152}";
type = Stem;
}
);
layerId = "4FCB07EB-01E7-4D87-AA20-FCB2BF85BBFF";
paths = (
{
closed = 1;
nodes = (
"593.67 605 OFFCURVE",
"698.76 679 OFFCURVE",
"736.15 802 CURVE",
"679.15 802 LINE",
"652.06 715 OFFCURVE",
"611.6 700 OFFCURVE",
"532.6 700 CURVE SMOOTH",
"465.6 700 OFFCURVE",
"429.83 714 OFFCURVE",
"457.15 802 CURVE",
"400.15 802 LINE",
"362.75 679 OFFCURVE",
"412.67 605 OFFCURVE",
"503.67 605 CURVE SMOOTH"
);
},
{
closed = 1;
nodes = (
"547 0 LINE",
"650.21 525 LINE",
"607.21 525 LINE",
"592.97 446 LINE",
"580.36 504 OFFCURVE",
"529.21 525 OFFCURVE",
"469.21 525 CURVE SMOOTH",
"391.21 525 OFFCURVE",
"280.27 404 OFFCURVE",
"206.95 251 CURVE SMOOTH",
"136.32 101 OFFCURVE",
"168.77 -14 OFFCURVE",
"301.77 -14 CURVE SMOOTH",
"369.77 -14 OFFCURVE",
"440.93 17 OFFCURVE",
"492.93 82 CURVE",
"468 0 LINE"
);
},
{
closed = 1;
nodes = (
"212.86 138 OFFCURVE",
"215.4 175 OFFCURVE",
"278.34 296 CURVE SMOOTH",
"350.2 434 OFFCURVE",
"400.9 476 OFFCURVE",
"452.9 476 CURVE SMOOTH",
"509.9 476 OFFCURVE",
"592.44 448 OFFCURVE",
"546.04 299 CURVE SMOOTH",
"506.26 170 OFFCURVE",
"491.87 138 OFFCURVE",
"338.87 138 CURVE SMOOTH"
);
},
{
closed = 1;
nodes = (
"227.38 -150 LINE",
"314.38 -150 LINE",
"346.7 -49 LINE",
"258.7 -49 LINE"
);
}
);
width = 570;
}
);
note = uni1EB7;
unicode = 1EB7;
},
{
glyphname = abrevegrave;
layers = (
{
hints = (
{
horizontal = 1;
place = "{476, 49}";
type = Stem;
},
{
horizontal = 1;
place = "{605, 95}";
type = Stem;
},
{
horizontal = 1;
place = "{802, 21}";
target = up;
type = BottomGhost;
},
{
place = "{420.16, 57}";
type = Stem;
},
{
place = "{699.16, 58}";
type = Stem;
},
{
horizontal = 1;
place = "{802, -20}";
target = down;
type = TopGhost;
},
{
horizontal = 1;
place = "{0, 21}";
target = up;
type = BottomGhost;
},
{
horizontal = 1;
place = "{-14, 152}";
type = Stem;
}
);
layerId = "4FCB07EB-01E7-4D87-AA20-FCB2BF85BBFF";
paths = (
{
closed = 1;
nodes = (
"676.16 802 LINE",
"571.48 929 LINE",
"504.48 929 LINE",
"568.62 817 LINE"
);
},
{
closed = 1;
nodes = (
"613.68 605 OFFCURVE",
"719.76 679 OFFCURVE",
"757.16 802 CURVE",
"699.16 802 LINE",
"672.07 715 OFFCURVE",
"632.61 700 OFFCURVE",
"553.61 700 CURVE SMOOTH",
"486.61 700 OFFCURVE",
"449.84 714 OFFCURVE",
"477.16 802 CURVE",
"420.16 802 LINE",
"382.76 679 OFFCURVE",
"432.68 605 OFFCURVE",
"523.68 605 CURVE SMOOTH"
);
},
{
closed = 1;
nodes = (
"566.01 0 LINE",
"670.22 525 LINE",
"627.22 525 LINE",
"612.98 446 LINE",
"600.37 504 OFFCURVE",
"550.22 525 OFFCURVE",
"490.22 525 CURVE SMOOTH",
"412.22 525 OFFCURVE",
"299.28 404 OFFCURVE",
"225.96 251 CURVE SMOOTH",
"155.33 101 OFFCURVE",
"189.78 -14 OFFCURVE",
"322.78 -14 CURVE SMOOTH",
"390.78 -14 OFFCURVE",
"460.94 17 OFFCURVE",
"512.94 82 CURVE",
"488.01 0 LINE"
);
},
{
closed = 1;
nodes = (
"232.87 138 OFFCURVE",
"235.41 175 OFFCURVE",
"298.35 296 CURVE SMOOTH",
"370.21 434 OFFCURVE",
"420.91 476 OFFCURVE",
"472.91 476 CURVE SMOOTH",
"529.91 476 OFFCURVE",
"612.45 448 OFFCURVE",
"566.05 299 CURVE SMOOTH",
"526.27 170 OFFCURVE",
"512.88 138 OFFCURVE",
"358.88 138 CURVE SMOOTH"
);
}
);
width = 570;
}
);
note = uni1EB1;
unicode = 1EB1;
},
{
glyphname = abrevehookabove;
layers = (
{
hints = (
{
horizontal = 1;
place = "{476, 49}";
type = Stem;
},
{
horizontal = 1;
place = "{610, 95}";
type = Stem;
},
{
horizontal = 1;
place = "{803, 21}";
target = up;
type = BottomGhost;
},
{
horizontal = 1;
place = "{877, 20}";
type = Stem;
},
{
place = "{423.31, 57}";
type = Stem;
},
{
place = "{578.39, 23}";
type = Stem;
},
{
place = "{702.31, 57}";
type = Stem;
},
{
horizontal = 1;
place = "{807, -20}";
target = down;
type = TopGhost;
},
{
horizontal = 1;
place = "{0, 21}";
target = up;
type = BottomGhost;
},
{
horizontal = 1;
place = "{-14, 152}";
type = Stem;
}
);
layerId = "4FCB07EB-01E7-4D87-AA20-FCB2BF85BBFF";
paths = (
{
closed = 1;
nodes = (
"627.86 857 OFFCURVE",
"623.47 851 OFFCURVE",
"616.32 846 CURVE SMOOTH",
"604.24 837 LINE SMOOTH",
"595.86 831 OFFCURVE",
"589.93 827 OFFCURVE",
"585.78 822 CURVE",
"583.86 818 OFFCURVE",
"580.47 812 OFFCURVE",
"578.09 806 CURVE",
"578.4 803 LINE",
"601.4 803 LINE",
"603.55 808 OFFCURVE",
"604.48 812 OFFCURVE",
"606.17 815 CURVE",
"607.4 816 OFFCURVE",
"611.09 819 OFFCURVE",
"617.02 823 CURVE SMOOTH",
"627.64 830 LINE SMOOTH",
"642.95 840 OFFCURVE",
"651.49 851 OFFCURVE",
"654.8 861 CURVE SMOOTH",
"658.11 871 OFFCURVE",
"656.42 881 OFFCURVE",
"649.8 887 CURVE SMOOTH",
"643.18 893 OFFCURVE",
"635.11 897 OFFCURVE",
"620.11 897 CURVE SMOOTH",
"606.11 897 OFFCURVE",
"591.19 893 OFFCURVE",
"573.34 885 CURVE",
"565.49 864 LINE",
"581.34 872 OFFCURVE",
"594.49 877 OFFCURVE",
"607.49 877 CURVE SMOOTH",
"627.49 877 OFFCURVE",
"632.64 869 OFFCURVE",
"630.26 863 CURVE SMOOTH"
);
},
{
closed = 1;
nodes = (
"616.85 610 OFFCURVE",
"721.93 684 OFFCURVE",
"759.33 807 CURVE",
"702.33 807 LINE",
"675.24 720 OFFCURVE",
"634.78 705 OFFCURVE",
"555.78 705 CURVE SMOOTH",
"488.78 705 OFFCURVE",
"453.01 719 OFFCURVE",
"480.33 807 CURVE",
"423.33 807 LINE",
"385.93 684 OFFCURVE",
"435.85 610 OFFCURVE",
"526.85 610 CURVE SMOOTH"
);
},
{
closed = 1;
nodes = (
"564.02 0 LINE",
"668.23 525 LINE",
"624.23 525 LINE",
"609.99 446 LINE",
"597.38 504 OFFCURVE",
"547.23 525 OFFCURVE",
"487.23 525 CURVE SMOOTH",
"409.23 525 OFFCURVE",
"297.29 404 OFFCURVE",
"223.97 251 CURVE SMOOTH",
"153.34 101 OFFCURVE",
"186.79 -14 OFFCURVE",
"319.79 -14 CURVE SMOOTH",
"387.79 -14 OFFCURVE",
"458.95 17 OFFCURVE",
"510.95 82 CURVE",
"485.02 0 LINE"
);
},
{
closed = 1;
nodes = (
"230.88 138 OFFCURVE",
"233.42 175 OFFCURVE",
"296.36 296 CURVE SMOOTH",
"368.22 434 OFFCURVE",
"418.92 476 OFFCURVE",
"470.92 476 CURVE SMOOTH",
"527.92 476 OFFCURVE",
"610.46 448 OFFCURVE",
"564.06 299 CURVE SMOOTH",
"524.28 170 OFFCURVE",
"509.89 138 OFFCURVE",
"356.89 138 CURVE SMOOTH"
);
}
);
width = 571;
}
);
note = uni1EB3;
unicode = 1EB3;
},
{
glyphname = abrevetilde;
layers = (
{
hints = (
{
horizontal = 1;
place = "{476, 49}";
type = Stem;
},
{
horizontal = 1;
place = "{605, 95}";
type = Stem;
},
{
horizontal = 1;
place = "{802, -20}";
target = down;
type = TopGhost;
},
{
horizontal = 1;
place = "{814, 50}";
type = Stem;
},
{
horizontal = 1;
place = "{919, 45}";
type = Stem;
},
{
place = "{424.16, 57}";
type = Stem;
},
{
place = "{705.16, 57}";
type = Stem;
},
{
horizontal = 1;
place = "{0, 21}";
target = up;
type = BottomGhost;
},
{
horizontal = 1;
place = "{-14, 152}";
type = Stem;
}
);
layerId = "4FCB07EB-01E7-4D87-AA20-FCB2BF85BBFF";
paths = (
{
closed = 1;
nodes = (
"607.94 918 OFFCURVE",
"591.16 815 OFFCURVE",
"651.93 814 CURVE SMOOTH",
"696.7 813 OFFCURVE",
"724.85 818 OFFCURVE",
"771.56 964 CURVE",
"731.56 964 LINE",
"715.25 915 OFFCURVE",
"708.47 864 OFFCURVE",
"666.47 864 CURVE SMOOTH",
"629.47 864 OFFCURVE",
"644.56 964 OFFCURVE",
"588.56 964 CURVE SMOOTH",
"528.56 964 OFFCURVE",
"505.94 931 OFFCURVE",
"462.93 814 CURVE",
"510.93 814 LINE",
"523.86 857 OFFCURVE",
"543.4 920 OFFCURVE",
"576.17 919 CURVE SMOOTH"
);
},
{
closed = 1;
nodes = (
"618.68 605 OFFCURVE",
"724.76 679 OFFCURVE",
"762.16 802 CURVE",
"705.16 802 LINE",
"678.07 715 OFFCURVE",
"637.61 700 OFFCURVE",
"557.61 700 CURVE SMOOTH",
"490.61 700 OFFCURVE",
"454.84 714 OFFCURVE",
"481.16 802 CURVE",
"424.16 802 LINE",
"386.76 679 OFFCURVE",
"435.68 605 OFFCURVE",
"527.68 605 CURVE SMOOTH"
);
},
{
closed = 1;
nodes = (
"572.01 0 LINE",
"675.22 525 LINE",
"632.22 525 LINE",
"617.98 446 LINE",
"604.37 504 OFFCURVE",
"555.22 525 OFFCURVE",
"494.22 525 CURVE SMOOTH",
"416.22 525 OFFCURVE",
"302.28 404 OFFCURVE",
"228.96 251 CURVE SMOOTH",
"158.33 101 OFFCURVE",
"192.78 -14 OFFCURVE",
"326.78 -14 CURVE SMOOTH",
"394.78 -14 OFFCURVE",
"464.94 17 OFFCURVE",
"517.94 82 CURVE",
"493.01 0 LINE"
);
},
{
closed = 1;
nodes = (
"236.87 138 OFFCURVE",
"239.41 175 OFFCURVE",
"302.35 296 CURVE SMOOTH",
"374.21 434 OFFCURVE",
"424.91 476 OFFCURVE",
"476.91 476 CURVE SMOOTH",
"533.91 476 OFFCURVE",
"617.45 448 OFFCURVE",
"571.05 299 CURVE SMOOTH",
"531.27 170 OFFCURVE",
"517.88 138 OFFCURVE",
"363.88 138 CURVE SMOOTH"
);
}
);
width = 574;
}
);
note = uni1EB5;
unicode = 1EB5;
},
{
glyphname = acircumflexacute;
layers = (
{
hints = (
{
horizontal = 1;
place = "{476, 49}";
type = Stem;
},
{
horizontal = 1;
place = "{810, -20}";
target = down;
type = TopGhost;
},
{
horizontal = 1;
place = "{-14, 152}";
type = Stem;
},
{
horizontal = 1;
place = "{0, 21}";
target = up;
type = BottomGhost;
}
);
layerId = "4FCB07EB-01E7-4D87-AA20-FCB2BF85BBFF";
paths = (
{
closed = 1;
nodes = (
"796.16 841 LINE",
"684.61 687 LINE",
"748.61 687 LINE",
"840.16 841 LINE"
);
},
{
closed = 1;
nodes = (
"566 810 LINE",
"509.22 746 LINE",
"356.98 615 LINE",
"401.98 615 LINE",
"552.84 714 LINE",
"644.98 615 LINE",
"689.98 615 LINE",
"619.22 746 LINE",
"607 810 LINE"
);
},
{
closed = 1;
nodes = (
"601.96 446 LINE",
"589.35 504 OFFCURVE",
"540.2 525 OFFCURVE",
"480.2 525 CURVE SMOOTH",
"403.2 525 OFFCURVE",
"291.26 404 OFFCURVE",
"217.94 251 CURVE SMOOTH",
"147.31 101 OFFCURVE",
"179.76 -14 OFFCURVE",
"312.76 -14 CURVE SMOOTH",
"380.76 -14 OFFCURVE",
"449.92 17 OFFCURVE",
"501.92 82 CURVE",
"476.99 0 LINE",
"554.99 0 LINE",
"659.2 525 LINE",
"617.2 525 LINE"
);
},
{
closed = 1;
nodes = (
"362.19 434 OFFCURVE",
"412.89 476 OFFCURVE",
"463.89 476 CURVE SMOOTH",
"519.89 476 OFFCURVE",
"601.43 448 OFFCURVE",
"555.03 299 CURVE SMOOTH",
"515.25 170 OFFCURVE",
"500.86 138 OFFCURVE",
"348.86 138 CURVE SMOOTH",
"223.86 138 OFFCURVE",
"227.4 175 OFFCURVE",
"290.34 296 CURVE SMOOTH"
);
}
);
width = 568;
}
);
note = uni1EA5;
unicode = 1EA5;
},
{
glyphname = acircumflexdotbelow;
layers = (
{
hints = (
{
horizontal = 1;
place = "{-150, 101}";
type = Stem;
},
{
horizontal = 1;
place = "{476, 49}";
type = Stem;
},
{
horizontal = 1;
place = "{810, -20}";
target = down;
type = TopGhost;
},
{
horizontal = 1;
place = "{-14, 152}";
type = Stem;
},
{
horizontal = 1;
place = "{0, 21}";
target = up;
type = BottomGhost;
}
);
layerId = "4FCB07EB-01E7-4D87-AA20-FCB2BF85BBFF";
paths = (
{
closed = 1;
nodes = (
"553 810 LINE",
"496.22 746 LINE",
"343.98 615 LINE",
"388.98 615 LINE",
"540.84 714 LINE",
"631.98 615 LINE",
"676.98 615 LINE",
"607.22 746 LINE",
"594 810 LINE"
);
},
{
closed = 1;
nodes = (
"588.96 446 LINE",
"576.35 504 OFFCURVE",
"527.2 525 OFFCURVE",
"467.2 525 CURVE SMOOTH",
"390.2 525 OFFCURVE",
"279.26 404 OFFCURVE",
"205.94 251 CURVE SMOOTH",
"135.31 101 OFFCURVE",
"166.76 -14 OFFCURVE",
"299.76 -14 CURVE SMOOTH",
"367.76 -14 OFFCURVE",
"436.92 17 OFFCURVE",
"488.92 82 CURVE",
"463.99 0 LINE",
"541.99 0 LINE",
"646.2 525 LINE",
"604.2 525 LINE"
);
},
{
closed = 1;
nodes = (
"349.19 434 OFFCURVE",
"399.89 476 OFFCURVE",
"450.89 476 CURVE SMOOTH",
"506.89 476 OFFCURVE",
"588.43 448 OFFCURVE",
"542.03 299 CURVE SMOOTH",
"502.25 170 OFFCURVE",
"488.86 138 OFFCURVE",
"336.86 138 CURVE SMOOTH",
"211.86 138 OFFCURVE",
"214.4 175 OFFCURVE",
"277.34 296 CURVE SMOOTH"
);
},
{
closed = 1;
nodes = (
"257.69 -49 LINE",
"226.37 -150 LINE",
"311.37 -150 LINE",
"342.69 -49 LINE"
);
}
);
width = 568;
}
);
note = uni1EAD;
unicode = 1EAD;
},
{
glyphname = acircumflexgrave;
layers = (
{
hints = (
{
horizontal = 1;
place = "{476, 49}";
type = Stem;
},
{
horizontal = 1;
place = "{712, 21}";
target = up;
type = BottomGhost;
},
{
horizontal = 1;
place = "{810, -20}";
target = down;
type = TopGhost;
},
{
horizontal = 1;
place = "{-14, 152}";
type = Stem;
},
{
horizontal = 1;
place = "{0, 21}";
target = up;
type = BottomGhost;
}
);
layerId = "4FCB07EB-01E7-4D87-AA20-FCB2BF85BBFF";
paths = (
{
closed = 1;
nodes = (
"749.84 727 LINE",
"860.38 712 LINE",
"753.7 839 LINE",
"686.7 839 LINE"
);
},
{
closed = 1;
nodes = (
"566 810 LINE",
"509.22 746 LINE",
"356.98 615 LINE",
"401.98 615 LINE",
"553.84 714 LINE",
"644.98 615 LINE",
"689.98 615 LINE",
"619.22 746 LINE",
"607 810 LINE"
);
},
{
closed = 1;
nodes = (
"602.96 446 LINE",
"590.35 504 OFFCURVE",
"540.2 525 OFFCURVE",
"480.2 525 CURVE SMOOTH",
"403.2 525 OFFCURVE",
"291.26 404 OFFCURVE",
"217.94 251 CURVE SMOOTH",
"147.31 101 OFFCURVE",
"179.76 -14 OFFCURVE",
"312.76 -14 CURVE SMOOTH",
"380.76 -14 OFFCURVE",
"450.92 17 OFFCURVE",
"502.92 82 CURVE",
"476.99 0 LINE",
"555.99 0 LINE",
"659.2 525 LINE",
"617.2 525 LINE"
);
},
{
closed = 1;
nodes = (
"362.19 434 OFFCURVE",
"412.89 476 OFFCURVE",
"463.89 476 CURVE SMOOTH",
"519.89 476 OFFCURVE",
"602.43 448 OFFCURVE",
"556.03 299 CURVE SMOOTH",
"516.25 170 OFFCURVE",
"501.86 138 OFFCURVE",
"349.86 138 CURVE SMOOTH",
"224.86 138 OFFCURVE",
"227.4 175 OFFCURVE",
"290.34 296 CURVE SMOOTH"
);
}
);
width = 568;
}
);
note = uni1EA7;
unicode = 1EA7;
},
{
glyphname = acircumflexhookabove;
layers = (
{
hints = (
{
horizontal = 1;
place = "{476, 49}";
type = Stem;
},
{
horizontal = 1;
place = "{776, 20}";
type = Stem;
},
{
horizontal = 1;
place = "{-14, 152}";
type = Stem;
},
{
horizontal = 1;
place = "{0, 21}";
target = up;
type = BottomGhost;
}
);
layerId = "4FCB07EB-01E7-4D87-AA20-FCB2BF85BBFF";
paths = (
{
closed = 1;
nodes = (
"612 784 LINE",
"629.85 792 OFFCURVE",
"644.77 796 OFFCURVE",
"658.77 796 CURVE SMOOTH",
"673.77 796 OFFCURVE",
"683.85 792 OFFCURVE",
"690.46 786 CURVE SMOOTH",
"697.08 780 OFFCURVE",
"699.77 770 OFFCURVE",
"696.46 760 CURVE SMOOTH",
"693.15 750 OFFCURVE",
"684.61 739 OFFCURVE",
"669.3 729 CURVE",
"657.68 722 LINE",
"651.76 718 OFFCURVE",
"649.06 715 OFFCURVE",
"647.83 714 CURVE",
"646.14 711 OFFCURVE",
"644.21 707 OFFCURVE",
"642.06 702 CURVE",
"617.06 702 LINE",
"618.75 705 LINE",
"621.14 711 OFFCURVE",
"624.52 717 OFFCURVE",
"626.44 721 CURVE",
"630.59 726 OFFCURVE",
"634.52 730 OFFCURVE",
"643.9 736 CURVE SMOOTH",
"656.98 745 LINE SMOOTH",
"664.13 750 OFFCURVE",
"668.52 756 OFFCURVE",
"670.9 762 CURVE SMOOTH",
"673.28 768 OFFCURVE",
"668.13 776 OFFCURVE",
"648.13 776 CURVE SMOOTH",
"635.13 776 OFFCURVE",
"621.98 771 OFFCURVE",
"606.13 763 CURVE"
);
},
{
closed = 1;
nodes = (
"508.05 741 LINE",
"451.27 677 LINE",
"299.03 546 LINE",
"344.03 546 LINE",
"494.89 645 LINE",
"587.03 546 LINE",
"633.03 546 LINE",
"562.27 677 LINE",
"549.05 741 LINE"
);
},
{
closed = 1;
nodes = (
"554.94 446 LINE",
"542.33 504 OFFCURVE",
"492.18 525 OFFCURVE",
"432.18 525 CURVE SMOOTH",
"355.18 525 OFFCURVE",
"242.24 404 OFFCURVE",
"168.92 251 CURVE SMOOTH",
"98.29 101 OFFCURVE",
"131.74 -14 OFFCURVE",
"264.74 -14 CURVE SMOOTH",
"332.74 -14 OFFCURVE",
"402.9 17 OFFCURVE",
"454.9 82 CURVE",
"429.97 0 LINE",
"507.97 0 LINE",
"612.18 525 LINE",
"569.18 525 LINE"
);
},
{
closed = 1;
nodes = (
"313.17 434 OFFCURVE",
"365.87 476 OFFCURVE",
"416.87 476 CURVE SMOOTH",
"473.87 476 OFFCURVE",
"554.41 448 OFFCURVE",
"508.01 299 CURVE SMOOTH",
"468.23 170 OFFCURVE",
"454.84 138 OFFCURVE",
"301.84 138 CURVE SMOOTH",
"176.84 138 OFFCURVE",
"178.38 175 OFFCURVE",
"241.32 296 CURVE SMOOTH"
);
}
);
width = 480;
}
);
note = uni1EA9;
unicode = 1EA9;
},
{
glyphname = acircumflextilde;
layers = (
{
hints = (
{
horizontal = 1;
place = "{476, 49}";
type = Stem;
},
{
horizontal = 1;
place = "{858, 50}";
type = Stem;
},
{
horizontal = 1;
place = "{963, 45}";
type = Stem;
},
{
horizontal = 1;
place = "{-14, 152}";
type = Stem;
},
{
horizontal = 1;
place = "{0, 21}";
target = up;
type = BottomGhost;
}
);
layerId = "4FCB07EB-01E7-4D87-AA20-FCB2BF85BBFF";
paths = (
{
closed = 1;
nodes = (
"544.08 858 LINE",
"557.01 901 OFFCURVE",
"577.55 964 OFFCURVE",
"610.32 963 CURVE SMOOTH",
"642.09 962 OFFCURVE",
"625.31 859 OFFCURVE",
"686.08 858 CURVE SMOOTH",
"730.85 857 OFFCURVE",
"759 862 OFFCURVE",
"805.71 1008 CURVE",
"764.71 1008 LINE",
"748.4 959 OFFCURVE",
"740.62 908 OFFCURVE",
"698.62 908 CURVE SMOOTH",
"661.62 908 OFFCURVE",
"678.71 1008 OFFCURVE",
"622.71 1008 CURVE SMOOTH",
"562.71 1008 OFFCURVE",
"539.09 975 OFFCURVE",
"496.08 858 CURVE"
);
},
{
closed = 1;
nodes = (
"587 823 LINE",
"530.22 759 LINE",
"375.98 628 LINE",
"421.98 628 LINE",
"574.84 727 LINE",
"666.98 628 LINE",
"712.98 628 LINE",
"641.22 759 LINE",
"627 823 LINE"
);
},
{
closed = 1;
nodes = (
"617.96 446 LINE",
"605.35 504 OFFCURVE",
"555.2 525 OFFCURVE",
"495.2 525 CURVE SMOOTH",
"417.2 525 OFFCURVE",
"304.26 404 OFFCURVE",
"230.94 251 CURVE SMOOTH",
"160.31 101 OFFCURVE",
"193.76 -14 OFFCURVE",
"327.76 -14 CURVE SMOOTH",
"395.76 -14 OFFCURVE",
"466.92 17 OFFCURVE",
"518.92 82 CURVE",
"492.99 0 LINE",
"571.99 0 LINE",
"675.2 525 LINE",
"632.2 525 LINE"
);
},
{
closed = 1;
nodes = (
"376.19 434 OFFCURVE",
"426.89 476 OFFCURVE",
"478.89 476 CURVE SMOOTH",
"535.89 476 OFFCURVE",
"618.43 448 OFFCURVE",
"572.03 299 CURVE SMOOTH",
"532.25 170 OFFCURVE",
"517.86 138 OFFCURVE",
"364.86 138 CURVE SMOOTH",
"238.86 138 OFFCURVE",
"241.4 175 OFFCURVE",
"304.34 296 CURVE SMOOTH"
);
}
);
width = 572;
}
);
note = uni1EAB;
unicode = 1EAB;
},
{
glyphname = adieresismacron;
layers = (
{
hints = (
{
horizontal = 1;
place = "{476, 49}";
type = Stem;
},
{
horizontal = 1;
place = "{552, 101}";
type = Stem;
},
{
horizontal = 1;
place = "{735, 71}";
type = Stem;
},
{
horizontal = 1;
place = "{-14, 152}";
type = Stem;
},
{
horizontal = 1;
place = "{0, 21}";
target = up;
type = BottomGhost;
}
);
layerId = "4FCB07EB-01E7-4D87-AA20-FCB2BF85BBFF";
paths = (
{
closed = 1;
nodes = (
"425.08 806 LINE",
"376.69 735 LINE",
"757.61 752 LINE",
"756.39 829 LINE"
);
},
{
closed = 1;
nodes = (
"379.76 653 LINE",
"348.44 552 LINE",
"433.44 552 LINE",
"464.76 653 LINE"
);
},
{
closed = 1;
nodes = (
"608.76 653 LINE",
"576.44 552 LINE",
"662.44 552 LINE",
"693.76 653 LINE"
);
},
{
closed = 1;
nodes = (
"600.97 446 LINE",
"588.36 504 OFFCURVE",
"539.21 525 OFFCURVE",
"479.21 525 CURVE SMOOTH",
"402.21 525 OFFCURVE",
"289.27 404 OFFCURVE",
"215.95 251 CURVE SMOOTH",
"145.32 101 OFFCURVE",
"177.77 -14 OFFCURVE",
"310.77 -14 CURVE SMOOTH",
"378.77 -14 OFFCURVE",
"448.93 17 OFFCURVE",
"500.93 82 CURVE",
"475 0 LINE",
"554 0 LINE",
"658.21 525 LINE",
"615.21 525 LINE"
);
},
{
closed = 1;
nodes = (
"360.2 434 OFFCURVE",
"410.9 476 OFFCURVE",
"461.9 476 CURVE SMOOTH",
"517.9 476 OFFCURVE",
"600.44 448 OFFCURVE",
"554.04 299 CURVE SMOOTH",
"514.26 170 OFFCURVE",
"499.87 138 OFFCURVE",
"347.87 138 CURVE SMOOTH",
"222.87 138 OFFCURVE",
"225.41 175 OFFCURVE",
"288.35 296 CURVE SMOOTH"
);
}
);
width = 566;
}
);
note = uni01DF;
unicode = 01DF;
},
{
glyphname = adotbelow;
layers = (
{
hints = (
{
horizontal = 1;
place = "{-150, 101}";
type = Stem;
},
{
horizontal = 1;
place = "{-14, 152}";
type = Stem;
},
{
horizontal = 1;
place = "{476, 49}";
type = Stem;
},
{
horizontal = 1;
place = "{0, 21}";
target = up;
type = BottomGhost;
}
);
layerId = "4FCB07EB-01E7-4D87-AA20-FCB2BF85BBFF";
paths = (
{
closed = 1;
nodes = (
"567.97 446 LINE",
"555.36 504 OFFCURVE",
"506.21 525 OFFCURVE",
"446.21 525 CURVE SMOOTH",
"369.21 525 OFFCURVE",
"256.27 404 OFFCURVE",
"182.95 251 CURVE SMOOTH",
"112.32 101 OFFCURVE",
"144.77 -14 OFFCURVE",
"277.77 -14 CURVE SMOOTH",
"345.77 -14 OFFCURVE",
"415.93 17 OFFCURVE",
"467.93 82 CURVE",
"443 0 LINE",
"521 0 LINE",
"625.21 525 LINE",
"582.21 525 LINE"
);
},
{
closed = 1;
nodes = (
"327.2 434 OFFCURVE",
"378.9 476 OFFCURVE",
"429.9 476 CURVE SMOOTH",
"485.9 476 OFFCURVE",
"567.44 448 OFFCURVE",
"521.04 299 CURVE SMOOTH",
"481.26 170 OFFCURVE",
"466.87 138 OFFCURVE",
"314.87 138 CURVE SMOOTH",
"189.87 138 OFFCURVE",
"192.41 175 OFFCURVE",
"255.35 296 CURVE SMOOTH"
);
},
{
closed = 1;
nodes = (
"236.7 -49 LINE",
"205.38 -150 LINE",
"289.38 -150 LINE",
"320.7 -49 LINE"
);
}
);
width = 570;
}
);
note = uni1EA1;
unicode = 1EA1;
},
{
glyphname = ahookabove;
layers = (
{
hints = (
{
horizontal = 1;
place = "{476, 49}";
type = Stem;
},
{
horizontal = 1;
place = "{651, 20}";
type = Stem;
},
{
place = "{489.21, 23}";
type = Stem;
},
{
horizontal = 1;
place = "{-14, 152}";
type = Stem;
},
{
horizontal = 1;
place = "{0, 21}";
target = up;
type = BottomGhost;
}
);
layerId = "4FCB07EB-01E7-4D87-AA20-FCB2BF85BBFF";
paths = (
{
closed = 1;
nodes = (
"484.14 659 LINE",
"501.99 667 OFFCURVE",
"516.91 671 OFFCURVE",
"530.91 671 CURVE SMOOTH",
"545.91 671 OFFCURVE",
"553.99 667 OFFCURVE",
"560.6 661 CURVE SMOOTH",
"567.22 655 OFFCURVE",
"568.91 645 OFFCURVE",
"565.6 635 CURVE SMOOTH",
"562.29 625 OFFCURVE",
"553.75 614 OFFCURVE",
"538.44 604 CURVE",
"526.82 597 LINE",
"520.9 593 OFFCURVE",
"518.2 590 OFFCURVE",
"516.97 589 CURVE",
"515.28 586 OFFCURVE",
"514.35 582 OFFCURVE",
"512.2 577 CURVE",
"489.2 577 LINE",
"488.89 580 LINE",
"491.28 586 OFFCURVE",
"494.66 592 OFFCURVE",
"496.58 596 CURVE",
"500.73 601 OFFCURVE",
"506.66 605 OFFCURVE",
"515.04 611 CURVE SMOOTH",
"527.12 620 LINE SMOOTH",
"534.27 625 OFFCURVE",
"538.66 631 OFFCURVE",
"541.04 637 CURVE SMOOTH",
"543.42 643 OFFCURVE",
"538.27 651 OFFCURVE",
"518.27 651 CURVE SMOOTH",
"505.27 651 OFFCURVE",
"493.12 646 OFFCURVE",
"477.27 638 CURVE"
);
},
{
closed = 1;
nodes = (
"588.94 446 LINE",
"576.33 504 OFFCURVE",
"527.18 525 OFFCURVE",
"467.18 525 CURVE SMOOTH",
"390.18 525 OFFCURVE",
"278.24 404 OFFCURVE",
"204.92 251 CURVE SMOOTH",
"134.29 101 OFFCURVE",
"166.74 -14 OFFCURVE",
"299.74 -14 CURVE SMOOTH",
"367.74 -14 OFFCURVE",
"436.9 17 OFFCURVE",
"488.9 82 CURVE",
"464.97 0 LINE",
"542.97 0 LINE",
"647.18 525 LINE",
"603.18 525 LINE"
);
},
{
closed = 1;
nodes = (
"349.17 434 OFFCURVE",
"399.87 476 OFFCURVE",
"450.87 476 CURVE SMOOTH",
"506.87 476 OFFCURVE",
"589.41 448 OFFCURVE",
"543.01 299 CURVE SMOOTH",
"503.23 170 OFFCURVE",
"488.84 138 OFFCURVE",
"336.84 138 CURVE SMOOTH",
"211.84 138 OFFCURVE",
"214.38 175 OFFCURVE",
"277.32 296 CURVE SMOOTH"
);
}
);
width = 570;
}
);
note = uni1EA3;
unicode = 1EA3;
},
{
glyphname = "alpha-latin";
layers = (
{
hints = (
{
horizontal = 1;
place = "{-14, 152}";
type = Stem;
},
{
horizontal = 1;
place = "{476, 49}";
type = Stem;
},
{
horizontal = 1;
place = "{0, 21}";
target = up;
type = BottomGhost;
}
);
layerId = "4FCB07EB-01E7-4D87-AA20-FCB2BF85BBFF";
paths = (
{
closed = 1;
nodes = (
"577.97 446 LINE",
"565.36 504 OFFCURVE",
"516.21 525 OFFCURVE",
"456.21 525 CURVE SMOOTH",
"379.21 525 OFFCURVE",
"267.27 404 OFFCURVE",
"193.95 251 CURVE SMOOTH",
"123.32 101 OFFCURVE",
"155.77 -14 OFFCURVE",
"288.77 -14 CURVE SMOOTH",
"356.77 -14 OFFCURVE",
"425.93 17 OFFCURVE",
"477.93 82 CURVE",
"453 0 LINE",
"531 0 LINE",
"636.21 525 LINE",
"593.21 525 LINE"
);
},
{
closed = 1;
nodes = (
"337.2 434 OFFCURVE",
"388.9 476 OFFCURVE",
"439.9 476 CURVE SMOOTH",
"495.9 476 OFFCURVE",
"577.44 448 OFFCURVE",
"531.04 299 CURVE SMOOTH",
"491.26 170 OFFCURVE",
"476.87 138 OFFCURVE",
"324.87 138 CURVE SMOOTH",
"199.87 138 OFFCURVE",
"202.41 175 OFFCURVE",
"265.35 296 CURVE SMOOTH"
);
}
);
width = 570;
}
);
note = uni0251;
unicode = 0251;
},
{
glyphname = "alphaturned-latin";
layers = (
{
hints = (
{
horizontal = 1;
place = "{-25, 49}";
type = Stem;
},
{
horizontal = 1;
place = "{335, 152}";
type = Stem;
}
);
layerId = "4FCB07EB-01E7-4D87-AA20-FCB2BF85BBFF";
paths = (
{
closed = 1;
nodes = (
"217 52 LINE",
"230.07 -4 OFFCURVE",
"280.22 -25 OFFCURVE",
"340.22 -25 CURVE SMOOTH",
"417.22 -25 OFFCURVE",
"526.77 90 OFFCURVE",
"596.25 235 CURVE SMOOTH",
"664.03 377 OFFCURVE",
"628.43 487 OFFCURVE",
"495.43 487 CURVE SMOOTH",
"427.43 487 OFFCURVE",
"357.27 456 OFFCURVE",
"305.27 391 CURVE",
"330.2 473 LINE",
"252.2 473 LINE",
"160.23 -25 LINE",
"203.23 -25 LINE"
);
},
{
closed = 1;
nodes = (
"457.32 62 OFFCURVE",
"406.55 24 OFFCURVE",
"355.55 24 CURVE SMOOTH",
"299.55 24 OFFCURVE",
"217.55 50 OFFCURVE",
"258.18 187 CURVE SMOOTH",
"293.65 306 OFFCURVE",
"306.35 335 OFFCURVE",
"458.35 335 CURVE SMOOTH",
"583.35 335 OFFCURVE",
"582.27 300 OFFCURVE",
"523.64 189 CURVE SMOOTH"
);
}
);
width = 570;
}
);
note = uni0252;
unicode = 0252;
},
{
glyphname = amacron;
layers = (
{
hints = (
{
horizontal = 1;
place = "{476, 49}";
type = Stem;
},
{
horizontal = 1;
place = "{643, 71}";
type = Stem;
},
{
horizontal = 1;
place = "{-14, 152}";
type = Stem;
},
{
horizontal = 1;
place = "{0, 21}";
target = up;
type = BottomGhost;
}
);
layerId = "4FCB07EB-01E7-4D87-AA20-FCB2BF85BBFF";
paths = (
{
closed = 1;
nodes = (
"387.84 714 LINE",
"339.45 643 LINE",
"720.37 660 LINE",
"719.15 737 LINE"
);
},
{
closed = 1;
nodes = (
"593.97 446 LINE",
"581.36 504 OFFCURVE",
"532.21 525 OFFCURVE",
"472.21 525 CURVE SMOOTH",
"395.21 525 OFFCURVE",
"283.27 404 OFFCURVE",
"209.95 251 CURVE SMOOTH",
"139.32 101 OFFCURVE",
"171.77 -14 OFFCURVE",
"304.77 -14 CURVE SMOOTH",
"372.77 -14 OFFCURVE",
"441.93 17 OFFCURVE",
"493.93 82 CURVE",
"468 0 LINE",
"547 0 LINE",
"651.21 525 LINE",
"608.21 525 LINE"
);
},
{
closed = 1;
nodes = (
"353.2 434 OFFCURVE",
"403.9 476 OFFCURVE",
"454.9 476 CURVE SMOOTH",
"510.9 476 OFFCURVE",
"593.44 448 OFFCURVE",
"547.04 299 CURVE SMOOTH",
"507.26 170 OFFCURVE",
"492.87 138 OFFCURVE",
"340.87 138 CURVE SMOOTH",
"215.87 138 OFFCURVE",
"218.41 175 OFFCURVE",
"281.35 296 CURVE SMOOTH"
);
}
);
width = 567;
}
);
note = amacron;
unicode = 0101;
},
{
glyphname = aogonek;
layers = (
{
hints = (
{
horizontal = 1;
place = "{-175, 65}";
type = Stem;
},
{
horizontal = 1;
place = "{-14, 152}";
type = Stem;
},
{
horizontal = 1;
place = "{476, 49}";
type = Stem;
}
);
layerId = "4FCB07EB-01E7-4D87-AA20-FCB2BF85BBFF";
paths = (
{
closed = 1;
nodes = (
"470.07 -108 OFFCURVE",
"453.61 -110 OFFCURVE",
"440.61 -110 CURVE SMOOTH",
"406.61 -110 OFFCURVE",
"394.15 -99 OFFCURVE",
"399.77 -79 CURVE",
"405.93 -61 OFFCURVE",
"426.93 -35 OFFCURVE",
"465.01 0 CURVE",
"516.01 0 LINE",
"623.22 525 LINE",
"580.22 525 LINE",
"565.98 446 LINE",
"553.37 504 OFFCURVE",
"504.22 525 OFFCURVE",
"444.22 525 CURVE SMOOTH",
"367.22 525 OFFCURVE",
"255.28 404 OFFCURVE",
"181.96 251 CURVE SMOOTH",
"111.33 101 OFFCURVE",
"143.78 -14 OFFCURVE",
"276.78 -14 CURVE SMOOTH",
"344.78 -14 OFFCURVE",
"413.94 17 OFFCURVE",
"465.94 82 CURVE",
"450.17 31 LINE",
"392.55 -15 OFFCURVE",
"358.08 -56 OFFCURVE",
"348.47 -89 CURVE SMOOTH",
"331.54 -145 OFFCURVE",
"379.15 -177 OFFCURVE",
"476.61 -175 CURVE",
"479.53 -158 OFFCURVE",
"485.15 -125 OFFCURVE",
"488.77 -105 CURVE"
);
},
{
closed = 1;
nodes = (
"187.87 138 OFFCURVE",
"190.41 175 OFFCURVE",
"253.35 296 CURVE SMOOTH",
"325.21 434 OFFCURVE",
"376.91 476 OFFCURVE",
"427.91 476 CURVE SMOOTH",
"483.91 476 OFFCURVE",
"565.45 448 OFFCURVE",
"519.05 299 CURVE SMOOTH",
"479.27 170 OFFCURVE",
"464.88 138 OFFCURVE",
"312.88 138 CURVE SMOOTH"
);
}
);
width = 565;
}
);
note = aogonek;
unicode = 0105;
},
{
glyphname = aturned;
layers = (
{
hints = (
{
horizontal = 1;
place = "{-25, 49}";
type = Stem;
},
{
horizontal = 1;
place = "{335, 152}";
type = Stem;
}
);
layerId = "4FCB07EB-01E7-4D87-AA20-FCB2BF85BBFF";
paths = (
{
closed = 1;
nodes = (
"217 52 LINE",
"230.07 -4 OFFCURVE",
"280.22 -25 OFFCURVE",
"340.22 -25 CURVE SMOOTH",
"417.22 -25 OFFCURVE",
"526.77 90 OFFCURVE",
"596.25 235 CURVE SMOOTH",
"664.03 377 OFFCURVE",
"628.43 487 OFFCURVE",
"495.43 487 CURVE SMOOTH",
"427.43 487 OFFCURVE",
"357.27 456 OFFCURVE",
"305.27 391 CURVE",
"330.2 473 LINE",
"252.2 473 LINE",
"160.23 -25 LINE",
"203.23 -25 LINE"
);
},
{
closed = 1;
nodes = (
"457.32 62 OFFCURVE",
"406.55 24 OFFCURVE",
"355.55 24 CURVE SMOOTH",
"299.55 24 OFFCURVE",
"217.55 50 OFFCURVE",
"258.18 187 CURVE SMOOTH",
"293.65 306 OFFCURVE",
"306.35 335 OFFCURVE",
"458.35 335 CURVE SMOOTH",
"583.35 335 OFFCURVE",
"582.27 300 OFFCURVE",
"523.64 189 CURVE SMOOTH"
);
}
);
width = 570;
}
);
note = uni0250;
unicode = 0250;
},
{
glyphname = b;
layers = (
{
hints = (
{
horizontal = 1;
place = "{-14, 160}";
type = Stem;
},
{
horizontal = 1;
place = "{468, 64}";
type = Stem;
}
);
layerId = "4FCB07EB-01E7-4D87-AA20-FCB2BF85BBFF";
paths = (
{
closed = 1;
nodes = (
"211.24 27 OFFCURVE",
"233.77 -14 OFFCURVE",
"354.77 -14 CURVE SMOOTH",
"466.77 -14 OFFCURVE",
"580.32 101 OFFCURVE",
"634.03 273 CURVE SMOOTH",
"679.28 417 OFFCURVE",
"636.82 532 OFFCURVE",
"524.82 532 CURVE SMOOTH",
"433.82 532 OFFCURVE",
"336.11 399 OFFCURVE",
"359.43 474 CURVE SMOOTH",
"459.08 793 LINE",
"377.08 793 LINE",
"291.28 430 OFFCURVE",
"207.25 144 OFFCURVE",
"211.86 99 CURVE"
);
},
{
closed = 1;
nodes = (
"548.56 193 OFFCURVE",
"491.1 152 OFFCURVE",
"421.71 146 CURVE",
"312.71 146 OFFCURVE",
"307.17 187 OFFCURVE",
"338.72 289 CURVE SMOOTH",
"371.19 395 OFFCURVE",
"443.05 468 OFFCURVE",
"523.05 468 CURVE SMOOTH",
"604.05 468 OFFCURVE",
"621.5 392 OFFCURVE",
"590.65 293 CURVE"
);
}
);
width = 564;
}
);
note = b;
unicode = 0062;
},
{
glyphname = bdotaccent;
layers = (
{
hints = (
{
horizontal = 1;
place = "{-14, 160}";
type = Stem;
},
{
horizontal = 1;
place = "{468, 64}";
type = Stem;
},
{
horizontal = 1;
place = "{881, 101}";
type = Stem;
}
);
layerId = "4FCB07EB-01E7-4D87-AA20-FCB2BF85BBFF";
paths = (
{
closed = 1;
nodes = (
"614.71 982 LINE",
"583.39 881 LINE",
"668.39 881 LINE",
"699.71 982 LINE"
);
},
{
closed = 1;
nodes = (
"225.23 27 OFFCURVE",
"247.76 -14 OFFCURVE",
"368.76 -14 CURVE SMOOTH",
"480.76 -14 OFFCURVE",
"594.31 101 OFFCURVE",
"648.02 273 CURVE SMOOTH",
"693.27 417 OFFCURVE",
"650.81 532 OFFCURVE",
"538.81 532 CURVE SMOOTH",
"447.81 532 OFFCURVE",
"351.1 399 OFFCURVE",
"374.42 474 CURVE SMOOTH",
"474.07 793 LINE",
"391.07 793 LINE",
"305.27 430 OFFCURVE",
"221.24 144 OFFCURVE",
"225.85 99 CURVE"
);
},
{
closed = 1;
nodes = (
"563.55 193 OFFCURVE",
"506.09 152 OFFCURVE",
"436.7 146 CURVE",
"327.7 146 OFFCURVE",
"322.16 187 OFFCURVE",
"353.71 289 CURVE SMOOTH",
"386.18 395 OFFCURVE",
"457.04 468 OFFCURVE",
"537.04 468 CURVE SMOOTH",
"618.04 468 OFFCURVE",
"636.49 392 OFFCURVE",
"605.64 293 CURVE"
);
}
);
width = 564;
}
);
note = uni1E03;
unicode = 1E03;
},
{
glyphname = bdotbelow;
layers = (
{
hints = (
{
horizontal = 1;
place = "{-197, 101}";
type = Stem;
},
{
horizontal = 1;
place = "{-14, 160}";
type = Stem;
},
{
horizontal = 1;
place = "{468, 64}";
type = Stem;
}
);
layerId = "4FCB07EB-01E7-4D87-AA20-FCB2BF85BBFF";
paths = (
{
closed = 1;
nodes = (
"197.24 27 OFFCURVE",
"219.77 -14 OFFCURVE",
"340.77 -14 CURVE SMOOTH",
"452.77 -14 OFFCURVE",
"566.32 101 OFFCURVE",
"620.03 273 CURVE SMOOTH",
"665.28 417 OFFCURVE",
"621.82 532 OFFCURVE",
"509.82 532 CURVE SMOOTH",
"418.82 532 OFFCURVE",
"322.11 399 OFFCURVE",
"345.43 474 CURVE SMOOTH",
"445.08 793 LINE",
"362.08 793 LINE",
"276.28 430 OFFCURVE",
"193.25 144 OFFCURVE",
"197.86 99 CURVE"
);
},
{
closed = 1;
nodes = (
"534.56 193 OFFCURVE",
"477.1 152 OFFCURVE",
"407.71 146 CURVE",
"298.71 146 OFFCURVE",
"293.17 187 OFFCURVE",
"324.72 289 CURVE SMOOTH",
"357.19 395 OFFCURVE",
"428.05 468 OFFCURVE",
"508.05 468 CURVE SMOOTH",
"589.05 468 OFFCURVE",
"607.5 392 OFFCURVE",
"576.65 293 CURVE"
);
},
{
closed = 1;
nodes = (
"254.84 -96 LINE",
"223.52 -197 LINE",
"308.52 -197 LINE",
"339.84 -96 LINE"
);
}
);
width = 564;
}
);
note = uni1E05;
unicode = 1E05;
},
{
glyphname = bhook;
layers = (
{
hints = (
{
horizontal = 1;
place = "{-14, 160}";
type = Stem;
},
{
horizontal = 1;
place = "{468, 64}";
type = Stem;
}
);
layerId = "4FCB07EB-01E7-4D87-AA20-FCB2BF85BBFF";
paths = (
{
closed = 1;
nodes = (
"445.82 532 OFFCURVE",
"349.11 399 OFFCURVE",
"372.43 474 CURVE SMOOTH",
"416.91 619 LINE",
"417.68 618 LINE",
"419.76 627 LINE",
"471.08 793 LINE",
"493.85 831 OFFCURVE",
"529.55 860 OFFCURVE",
"581.7 865 CURVE",
"598.47 916 OFFCURVE",
"605.01 940 OFFCURVE",
"616.79 991 CURVE",
"488.02 979 OFFCURVE",
"404.24 863 OFFCURVE",
"386.69 774 CURVE",
"384.69 761 LINE",
"299.35 413 OFFCURVE",
"221.01 143 OFFCURVE",
"223.86 99 CURVE",
"223.24 27 OFFCURVE",
"245.77 -14 OFFCURVE",
"366.77 -14 CURVE SMOOTH",
"478.77 -14 OFFCURVE",
"591.32 101 OFFCURVE",
"645.03 273 CURVE SMOOTH",
"690.28 417 OFFCURVE",
"648.82 532 OFFCURVE",
"536.82 532 CURVE SMOOTH"
);
},
{
closed = 1;
nodes = (
"325.7 146 OFFCURVE",
"319.16 187 OFFCURVE",
"350.71 289 CURVE SMOOTH",
"383.18 395 OFFCURVE",
"454.04 468 OFFCURVE",
"534.04 468 CURVE SMOOTH",
"615.04 468 OFFCURVE",
"634.49 392 OFFCURVE",
"603.64 293 CURVE",
"561.55 193 OFFCURVE",
"504.09 152 OFFCURVE",
"434.7 146 CURVE"
);
}
);
width = 552;
}
);
note = uni0253;
unicode = 0253;
},
{
glyphname = bidentalpercussive;
layers = (
{
hints = (
{
horizontal = 1;
place = "{102, 60}";
type = Stem;
},
{
horizontal = 1;
place = "{417, 60}";
type = Stem;
}
);
layerId = "4FCB07EB-01E7-4D87-AA20-FCB2BF85BBFF";
paths = (
{
closed = 1;
nodes = (
"369.12 477 LINE",
"120.12 477 LINE",
"73.57 323 LINE",
"134.57 323 LINE",
"162.27 417 LINE",
"291.27 417 LINE",
"261.57 323 LINE",
"322.57 323 LINE"
);
},
{
closed = 1;
nodes = (
"277.4 162 LINE",
"29.4 162 LINE",
"-18.15 8 LINE",
"42.85 8 LINE",
"70.55 102 LINE",
"198.55 102 LINE",
"170.85 8 LINE",
"230.85 8 LINE"
);
}
);
width = 261;
}
);
note = uni02AD;
unicode = 02AD;
},
{
glyphname = bilabialclick;
layers = (
{
hints = (
{
horizontal = 1;
place = "{-173, 101}";
type = Stem;
},
{
horizontal = 1;
place = "{-14, 187}";
type = Stem;
},
{
horizontal = 1;
place = "{672, 70}";
type = Stem;
}
);
layerId = "4FCB07EB-01E7-4D87-AA20-FCB2BF85BBFF";
paths = (
{
closed = 1;
nodes = (
"458.3 742 OFFCURVE",
"300.13 594 OFFCURVE",
"229.03 364 CURVE SMOOTH",
"132.46 54 OFFCURVE",
"201.22 -12 OFFCURVE",
"396.76 -14 CURVE SMOOTH",
"609.3 -16 OFFCURVE",
"695.46 54 OFFCURVE",
"798.03 364 CURVE SMOOTH",
"873.13 594 OFFCURVE",
"804.3 742 OFFCURVE",
"631.3 742 CURVE SMOOTH"
);
},
{
closed = 1;
nodes = (
"731.14 672 OFFCURVE",
"767.51 548 OFFCURVE",
"710.03 364 CURVE SMOOTH",
"663.17 213 OFFCURVE",
"575.93 173 OFFCURVE",
"454.93 173 CURVE SMOOTH",
"333.93 173 OFFCURVE",
"270.16 213 OFFCURVE",
"317.03 364 CURVE SMOOTH",
"374.51 548 OFFCURVE",
"489.14 672 OFFCURVE",
"610.14 672 CURVE SMOOTH"
);
},
{
closed = 1;
nodes = (
"336.37 -72 LINE",
"305.05 -173 LINE",
"390.05 -173 LINE",
"421.37 -72 LINE"
);
}
);
width = 721;
}
);
note = uni0298;
unicode = 0298;
},
{
glyphname = bilabialpercussive;
layers = (
{
hints = (
{
horizontal = 1;
place = "{0, 21}";
target = up;
type = BottomGhost;
},
{
place = "{230.57, 46}";
type = Stem;
},
{
place = "{350.22, 46}";
type = Stem;
}
);
layerId = "4FCB07EB-01E7-4D87-AA20-FCB2BF85BBFF";
paths = (
{
closed = 1;
nodes = (
"319.65 384 LINE",
"381.65 384 LINE",
"470.43 500 LINE",
"485.65 384 LINE",
"552.65 384 LINE",
"730.22 720 LINE",
"682.22 720 LINE",
"558.58 505 LINE",
"531.67 644 LINE",
"499.67 644 LINE",
"387.58 505 LINE",
"396.22 720 LINE",
"350.22 720 LINE"
);
},
{
closed = 1;
nodes = (
"200 0 LINE",
"262 0 LINE",
"351.78 116 LINE",
"368 0 LINE",
"433 0 LINE",
"612.57 336 LINE",
"564.57 336 LINE",
"440.16 122 LINE",
"412.02 260 LINE",
"380.02 260 LINE",
"268.16 122 LINE",
"276.57 336 LINE",
"230.57 336 LINE"
);
}
);
width = 529;
}
);
note = uni02AC;
unicode = 02AC;
},
{
glyphname = bmiddletilde;
layers = (
{
hints = (
{
horizontal = 1;
place = "{-14, 160}";
type = Stem;
},
{
horizontal = 1;
place = "{468, 64}";
type = Stem;
},
{
horizontal = 1;
place = "{556, 50}";
type = Stem;
},
{
horizontal = 1;
place = "{661, 45}";
type = Stem;
}
);
layerId = "4FCB07EB-01E7-4D87-AA20-FCB2BF85BBFF";
paths = (
{
closed = 1;
nodes = (
"432.82 532 OFFCURVE",
"336.11 399 OFFCURVE",
"359.43 474 CURVE SMOOTH",
"385.51 561 LINE",
"390.82 558 OFFCURVE",
"397.36 556 OFFCURVE",
"405.36 556 CURVE SMOOTH",
"451.13 555 OFFCURVE",
"479.28 560 OFFCURVE",
"525.99 706 CURVE",
"485.99 706 LINE",
"469.68 657 OFFCURVE",
"461.9 606 OFFCURVE",
"419.9 606 CURVE SMOOTH",
"411.9 606 OFFCURVE",
"405.82 610 OFFCURVE",
"402.44 617 CURVE",
"457.07 793 LINE",
"376.07 793 LINE",
"369.14 763 OFFCURVE",
"361.22 733 OFFCURVE",
"354.52 704 CURVE",
"350.75 705 OFFCURVE",
"345.98 706 OFFCURVE",
"340.98 706 CURVE SMOOTH",
"278.98 706 OFFCURVE",
"255.36 673 OFFCURVE",
"213.35 556 CURVE",
"261.35 556 LINE",
"274.28 599 OFFCURVE",
"293.82 662 OFFCURVE",
"327.59 661 CURVE SMOOTH",
"333.59 661 OFFCURVE",
"338.67 657 OFFCURVE",
"342.28 651 CURVE",
"269.41 357 OFFCURVE",
"204.84 138 OFFCURVE",
"208.84 99 CURVE",
"208.22 27 OFFCURVE",
"232.75 -14 OFFCURVE",
"353.75 -14 CURVE SMOOTH",
"466.75 -14 OFFCURVE",
"580.3 101 OFFCURVE",
"634.01 273 CURVE SMOOTH",
"679.26 417 OFFCURVE",
"635.8 532 OFFCURVE",
"523.8 532 CURVE SMOOTH"
);
},
{
closed = 1;
nodes = (
"313.68 146 OFFCURVE",
"308.14 187 OFFCURVE",
"339.69 289 CURVE SMOOTH",
"372.16 395 OFFCURVE",
"443.02 468 OFFCURVE",
"523.02 468 CURVE SMOOTH",
"604.02 468 OFFCURVE",
"621.47 392 OFFCURVE",
"590.62 293 CURVE",
"548.53 193 OFFCURVE",
"492.07 152 OFFCURVE",
"422.68 146 CURVE"
);
}
);
width = 564;
}
);
note = uni1D6C;
unicode = 1D6C;
},
{
glyphname = c;
lastChange = "2019-08-23 20:20:19 +0000";
layers = (
{
anchors = (
{
name = bottom;
position = "{256, 0}";
},
{
name = top;
position = "{294, 573}";
}
);
hints = (
{
horizontal = 1;
place = "{462, 71}";
type = Stem;
}
);
layerId = "4FCB07EB-01E7-4D87-AA20-FCB2BF85BBFF";
paths = (
{
closed = 1;
nodes = (
"461 515 LINE",
"445 522 OFFCURVE",
"416 527 OFFCURVE",
"393 527 CURVE SMOOTH",
"250 527 OFFCURVE",
"128 423 OFFCURVE",
"75 253 CURVE SMOOTH",
"23 85 OFFCURVE",
"49 -6 OFFCURVE",
"219 -20 CURVE SMOOTH",
"269 -24 OFFCURVE",
"319 -9 OFFCURVE",
"367 13 CURVE",
"313 121 LINE",
"207 62 OFFCURVE",
"130 128 OFFCURVE",
"159 251 CURVE",
"197 377 OFFCURVE",
"256 456 OFFCURVE",
"354 456 CURVE SMOOTH",
"378 456 OFFCURVE",
"415 453 OFFCURVE",
"439 444 CURVE"
);
}
);
width = 512;
}
);
note = c;
unicode = 0063;
},
{
glyphname = cacute;
layers = (
{
hints = (
{
horizontal = 1;
place = "{462, 71}";
type = Stem;
}
);
layerId = "4FCB07EB-01E7-4D87-AA20-FCB2BF85BBFF";
paths = (
{
closed = 1;
nodes = (
"580.46 760 LINE",
"458.06 585 LINE",
"522.06 585 LINE",
"622.46 760 LINE"
);
},
{
closed = 1;
nodes = (
"593.28 521 LINE",
"577.9 528 OFFCURVE",
"548.05 533 OFFCURVE",
"525.05 533 CURVE SMOOTH",
"382.05 533 OFFCURVE",
"259.04 429 OFFCURVE",
"206.79 259 CURVE SMOOTH",
"156 91 OFFCURVE",
"179.76 -1 OFFCURVE",
"349.76 -14 CURVE SMOOTH",
"399.84 -18 OFFCURVE",
"450.3 -3 OFFCURVE",
"498.38 19 CURVE",
"444.31 127 LINE",
"338.69 68 OFFCURVE",
"260.93 134 OFFCURVE",
"289.32 257 CURVE",
"327.41 383 OFFCURVE",
"387.65 462 OFFCURVE",
"485.65 462 CURVE SMOOTH",
"509.65 462 OFFCURVE",
"546.96 459 OFFCURVE",
"570.88 450 CURVE"
);
}
);
width = 512;
}
);
note = cacute;
unicode = 0107;
},
{
glyphname = ccurl;
layers = (
{
hints = (
{
horizontal = 1;
place = "{-200, 21}";
target = up;
type = BottomGhost;
},
{
horizontal = 1;
place = "{226, 95}";
type = Stem;
},
{
horizontal = 1;
place = "{462, 71}";
type = Stem;
}
);
layerId = "4FCB07EB-01E7-4D87-AA20-FCB2BF85BBFF";
paths = (
{
closed = 1;
nodes = (
"607.4 214 OFFCURVE",
"601.18 252 OFFCURVE",
"570.03 286 CURVE SMOOTH",
"546.57 310 OFFCURVE",
"521.11 321 OFFCURVE",
"494.11 321 CURVE SMOOTH",
"431.11 321 OFFCURVE",
"370.03 260 OFFCURVE",
"342.71 172 CURVE SMOOTH",
"320.63 98 LINE",
"241.94 108 OFFCURVE",
"246.18 200 OFFCURVE",
"263.26 261 CURVE SMOOTH",
"300.89 385 OFFCURVE",
"359.66 462 OFFCURVE",
"457.66 462 CURVE SMOOTH",
"481.66 462 OFFCURVE",
"518.2 460 OFFCURVE",
"542.12 451 CURVE",
"564.28 521 LINE",
"548.9 528 OFFCURVE",
"519.05 533 OFFCURVE",
"496.05 533 CURVE SMOOTH",
"353.05 533 OFFCURVE",
"230.81 428 OFFCURVE",
"178.79 259 CURVE SMOOTH",
"132.01 104 OFFCURVE",
"145.46 2 OFFCURVE",
"286.22 -12 CURVE",
"227.82 -200 LINE",
"320.82 -200 LINE",
"340.36 -137 OFFCURVE",
"355.68 -75 OFFCURVE",
"372.69 -10 CURVE SMOOTH",
"373.38 -7 LINE",
"467.69 16 OFFCURVE",
"570.93 95 OFFCURVE",
"595.63 176 CURVE SMOOTH"
);
},
{
closed = 1;
nodes = (
"405.7 120 OFFCURVE",
"409.7 133 OFFCURVE",
"413.93 147 CURVE SMOOTH",
"429.63 202 OFFCURVE",
"455.17 226 OFFCURVE",
"478.17 226 CURVE SMOOTH",
"490.17 226 OFFCURVE",
"500.79 220 OFFCURVE",
"511.25 209 CURVE SMOOTH",
"516.1 204 OFFCURVE",
"516.25 196 OFFCURVE",
"514.4 188 CURVE",
"506.4 162 OFFCURVE",
"463.62 124 OFFCURVE",
"402.7 107 CURVE"
);
}
);
width = 593;
}
);
note = uni0255;
unicode = 0255;
},
{
glyphname = cdotaccent;
layers = (
{
hints = (
{
horizontal = 1;
place = "{462, 71}";
type = Stem;
},
{
horizontal = 1;
place = "{628, 101}";
type = Stem;
}
);
layerId = "4FCB07EB-01E7-4D87-AA20-FCB2BF85BBFF";
paths = (
{
closed = 1;
nodes = (
"506.3 729 LINE",
"474.98 628 LINE",
"558.98 628 LINE",
"590.3 729 LINE"
);
},
{
closed = 1;
nodes = (
"590.28 521 LINE",
"574.9 528 OFFCURVE",
"545.05 533 OFFCURVE",
"522.05 533 CURVE SMOOTH",
"379.05 533 OFFCURVE",
"257.04 429 OFFCURVE",
"204.79 259 CURVE SMOOTH",
"154 91 OFFCURVE",
"178.76 -1 OFFCURVE",
"348.76 -14 CURVE SMOOTH",
"398.84 -18 OFFCURVE",
"448.3 -3 OFFCURVE",
"496.38 19 CURVE",
"441.31 127 LINE",
"335.69 68 OFFCURVE",
"259.93 134 OFFCURVE",
"288.32 257 CURVE",
"326.41 383 OFFCURVE",
"385.65 462 OFFCURVE",
"483.65 462 CURVE SMOOTH",
"507.65 462 OFFCURVE",
"544.96 459 OFFCURVE",
"568.88 450 CURVE"
);
}
);
width = 512;
}
);
note = cdotaccent;
unicode = 010B;
},
